<svg xmlns="http://www.w3.org/2000/svg" width="425.496" height="270.09" viewBox="0 0 425.496 270.09"><g transform="translate(0.499 0.5)"><g transform="translate(0 0)" opacity="0.3"><path d="M-18.542-6.043h-15.92a17.333,17.333,0,0,0-7.275,1.248,16.025,16.025,0,0,0-5.076,3.412,16.013,16.013,0,0,0-3.412,5.076,15.539,15.539,0,0,0-1.248,6.185,15.529,15.529,0,0,0,1.248,6.185,16.016,16.016,0,0,0,3.412,5.076,16.011,16.011,0,0,0,5.076,3.411A15.535,15.535,0,0,0-35.552,25.8h17.01Zm30.564-15.92v15.92h-14.7V25.8h14.7V41.665H-35.552a31.011,31.011,0,0,1-12.4-2.5,32.382,32.382,0,0,1-10.125-6.795,31.818,31.818,0,0,1-6.823-10.1,31.007,31.007,0,0,1-2.5-12.4,31.014,31.014,0,0,1,2.5-12.4,32.149,32.149,0,0,1,6.823-10.124A32.155,32.155,0,0,1-47.95-19.467a31.01,31.01,0,0,1,12.4-2.5Z" transform="translate(67.395 126.121)" fill="#fff"/><path d="M-11.6-18.107H4.32A17.332,17.332,0,0,0,11.6-19.355a16.023,16.023,0,0,0,5.076-3.411,16.016,16.016,0,0,0,3.412-5.076,15.535,15.535,0,0,0,1.248-6.185,15.534,15.534,0,0,0-1.248-6.185,16.025,16.025,0,0,0-3.412-5.076A16.035,16.035,0,0,0,11.6-48.7,15.534,15.534,0,0,0,5.41-49.95H-11.6ZM-42.164-2.186V-18.107h14.7V-49.95h-14.7V-65.815H5.41a31.011,31.011,0,0,1,12.4,2.5,32.384,32.384,0,0,1,10.125,6.8,31.806,31.806,0,0,1,6.823,10.1,31.006,31.006,0,0,1,2.5,12.4,31.017,31.017,0,0,1-2.5,12.4,32.148,32.148,0,0,1-6.823,10.124A32.141,32.141,0,0,1,17.808-4.682a31.011,31.011,0,0,1-12.4,2.5Z" transform="translate(387.244 169.972)" fill="#fff"/><path d="M-6.043-11.6V4.32A17.335,17.335,0,0,0-4.795,11.6a15.887,15.887,0,0,0,8.488,8.487,15.535,15.535,0,0,0,6.185,1.249,15.532,15.532,0,0,0,6.185-1.249A15.887,15.887,0,0,0,24.551,11.6,15.538,15.538,0,0,0,25.8,5.409V-11.6ZM-21.964-42.164H-6.043v14.7H25.8v-14.7H41.665V5.409a31.014,31.014,0,0,1-2.5,12.4,32.372,32.372,0,0,1-6.8,10.124,31.794,31.794,0,0,1-10.1,6.823,30.994,30.994,0,0,1-12.4,2.5,31,31,0,0,1-12.4-2.5,32.148,32.148,0,0,1-10.124-6.823,32.141,32.141,0,0,1-6.823-10.124,31.014,31.014,0,0,1-2.5-12.4Z" transform="translate(217.15 231.836)" fill="#fff"/><path d="M-18.107-18.542v-15.92a17.333,17.333,0,0,0-1.248-7.275,16.023,16.023,0,0,0-3.411-5.076,16.025,16.025,0,0,0-5.076-3.412,15.534,15.534,0,0,0-6.185-1.248,15.532,15.532,0,0,0-6.185,1.248,16.025,16.025,0,0,0-5.076,3.412A16.023,16.023,0,0,0-48.7-41.737a15.535,15.535,0,0,0-1.248,6.186v17.009ZM-2.186,12.022H-18.107v-14.7H-49.95v14.7H-65.815V-35.551a31.012,31.012,0,0,1,2.5-12.4,32.384,32.384,0,0,1,6.8-10.125,31.818,31.818,0,0,1,10.1-6.823,31.006,31.006,0,0,1,12.4-2.5,31.009,31.009,0,0,1,12.4,2.5,32.172,32.172,0,0,1,10.124,6.823A32.153,32.153,0,0,1-4.682-47.95a31.012,31.012,0,0,1,2.5,12.4Z" transform="translate(288.336 69.097)" fill="#fff"/><path d="M0-102.131V-371.219" transform="translate(345.08 371.219)" fill="none" stroke="#fff" stroke-width="1"/><path d="M0-102.131V-371.219" transform="translate(79.416 371.219)" fill="none" stroke="#fff" stroke-width="1"/><path d="M0,0H424.5" transform="translate(0.001 189.672)" fill="none" stroke="#fff" stroke-width="1"/><path d="M0,0H424.5" transform="translate(0.001 88.37)" fill="none" stroke="#fff" stroke-width="1"/><path d="M0,0H424.5" transform="translate(0.001 167.786)" fill="none" stroke="#fff" stroke-width="1"/><path d="M0,0H424.5" transform="translate(0.001 81.119)" fill="none" stroke="#fff" stroke-width="1"/><path d="M0-114.129H424.5v-269.09H0Z" transform="translate(0.001 383.219)" fill="none" stroke="#fff" stroke-width="1"/></g><g transform="translate(79.418 80.268)"><path d="M0-3.987H0a10.5,10.5,0,0,1,10.5-10.5,10.5,10.5,0,0,1,10.5,10.5,10.5,10.5,0,0,1-10.5,10.5A10.5,10.5,0,0,1,0-3.987" transform="translate(187.738 14.491)" fill="#fff"/><path d="M0,0V55a25.919,25.919,0,0,0,7.215-5.084,26.031,26.031,0,0,0,5.526-8.18,24.958,24.958,0,0,0,2.01-9.977V0Z" transform="translate(190.866 29.216)" fill="#fff"/><path d="M-16.674-11.5a15.227,15.227,0,0,0-1.153-5.82,16.745,16.745,0,0,0-3.139-4.989,15.605,15.605,0,0,0-4.64-3.486,12.584,12.584,0,0,0-5.658-1.315,14.645,14.645,0,0,0-5.66,1.1,13.473,13.473,0,0,0-4.613,3.138,14.8,14.8,0,0,0-3.084,4.907A17.576,17.576,0,0,0-45.748-11.5a18.321,18.321,0,0,0,1.126,6.625A14.081,14.081,0,0,0-41.538.03,13.179,13.179,0,0,0-36.925,3.06a15.3,15.3,0,0,0,5.66,1.045,12.572,12.572,0,0,0,5.658-1.313,15.6,15.6,0,0,0,4.64-3.487,16.751,16.751,0,0,0,3.139-4.989,15.227,15.227,0,0,0,1.153-5.82m14.751,51.12H-16.674V13.87q-1.665.966-3.406,1.877a36.243,36.243,0,0,1-3.595,1.636,26.09,26.09,0,0,1-3.754,1.153,17.388,17.388,0,0,1-3.835.429,29.33,29.33,0,0,1-11.4-2.226A28.427,28.427,0,0,1-52,10.49,29.286,29.286,0,0,1-58.3.861,32.183,32.183,0,0,1-60.607-11.5,32.332,32.332,0,0,1-58.3-23.921,28.7,28.7,0,0,1-52-33.5a28.164,28.164,0,0,1,9.334-6.142,29.943,29.943,0,0,1,11.4-2.172,22.018,22.018,0,0,1,5.5.7,30.261,30.261,0,0,1,5.284,1.9,31.523,31.523,0,0,1,4.907,2.87,50.812,50.812,0,0,1,4.426,3.54l5.686-6.812h3.54Z" transform="translate(132.443 68.936)" fill="#fff"/><path d="M-18.107-18.542v-15.92a17.338,17.338,0,0,0-1.248-7.276,16.02,16.02,0,0,0-3.411-5.075,16.012,16.012,0,0,0-5.076-3.412,15.535,15.535,0,0,0-6.185-1.249,15.532,15.532,0,0,0-6.185,1.249,16.013,16.013,0,0,0-5.076,3.412A16.02,16.02,0,0,0-48.7-41.738a15.54,15.54,0,0,0-1.248,6.186v17.01ZM-2.186,12.021H-18.107v-14.7H-49.95v14.7H-65.815V-35.552a31.014,31.014,0,0,1,2.5-12.4,32.372,32.372,0,0,1,6.8-10.124,31.806,31.806,0,0,1,10.1-6.823,30.994,30.994,0,0,1,12.4-2.5,31,31,0,0,1,12.4,2.5,32.16,32.16,0,0,1,10.124,6.823A32.153,32.153,0,0,1-4.682-47.951a31.014,31.014,0,0,1,2.5,12.4Z" transform="translate(65.815 74.646)" fill="#fff"/><path d="M-23.609-12.216a16.6,16.6,0,0,0-3.915-5.418,17.915,17.915,0,0,0-5.793-3.513A19.823,19.823,0,0,0-40.4-22.408H-55.633a3.468,3.468,0,0,1-2.575-1.1,3.659,3.659,0,0,1-1.072-2.655,3.511,3.511,0,0,1,1.072-2.575,3.514,3.514,0,0,1,2.575-1.074h29.664V-44.4H-55.633a17.967,17.967,0,0,0-7.135,1.421,18.249,18.249,0,0,0-5.793,3.89A18.222,18.222,0,0,0-72.449-33.3a17.954,17.954,0,0,0-1.422,7.134,17.949,17.949,0,0,0,1.422,7.134,18.549,18.549,0,0,0,3.888,5.821,18.391,18.391,0,0,0,5.793,3.942,17.676,17.676,0,0,0,7.135,1.448H-40.4a6.257,6.257,0,0,1,2.575.482A2,2,0,0,1-36.751-5.3a3.515,3.515,0,0,1-1.074,2.575A3.511,3.511,0,0,1-40.4-1.648H-75.861c-.251.715-.517,1.427-.818,2.125a34.293,34.293,0,0,1-7.259,10.733c-.6.6-1.231,1.178-1.876,1.732H-40.4a17.825,17.825,0,0,0,7.081-1.421A18.025,18.025,0,0,0-27.524,7.6a19.052,19.052,0,0,0,3.915-5.792A17.476,17.476,0,0,0-22.161-5.3a16.425,16.425,0,0,0-1.448-6.92" transform="translate(287.823 73.724)" fill="#fff"/><path d="M-16.674-24.6h-11.1a10.782,10.782,0,0,1-4.345-.885,11.313,11.313,0,0,1-3.54-2.387,11.026,11.026,0,0,1-2.361-3.513,10.9,10.9,0,0,1-.858-4.319V-52.766h22.207v-14.59H-38.881V-89.43h-14.59v22.073H-60.6v14.59h7.134v17.059a24.945,24.945,0,0,0,2.01,9.976,26.011,26.011,0,0,0,5.526,8.18,26.016,26.016,0,0,0,8.181,5.526,24.934,24.934,0,0,0,9.977,2.011h11.1Z" transform="translate(199.333 96.681)" fill="#fff"/></g></g></svg>