<svg xmlns="http://www.w3.org/2000/svg" xmlns:xlink="http://www.w3.org/1999/xlink" width="269" height="346" viewBox="0 0 269 346"><defs><clipPath id="a"><rect width="269" height="346" transform="translate(0 7183)" fill="#fff"></rect></clipPath><clipPath id="b"><path d="M.851.848,347.992-.223l-1.071,341.254L-.22,342.1Z" fill="#1970fc"></path></clipPath></defs><g transform="translate(0 -7183)" clip-path="url(#a)"><g transform="matrix(0.985, 0.174, -0.174, 0.985, -45.896, 7156.114)" clip-path="url(#b)"><path d="M347.032,169.981C347.328,75.746,269.857-.407,174-.111S.186,76.817-.109,171.052,77.065,341.439,172.925,341.143s173.81-76.928,174.106-171.163" transform="translate(0.425 0.424)" fill="#1970f9"></path><path d="M149.205,294.348C66.626,294.6-.349,228.766-.094,147.589S67.55.159,150.13-.1s149.555,65.581,149.3,146.76S231.784,294.093,149.205,294.348m.912-290.456C69.775,4.139,4.21,68.6,3.962,147.576S68.875,290.608,149.218,290.36s145.908-64.7,146.155-143.684S230.459,3.644,150.117,3.891" transform="translate(24.219 23.813)" fill="#000024"></path><path d="M66.432,131.055c-36.767.113-66.587-29.2-66.474-65.343S30.077.071,66.843-.043s66.587,29.2,66.474,65.343S103.2,130.942,66.432,131.055m.4-127.111C32.3,4.051,4.121,31.754,4.014,65.7s27.9,61.475,62.43,61.368,62.71-27.81,62.817-61.755-27.9-61.475-62.43-61.368" transform="translate(107.259 101.54)" fill="#000024"></path><path d="M.035.01,4.091,0,4.047,13.9l-4.056.013Z" transform="translate(172.162 62.632)" fill="#000024"></path><path d="M0,0,4.034.034l.12,13.982L.12,13.982Z" transform="translate(97.587 94.864) rotate(-45.003)" fill="#000024"></path><path d="M0,0,14.07.12,14.1,4.129.034,4.009Z" transform="translate(237.771 101.445) rotate(-45.01)" fill="#000024"></path><path d="M47.4,33.317l-47.423.146L.083.116,47.506-.03ZM4.047,29.463l39.311-.121.08-25.373L4.127,4.091Z" transform="translate(149.873 240.06)" fill="#000024"></path><path d="M.01.106,43.377-.028l-.013,3.987L0,4.093Z" transform="translate(151.943 249.85)" fill="#000024"></path><path d="M.01.106,43.377-.028l-.013,3.987L0,4.093Z" transform="translate(151.912 259.639)" fill="#000024"></path><path d="M-.033,52,.13.082l33.44-.1L33.406,51.9l-4.056.013.15-47.93L4.173,4.056l-.15,47.93Z" transform="translate(157.017 176.726)" fill="#000024"></path></g></g></svg>