<svg xmlns="http://www.w3.org/2000/svg" width="304" height="200" viewBox="0 0 304 200"><g id="Groupe_1303" data-name="Groupe 1303" transform="translate(-808 -8091)"><rect id="Rectangle_44" data-name="Rectangle 44" width="304" height="200" transform="translate(808 8091)" fill="none"></rect><g id="Groupe_90" data-name="Groupe 90" transform="translate(839.968 8161.653)"><path id="Trac&#xE9;_3" data-name="Trac&#xE9; 3" d="M17.5,295.068l8.243,3.626a1.482,1.482,0,0,0,1.431-.132,1.54,1.54,0,0,0,.5-.561,1.584,1.584,0,0,0,.181-.737V266.555a1.582,1.582,0,0,0-.2-.777,1.534,1.534,0,0,0-.555-.57,1.482,1.482,0,0,0-1.516,0l-8.243,4.881a1.536,1.536,0,0,0-.554.567,1.587,1.587,0,0,0-.2.775v22.207a1.584,1.584,0,0,0,.25.856A1.527,1.527,0,0,0,17.5,295.068ZM1.052,288.707,9.9,292.576a1.514,1.514,0,0,0,1.464-.134,1.561,1.561,0,0,0,.508-.573,1.6,1.6,0,0,0,.178-.751l-.118-16.588a1.593,1.593,0,0,0-.206-.787,1.55,1.55,0,0,0-.565-.575,1.512,1.512,0,0,0-1.544,0L.77,278.4a1.554,1.554,0,0,0-.564.575,1.591,1.591,0,0,0-.206.785l.118,7.51a1.588,1.588,0,0,0,.256.861A1.547,1.547,0,0,0,1.052,288.707Zm24.106,34.76L.846,309.433A1.691,1.691,0,0,1,0,307.966V294.992a1.692,1.692,0,0,1,2.392-1.539L26.7,304.458A1.692,1.692,0,0,1,27.7,306v15.975a1.692,1.692,0,0,1-2.538,1.489Zm6.673-53.538v47.825a1.609,1.609,0,0,0,.806,1.4,1.63,1.63,0,0,0,1.628,0L52.24,308.849a1.61,1.61,0,0,0,.811-1.4V280.24a1.61,1.61,0,0,0-.811-1.4L34.264,268.531a1.63,1.63,0,0,0-1.623,0,1.61,1.61,0,0,0-.811,1.4Z" transform="translate(0 -265)" fill="#f7f4f6" fill-rule="evenodd"></path><path id="Trac&#xE9;_4" data-name="Trac&#xE9; 4" d="M231.888,287.153a5.176,5.176,0,0,0,1.99-.331,5,5,0,0,0,1.689-1.061,4.484,4.484,0,0,0,1.076-1.5,4.321,4.321,0,0,0,.369-1.781,4.426,4.426,0,0,0-.359-1.828,4.6,4.6,0,0,0-1.086-1.541,5.546,5.546,0,0,0-7.349,0,4.6,4.6,0,0,0-1.086,1.541,4.44,4.44,0,0,0-.359,1.828,4.321,4.321,0,0,0,.369,1.781,4.484,4.484,0,0,0,1.076,1.5,5,5,0,0,0,1.685,1.06A5.161,5.161,0,0,0,231.888,287.153Zm-75.758,3.117h9.824l-10.239,12.022,10.7,14.5H156.234l-8.566-11.737v11.737h-8.842V299.229c-.864.265-1.756.53-2.613.769a14.111,14.111,0,0,1-1.307,10.192,13.059,13.059,0,0,1-4.991,5.007,17.68,17.68,0,0,1-15.9,0c-.145-.083-.282-.169-.42-.257l-.048-.031-.07-.044a52.3,52.3,0,0,1-6.651,1.724,30.984,30.984,0,0,1-4.84.49,12.349,12.349,0,0,1-5.531-1.041,7,7,0,0,1-2.973-2.6,8.939,8.939,0,0,1-1.189-3.176,17.834,17.834,0,0,1-.263-2.752v-10.5H87.479V290.27h4.549v-6.5h8.828v6.5h5.586v6.75h-5.586v10.22a3.237,3.237,0,0,0,.857,2.361,4.015,4.015,0,0,0,2.925.862,12.71,12.71,0,0,0,2.219-.246,19.979,19.979,0,0,0,2.019-.4,14.005,14.005,0,0,1,.18-13.143,13.073,13.073,0,0,1,4.991-5.013,17.678,17.678,0,0,1,15.9,0,13.533,13.533,0,0,1,3.374,2.738,15.317,15.317,0,0,0,5.531-1.87V278.864H147.7v21.625Zm-31.771,19.383a5.334,5.334,0,0,0,1.884-1.478,8.267,8.267,0,0,0,0-9.576,5.334,5.334,0,0,0-1.884-1.478,5.575,5.575,0,0,0-4.743,0,5.334,5.334,0,0,0-1.884,1.478,8.177,8.177,0,0,0,0,9.576,5.335,5.335,0,0,0,1.884,1.478,5.575,5.575,0,0,0,4.743,0Zm85.164-19.71a10.384,10.384,0,0,1,4.452,1.4,8.12,8.12,0,0,1,2.855,3.674,12.077,12.077,0,0,1,.878,4.535v17.241h-8.842v-15.65a5.047,5.047,0,0,0-.933-3,3.445,3.445,0,0,0-1.346-1.041,3.588,3.588,0,0,0-1.7-.285,3.5,3.5,0,0,0-3.235,1.459,5.988,5.988,0,0,0-.906,3.2V316.8h-23.61a16.147,16.147,0,0,1-6.367-.881,12.875,12.875,0,0,1-4.473-3.13,12.651,12.651,0,0,1-2.634-4.39,15,15,0,0,1,0-9.947,13,13,0,0,1,2.537-4.389,12.082,12.082,0,0,1,4.369-3.124,15.785,15.785,0,0,1,6.333-1.167,14.3,14.3,0,0,1,6.913,1.612,11.376,11.376,0,0,1,4.653,4.715,15.573,15.573,0,0,1,1.68,7.513v1.99H171.735a5.8,5.8,0,0,0,1.528,3.548,4.889,4.889,0,0,0,1.774,1.18,5.071,5.071,0,0,0,2.131.332h14.747V290.4h8.829v3.72h.3a14.074,14.074,0,0,1,1.424-1.79,7.775,7.775,0,0,1,2.427-1.711A10.481,10.481,0,0,1,209.524,289.943Zm-32.756,6.036a5.182,5.182,0,0,0-3.457,1.193,4.988,4.988,0,0,0-1.17,1.607,4.81,4.81,0,0,0-.434,1.915h9.99a4.612,4.612,0,0,0-.358-1.906,4.786,4.786,0,0,0-1.115-1.615A5.042,5.042,0,0,0,176.768,295.979ZM250.224,309.6a4.024,4.024,0,0,0,2.924.862,12.719,12.719,0,0,0,2.17-.226v6.353a31.063,31.063,0,0,1-4.839.49,12.348,12.348,0,0,1-5.531-1.041,7.04,7.04,0,0,1-2.973-2.6,8.954,8.954,0,0,1-1.189-3.176,17.706,17.706,0,0,1-.255-2.752V297.033h-4.245v19.761h-8.842V290.27h13.087v-6.5h8.842v6.5h5.586v6.75h-5.586v10.22A3.231,3.231,0,0,0,250.224,309.6Z" transform="translate(-14.535 -267.114)" fill="#f7f4f6" fill-rule="evenodd"></path></g></g></svg>