<svg xmlns="http://www.w3.org/2000/svg" width="123.474" height="25" viewBox="0 0 123.474 25"><path d="M523.037,36.7v6.807c0,1.965.789,2.947,2.333,2.947s2.333-.982,2.333-2.947V36.7h2.737v6.877a8.01,8.01,0,0,1-.351,2.474,4.151,4.151,0,0,1-1.175,1.667,5.16,5.16,0,0,1-3.544,1.193,5.264,5.264,0,0,1-3.526-1.193,3.986,3.986,0,0,1-1.193-1.667,6.786,6.786,0,0,1-.351-2.474V36.7Z" transform="translate(-429.019 -30.261)" fill="#f7f4f6"></path><path d="M597.581,42.156,593.335,36.7H596.6l2.632,3.474,2.684-3.474h3.368L600.9,42.156l5.088,6.421h-3.263l-3.491-4.421-3.579,4.421H592.3Z" transform="translate(-488.388 -30.261)" fill="#f7f4f6"></path><path d="M684.2,86.6a1.724,1.724,0,1,1,1.719,1.719,1.587,1.587,0,0,1-1.21-.491A1.6,1.6,0,0,1,684.2,86.6Z" transform="translate(-564.165 -70.005)" fill="#f7f4f6"></path><path d="M3.105,36.7l3.123,5.842L9.3,36.718H12.4L6.193,48.612,0,36.7Z" transform="translate(0 -30.261)" fill="#f7f4f6"></path><path d="M93.2,36.7V48.472H90.5V36.7Z" transform="translate(-74.623 -30.261)" fill="#f7f4f6"></path><path d="M126.318,35.133h2.754v1.088a4.478,4.478,0,0,1,3.246-1.421,4.138,4.138,0,0,1,3.228,1.3,5.333,5.333,0,0,1,.982,3.614v7.263h-2.754V40.361a4.263,4.263,0,0,0-.491-2.421,1.949,1.949,0,0,0-1.737-.684,2.161,2.161,0,0,0-1.947.895,6.081,6.081,0,0,0-.561,3.105v5.719H126.3l.018-11.842Z" transform="translate(-104.142 -28.695)" fill="#f7f4f6"></path><path d="M215.875,46.935c0,.561-.018,1.07-.053,1.491a8.954,8.954,0,0,1-.158,1.14,5.056,5.056,0,0,1-1.158,2.333,5.637,5.637,0,0,1-4.474,1.877,5.976,5.976,0,0,1-3.947-1.3,5.21,5.21,0,0,1-1.842-3.684h2.789a3.1,3.1,0,0,0,.526,1.368,2.951,2.951,0,0,0,2.509,1.123c2.035,0,3.035-1.246,3.035-3.737V45.882a5.293,5.293,0,0,1-7.825-.088A6.56,6.56,0,0,1,203.7,41.3a6.887,6.887,0,0,1,1.474-4.456,5.091,5.091,0,0,1,4.158-1.947,4.845,4.845,0,0,1,3.772,1.684V35.233h2.772v11.7Zm-2.649-5.7a4.088,4.088,0,0,0-.93-2.789,3.07,3.07,0,0,0-2.421-1.07,2.975,2.975,0,0,0-2.491,1.175,4.81,4.81,0,0,0,0,5.386,2.95,2.95,0,0,0,2.491,1.14,3.041,3.041,0,0,0,2.509-1.158A4.1,4.1,0,0,0,213.226,41.233Z" transform="translate(-167.963 -28.777)" fill="#f7f4f6"></path><path d="M297.03,8.877v9.333h-2.754V8.877H293.1V6.3h1.175V0h2.754V6.3h2.14V8.86l-2.14.018Z" transform="translate(-241.679)" fill="#f7f4f6"></path><path d="M355.916,0h2.772l.018,18.211h-2.772V16.947a5.1,5.1,0,0,1-3.684,1.579,5.253,5.253,0,0,1-4.053-1.772,6.655,6.655,0,0,1-1.6-4.544,6.437,6.437,0,0,1,1.6-4.439,5.061,5.061,0,0,1,3.982-1.789,5.181,5.181,0,0,1,3.754,1.7Zm-6.509,12.211a4.151,4.151,0,0,0,.93,2.789,2.952,2.952,0,0,0,2.368,1.088,3.171,3.171,0,0,0,2.474-1.053,4.057,4.057,0,0,0,.947-2.772,4.088,4.088,0,0,0-.947-2.772,3.081,3.081,0,0,0-2.439-1.07,3.03,3.03,0,0,0-2.368,1.088A3.956,3.956,0,0,0,349.407,12.211Z" transform="translate(-285.793)" fill="#f7f4f6"></path><path d="M446.809,40.582h-8.6a3.559,3.559,0,0,0,.965,2.351,2.908,2.908,0,0,0,2.175.86,2.846,2.846,0,0,0,1.719-.491,6.967,6.967,0,0,0,1.509-1.825l2.333,1.3a9.644,9.644,0,0,1-1.14,1.579,5.787,5.787,0,0,1-1.3,1.088,4.865,4.865,0,0,1-1.491.614,6.755,6.755,0,0,1-1.737.193,5.694,5.694,0,0,1-4.316-1.719,6.431,6.431,0,0,1-1.632-4.6,6.62,6.62,0,0,1,1.579-4.6,6.016,6.016,0,0,1,8.4-.053,6.642,6.642,0,0,1,1.526,4.632Zm-2.842-2.263a2.65,2.65,0,0,0-2.789-2.211,2.826,2.826,0,0,0-.947.158,2.772,2.772,0,0,0-.807.439,2.365,2.365,0,0,0-.614.7,2.966,2.966,0,0,0-.386.93h5.544v-.018Z" transform="translate(-358.932 -27.705)" fill="#f7f4f6"></path><path d="M88.4,1.7A1.647,1.647,0,0,1,88.909.509a1.695,1.695,0,0,1,2.421,0,1.657,1.657,0,0,1,.509,1.211A1.657,1.657,0,0,1,91.33,2.93a1.641,1.641,0,0,1-1.211.491,1.587,1.587,0,0,1-1.211-.491A1.6,1.6,0,0,1,88.4,1.7Z" transform="translate(-72.891 0)" fill="#f7f4f6"></path></svg>