<?xml version="1.0" standalone="no"?>
<!DOCTYPE svg PUBLIC "-//W3C//DTD SVG 20010904//EN"
 "http://www.w3.org/TR/2001/REC-SVG-20010904/DTD/svg10.dtd">
<svg version="1.0" xmlns="http://www.w3.org/2000/svg"
 width="1185.000000pt" height="688.000000pt" viewBox="0 0 1185.000000 688.000000"
 preserveAspectRatio="xMidYMid meet">
<metadata>
Created by potrace 1.16, written by Peter Selinger 2001-2019
</metadata>
<g transform="translate(0.000000,688.000000) scale(0.100000,-0.100000)"
fill="#000000" stroke="none">
<path d="M0 3440 l0 -3440 5925 0 5925 0 0 3440 0 3440 -5925 0 -5925 0 0
-3440z m6485 2301 c114 -28 231 -80 331 -146 114 -76 1074 -999 1164 -1119
154 -207 227 -466 201 -716 -20 -192 -83 -360 -188 -509 -26 -36 -167 -190
-313 -341 -147 -151 -362 -375 -480 -497 -117 -122 -240 -244 -274 -271 -369
-298 -902 -308 -1278 -24 -120 91 -1039 983 -1113 1080 -275 365 -282 858 -17
1232 26 36 114 135 197 220 82 86 275 286 429 445 153 160 314 325 358 368
165 161 336 250 562 293 99 19 317 11 421 -15z m127 -4431 c65 -18 108 -100
53 -100 -14 0 -25 5 -25 10 0 6 -9 19 -20 30 -38 38 -140 17 -140 -29 0 -27
18 -38 94 -57 89 -22 126 -53 126 -105 0 -28 -8 -47 -29 -71 -25 -28 -35 -32
-93 -36 -91 -6 -139 20 -157 86 -8 27 -7 31 16 35 20 4 27 -1 34 -23 27 -77
186 -69 177 9 -3 23 -13 29 -88 54 -98 32 -130 57 -130 102 0 78 84 122 182
95z m-1822 -149 c0 -146 -1 -150 -26 -180 -51 -61 -155 -32 -170 47 -6 29 -4
32 20 32 19 0 27 -6 32 -25 8 -33 37 -49 63 -36 28 16 31 31 31 177 l0 134 25
0 25 0 0 -149z m610 129 c0 -18 -8 -20 -102 -22 l-103 -3 0 -50 0 -50 98 -3
c89 -2 97 -4 97 -22 0 -18 -7 -20 -87 -20 -49 0 -94 -4 -101 -9 -9 -5 -12 -25
-10 -57 l3 -49 108 -3 c106 -3 107 -3 107 -27 l0 -25 -135 0 -135 0 0 180 0
180 130 0 c123 0 130 -1 130 -20z m428 -7 c6 -16 29 -80 51 -143 29 -83 42
-109 46 -95 4 11 26 74 48 140 l42 120 38 3 37 3 -2 -178 -3 -178 -25 0 c-29
0 -27 -9 -29 143 l-2 117 -42 -120 c-48 -139 -52 -145 -77 -145 -15 0 -27 25
-62 130 -23 72 -46 130 -50 130 -4 0 -6 -54 -4 -120 1 -66 -1 -125 -5 -131 -3
-6 -15 -9 -25 -7 -18 3 -19 16 -22 181 l-2 177 39 0 c33 0 40 -4 49 -27z
m1270 -150 l-3 -178 -25 0 -25 0 -3 178 -2 177 30 0 30 0 -2 -177z m612 157
c0 -16 -8 -19 -57 -22 l-58 -3 -5 -155 c-5 -151 -6 -155 -27 -158 -22 -3 -23
-2 -25 155 l-3 158 -57 3 c-50 3 -58 6 -58 22 0 19 8 20 145 20 137 0 145 -1
145 -20z"/>
<path d="M5987 4293 c-2 -5 -48 -84 -102 -178 -136 -237 -156 -268 -168 -256
-5 5 -64 103 -131 218 l-121 208 -265 2 -265 3 -125 -218 c-69 -119 -125 -226
-125 -237 0 -11 56 -118 125 -237 l125 -217 265 0 265 0 129 224 c71 123 133
222 137 219 4 -2 22 -30 40 -62 18 -31 75 -130 127 -219 l94 -163 267 0 266 0
126 216 c69 119 129 216 134 216 5 0 53 -76 106 -168 54 -93 110 -188 123
-211 l26 -43 269 0 c245 0 269 2 275 17 4 10 61 111 128 226 l120 208 -130
227 -131 227 -258 2 c-142 2 -263 0 -269 -5 -6 -4 -66 -103 -133 -220 -68
-117 -126 -210 -129 -207 -4 3 -61 101 -128 218 l-122 212 -270 3 c-149 1
-273 -1 -275 -5z m503 -23 c0 -5 -14 -32 -31 -60 l-31 -50 -176 0 -177 0 -74
-127 c-113 -195 -102 -183 -172 -183 -33 0 -59 4 -59 10 0 9 181 327 226 398
14 22 17 22 254 22 151 0 240 -4 240 -10z m708 -9 c-1 -5 -55 -97 -118 -205
l-115 -196 -69 0 c-61 0 -67 2 -62 18 7 18 162 288 203 355 l23 37 71 0 c39 0
69 -4 67 -9z m172 0 c0 -10 -216 -380 -229 -394 -4 -4 -38 -7 -74 -5 l-67 3
106 180 c58 99 112 190 120 203 13 19 23 22 79 22 36 0 65 -4 65 -9z m160 5
c0 -3 -52 -95 -116 -205 l-116 -201 -59 0 c-32 0 -59 3 -59 6 0 3 52 95 116
205 l116 199 59 0 c32 0 59 -2 59 -4z m-2110 -13 c0 -5 -87 -161 -96 -172 -3
-4 -282 155 -298 170 -6 5 73 9 192 9 111 0 202 -3 202 -7z m1230 -212 c67
-117 109 -200 105 -209 -18 -47 -231 -402 -239 -399 -6 2 -23 25 -39 50 l-29
47 91 156 90 155 -84 148 c-47 81 -85 153 -85 160 0 7 12 35 27 62 22 38 30
46 40 36 6 -6 62 -99 123 -206z m-1086 19 c52 -90 93 -166 91 -168 -4 -4 -260
139 -288 161 -13 11 -9 22 35 100 28 48 54 84 59 80 4 -4 50 -82 103 -173z
m2123 -22 l113 -196 -35 -61 c-20 -34 -37 -61 -39 -61 -2 0 -56 92 -120 204
l-116 203 32 57 c18 31 37 55 42 53 5 -2 61 -91 123 -199z m-2364 2 c169 -96
307 -178 307 -182 0 -5 -94 -8 -209 -8 l-209 0 -104 177 c-113 194 -115 197
-101 192 6 -2 148 -83 316 -179z m-393 -10 l0 -180 -106 0 c-58 0 -104 4 -102
8 6 17 202 352 205 352 2 0 3 -81 3 -180z m149 -19 c56 -96 101 -175 101 -176
0 -6 -202 -351 -211 -359 -5 -6 -9 128 -9 359 0 221 4 365 9 360 5 -6 55 -88
110 -184z m1427 -4 c41 -71 74 -133 74 -138 0 -5 -29 -9 -64 -9 l-64 0 -44 78
-43 77 -96 3 -95 3 -31 54 c-17 29 -28 56 -25 60 3 3 75 4 160 3 l154 -3 74
-128z m-386 47 l29 -51 -45 -76 c-24 -42 -44 -80 -44 -85 0 -6 18 -41 40 -78
22 -38 40 -75 40 -82 0 -17 -52 -112 -61 -112 -4 0 -41 61 -84 135 l-77 135
77 135 c43 75 82 134 87 133 5 -2 22 -26 38 -54z m1477 -171 l113 -197 -26
-46 c-47 -80 -39 -87 -165 133 -127 220 -122 200 -72 280 14 22 27 36 31 33 3
-4 57 -95 119 -203z m-1285 109 c14 -6 11 -16 -23 -74 l-40 -68 -74 0 c-49 0
-75 4 -75 11 0 6 16 38 35 70 39 63 29 58 145 66 8 1 22 -1 32 -5z m87 -87
c17 -30 31 -59 31 -64 0 -18 -72 -131 -80 -126 -21 13 -71 119 -66 139 9 34
66 117 75 111 5 -3 23 -30 40 -60z m1107 -167 l117 -202 -26 -45 c-14 -25 -29
-47 -34 -48 -8 -3 -225 366 -231 393 -3 13 43 104 53 104 2 0 56 -91 121 -202z
m-1521 -63 l88 -155 179 0 178 0 29 -52 c17 -29 27 -56 22 -61 -4 -4 -113 -6
-242 -5 l-234 3 -117 205 c-65 113 -118 208 -118 212 0 5 28 8 63 8 l63 0 89
-155z m288 118 c13 -21 32 -53 41 -70 l17 -33 -80 0 -80 0 -36 61 c-19 33 -35
64 -35 70 0 5 34 9 75 9 l75 0 23 -37z m307 26 c0 -14 -126 -236 -148 -261
-13 -16 -34 -18 -156 -18 -78 0 -146 4 -153 8 -9 6 -4 22 20 62 l33 55 95 3
94 3 29 52 c59 106 61 107 127 107 38 0 59 -4 59 -11z m743 -41 c16 -26 27
-50 24 -55 -3 -4 -109 -7 -236 -5 l-231 3 -25 43 c-14 23 -25 48 -25 55 0 8
59 11 232 9 l232 -3 29 -47z m-2393 -140 c0 -100 -4 -178 -8 -173 -10 12 -202
345 -202 351 0 2 47 4 105 4 l105 0 0 -182z m700 175 c0 -5 -53 -38 -118 -74
-64 -37 -204 -117 -311 -178 -106 -62 -195 -110 -198 -108 -4 5 12 32 139 250
l69 117 209 0 c116 0 210 -3 210 -7z m27 -40 c-35 -63 -200 -343 -202 -343 -6
0 -95 163 -95 174 0 7 64 49 143 94 136 78 163 91 154 75z m1751 -139 c18 -31
30 -60 26 -65 -6 -11 -444 -12 -459 -1 -14 9 -65 97 -65 111 0 8 74 11 233 11
l233 0 32 -56z m-2035 -127 c26 -46 47 -86 47 -90 0 -4 -91 -7 -202 -7 -123 0
-198 4 -192 9 11 11 287 171 294 171 3 0 26 -37 53 -83z m2123 -27 c18 -30 30
-58 27 -62 -2 -5 -107 -8 -233 -8 l-228 0 -35 57 c-20 32 -33 61 -31 65 3 5
109 7 237 6 l231 -3 32 -55z"/>
</g>
</svg>
