<svg xmlns="http://www.w3.org/2000/svg" xmlns:xlink="http://www.w3.org/1999/xlink" width="304" height="200" viewBox="0 0 304 200"><defs><clipPath id="a"><rect width="205.151" height="88.556" fill="#f7f4f6"></rect></clipPath></defs><g transform="translate(-200 -5199)"><rect width="304" height="200" transform="translate(200 5199)" fill="none"></rect><g transform="translate(249.425 5254.725)"><g transform="translate(0 -0.003)" clip-path="url(#a)"><path d="M1207.385,1486.415c-5.727,1.17-13.481,5.378-13.4,13.05.05,4.428,5.4,6.883,11.531,6.713a48.949,48.949,0,0,0,7.131-.794l2.271-5.915c-3.01.477-5.906,1.2-8.172.294-4.093-1.638-1.574-5.887,1.317-7.213a11.5,11.5,0,0,1,5.093-1.092c.863.018,2.973.055,3.795,1.923l2.859-6.855a29.758,29.758,0,0,0-12.426-.11" transform="translate(-1139.199 -1417.63)" fill="#f7f4f6"></path><path d="M3685.209,1495.23l-4.928,13.389c.069-1.349.335-6.672.5-9.741a3.751,3.751,0,0,0-.808-2.868,2.611,2.611,0,0,0-1.716-.78h-10.98l-7.177,19.511h7.97l5.093-13.816-.6,13.816h13.367l7.186-19.511Z" transform="translate(-3492.153 -1426.62)" fill="#f7f4f6"></path><path d="M2873.676,1495.23h-9.191l-7.186,19.511h18.46l2.386-6.479h-9.26Z" transform="translate(-2726.19 -1426.62)" fill="#f7f4f6"></path><path d="M2330.511,1500.342h10.779l1.9-5.112h-19.7l-7.181,19.511h19.928l1.932-5.263h-11l.8-2.166h10.27l1.757-4.8h-10.265Z" transform="translate(-2210.014 -1426.62)" fill="#f7f4f6"></path><path d="M1725.251,1495.23l-2.606,7.03h-4.754l2.583-7.03h-9.016l-7.158,19.511h8.98l2.45-6.608h4.768l-2.45,6.608h9l7.19-19.511Z" transform="translate(-1626.097 -1426.62)" fill="#f7f4f6"></path><path d="M845.49,1495.23l-7.19,19.511h9.457l7.177-19.511Z" transform="translate(-799.834 -1426.62)" fill="#f7f4f6"></path><path d="M26.976,1495.23l-6.9,10.48s.441-5.483.551-6.8c.083-1.005-.041-3.676-2.492-3.676H7.186L0,1514.741H8.567l5.2-14.11-1.1,14.11h7.612l9.333-13.867-5.1,13.867h8.622l7.181-19.511Z" transform="translate(0 -1426.62)" fill="#f7f4f6"></path><path d="M3344.89,1495.23l-7.19,19.511h9.457l7.181-19.511Z" transform="translate(-3184.547 -1426.62)" fill="#f7f4f6"></path><path d="M1960.638,736.4a11.055,11.055,0,0,0,7.608,3.694h.22a14.88,14.88,0,0,0,5.135-1.019,9.439,9.439,0,0,0,2.2-1.156q-.261.014-.523.014a11.611,11.611,0,0,1-4.767-1.019,11.757,11.757,0,0,1-4.286-3.29,15.852,15.852,0,0,1-2.331-3.891,12.871,12.871,0,0,1,1.152-11.705c.046-.069.092-.133.138-.2-.243.073-.5.156-.753.248a8.878,8.878,0,0,0-1.8.867,10.878,10.878,0,0,0-4.979,8.03,12.523,12.523,0,0,0,2.987,9.425" transform="translate(-1867.769 -684.892)" fill="#f7f4f6"></path><path d="M2136.185,699.881a9.1,9.1,0,0,0,3.744.8,10.7,10.7,0,0,0,3.51-.629,13.056,13.056,0,0,0,3.148-1.523,13.039,13.039,0,0,1-3.992-1.331,13.813,13.813,0,0,1-5.25-4.919l-.018-.032-.018-.032c-2.689-4.529-2.308-8.338-1.468-10.788a9.659,9.659,0,0,0-4.061,3.276,10.355,10.355,0,0,0-.927,9.292,10.787,10.787,0,0,0,5.332,5.883" transform="translate(-2032.414 -650.162)" fill="#f7f4f6"></path><path d="M2306.294,580.716c.092,0,.184,0,.275,0a10.121,10.121,0,0,0,4.763-1.569,14.141,14.141,0,0,0,3.5-2.629,10.159,10.159,0,0,1-1.556.119,11.824,11.824,0,0,1-6.043-1.753,12.86,12.86,0,0,1-6.052-12.536,11.33,11.33,0,0,1,.5-1.913,25.055,25.055,0,0,0-2.533,1.858c-1.51,1.17-6.14,6.062-1.909,13.2a10.739,10.739,0,0,0,9.049,5.231" transform="translate(-2190.176 -534.714)" fill="#f7f4f6"></path><path d="M2476.271,201.84a9.265,9.265,0,0,0,4.759,1.4,8.06,8.06,0,0,0,3.574-.849,18.473,18.473,0,0,0,3.028-1.762c2.717-1.817,3.276-5.479,3.276-5.479v0l-.954.624s-2.515,1.6-3.864,1.4c-1.243-.179-2.762-2.088-2.12-2.074.266,0,1.822.812,3.01.087.454-.28,2.175-1.326,3.322-2.024-.321-1.372.06-2.129,1.106-1.069.725.734,3.161.688,3.689.67.041,0,.083,0,.124-.009a6.99,6.99,0,0,0,1.2-.193c3.625-.762,8.016-3.129,9.136-3.6,1.478-.619,6.654-3.611,8.149-5.961a.388.388,0,0,0-.014-.418,1.6,1.6,0,0,0-1.087-.592A2.952,2.952,0,0,0,2510.47,183a14.507,14.507,0,0,1-5.6,3.318.528.528,0,0,1-.142.018.537.537,0,0,1-.142-1.055,13.674,13.674,0,0,0,5.139-3.061,3.916,3.916,0,0,1,2.964-1.3,2.658,2.658,0,0,1,1.73.863c.546-.34,1.886-1.165,1.909-1.179s.358-.271,0-.812a1.555,1.555,0,0,0-.936-.7c-.775-.184-1.955.234-3.51,1.239a27.074,27.074,0,0,1-7.259,2.882.566.566,0,0,1-.124.014.54.54,0,0,1-.124-1.065,26.5,26.5,0,0,0,6.924-2.739c1.858-1.2,3.24-1.643,4.336-1.386a2.7,2.7,0,0,1,1.712,1.344c.009.014.014.032.023.046.307-.165.633-.353.881-.509.216-.138.312-.294.216-.532a2.042,2.042,0,0,0-1.858-1.409,2.249,2.249,0,0,0-.624.1l-.115.037a12.8,12.8,0,0,1-1.322.395l-10.237,3.047a.49.49,0,0,1-.257.014.546.546,0,0,1-.413-.372.536.536,0,0,1,.358-.67l11.5-3.423a.689.689,0,0,0-.018-.087,1.305,1.305,0,0,0-1.354-1.06,1.508,1.508,0,0,0-.312.028c-.229.05-12.77,3.065-14.477,3.441a23.052,23.052,0,0,0-2.886.913c-.307.138-.326-.184-.064-.385a16.186,16.186,0,0,1,2.872-1.468,3.771,3.771,0,0,0,.808-.486,13.939,13.939,0,0,0,2.808-2.657c1.129-1.487.225-2.611-.422-2.611a.522.522,0,0,0-.206.046c-.344.17-7.851,5.038-7.851,5.038-1.34,1.165-2.345,2.138-3.083,2.914a15.27,15.27,0,0,0-1.523,1.744c-.156.206-.252.344-.3.413a11.5,11.5,0,0,0-1.028,1.725,6.111,6.111,0,0,0-.234.67s-2.712,1.588-3.281,1.886c-1.161.606-1.39,1.445-1.734,1.45-.473.009.211-1.716.711-2.464a3.619,3.619,0,0,1,.895-.835,8.738,8.738,0,0,0-3.52-.757,7.872,7.872,0,0,0-4.042,1.069,25.758,25.758,0,0,0-2.758,1.9,9.079,9.079,0,0,0-3.079,5.355,10.356,10.356,0,0,0,4.845,9.957" transform="translate(-2357.936 -163.85)" fill="#f7f4f6"></path><path d="M1294.086,520.8a5.426,5.426,0,0,0,1.9-.987,5.855,5.855,0,0,0,1.331-1.684,22.237,22.237,0,0,1-7.521,2.281,6.3,6.3,0,0,0,2.2.652,5.624,5.624,0,0,0,2.083-.262" transform="translate(-1230.616 -494.355)" fill="#f7f4f6"></path><path d="M1134.275,259.543a1.724,1.724,0,0,0,.9.239,3.4,3.4,0,0,0,.945-.156l.018,0a7.866,7.866,0,0,0,.876-.285,2.362,2.362,0,0,0,1.037-1.753,5.821,5.821,0,0,0,.11-1.028,2.242,2.242,0,0,1-1.445,2.134c-1.161.275-2.455-.968-2.886-2.771a5.031,5.031,0,0,1-.133-1.409.82.82,0,0,0,.844.321.95.95,0,0,0,.514-1.225,1.065,1.065,0,0,0-.822-.8,1.585,1.585,0,0,1,.927-.652,2.361,2.361,0,0,1,2.368,1.45c-.023-.055-.046-.11-.069-.161-.583-1.161-1.592-2.363-3.515-1.849-2.528.679-1.955,3.987-1.679,5.011a6.791,6.791,0,0,0,.486,1.175,4.452,4.452,0,0,0,1.523,1.767" transform="translate(-1080.065 -239.929)" fill="#f7f4f6"></path><path d="M1351.863,212.748a2.917,2.917,0,0,0,1.381,1.175h-.009l.055.018.051.014h0a1.7,1.7,0,0,0,.427.05,3.7,3.7,0,0,0,.757-.1,3.238,3.238,0,0,0,.854-.266,1.686,1.686,0,0,0,.624-.922,3.981,3.981,0,0,0,.229-1.156,5.735,5.735,0,0,0-.275-2.047c0,.028.014.055.018.087.39,1.757-.142,3.373-1.179,3.607s-2.2-.991-2.588-2.749a5.253,5.253,0,0,1-.124-1.363.814.814,0,0,0,.863.39.952.952,0,0,0,.514-1.221,1,1,0,0,0-.89-.817,1.37,1.37,0,0,1,.817-.6,1.971,1.971,0,0,1,1.932,1.129,5.7,5.7,0,0,0-.45-.7,2.92,2.92,0,0,0-1.643-1.211,1.809,1.809,0,0,0-.353-.037,2.16,2.16,0,0,0-1.606.748,3.025,3.025,0,0,0-.564,1.936,8.341,8.341,0,0,0,.28,2.106,6.454,6.454,0,0,0,.886,1.927m1.478,1.2-.046-.014-.046-.014.092.028" transform="translate(-1288.719 -196.576)" fill="#f7f4f6"></path><path d="M296.6,57.227a13.281,13.281,0,0,1-1.916-.734,14.474,14.474,0,0,1-4.446-3.285,14.072,14.072,0,0,1-2.964-5.213,15.484,15.484,0,0,1-.675-6.149A13.1,13.1,0,0,1,288.646,36a13.627,13.627,0,0,1,2.9-3.226c-.119.014-.239.028-.358.046a21.21,21.21,0,0,0-2.556.519A11.36,11.36,0,0,0,282,38.786a13.467,13.467,0,0,0-1.294,9.145,14.308,14.308,0,0,0,3.051,6.222,12.229,12.229,0,0,0,4.185,3.074H283.31c-.531-.469-.973-.921-1.354-1.312a16.793,16.793,0,0,1-3.717-7.479,16.032,16.032,0,0,1,1.523-10.806,12.917,12.917,0,0,1,2.079-2.932,54.053,54.053,0,0,0-9.007-.775,2.416,2.416,0,0,1-.6.771c-1.418,1.23-2.62,1.56-1.8.61s.771-1.969.546-2.193c-.2-.2-.518-.05-.73,0-2.354.844-2.785.482-2.313.193a18.6,18.6,0,0,0,4.02-3.189c1.757-2,3.235-4.942,2.9-7.622a11,11,0,0,0-3.965-7.053c-.17-.133-.358-.275-.45-.344l-.151-.11a.1.1,0,0,1-.023-.014,0,0,0,0,0,0,0,4.565,4.565,0,0,0-.973-.528c-.486-.165-.321-.5.174-.606-.055-.252-.106-.523-.17-.771s-.124-.473-.193-.707c-2.106-7.007-7.094-9.985-11.224-10.416a1.081,1.081,0,0,1-.128-.018c-.964-.1-1.62-.073-1.776-.1-.67-.087-.39-.376.018-.537a.2.2,0,0,0,.128-.289c-.491-.72-2.689-1.377-4.988-.739a5.581,5.581,0,0,0-2.863,1.881,3.258,3.258,0,0,0-.284.491c-.023.046-.037.1-.055.142-.092.294.248.2.248.2,1.087-.234,1.569.069.707.523a18.08,18.08,0,0,0-1.826,1.2,13.966,13.966,0,0,0-4.029,4.96,16.143,16.143,0,0,0-1.487,7.612c.028.376.064,1.152.1,1.39.046.271.234.564.9.477.927-.119,1.505-.271.661.4a18.133,18.133,0,0,0-2.019,2,9.622,9.622,0,0,0-1.257,8.223,8.371,8.371,0,0,0,5.928,6.277,33.615,33.615,0,0,0,9.471,1.06c.353-.018.445.046.4.179-.055.161-.307.229-.629.275-.537.073-1.684.294-3.657.482a.928.928,0,0,0-.835.546.209.209,0,0,0-.009.037c-.229.867,1.519,1.6,1.721,1.661.684.216.372.555.1.6-1.248.225-3.483-.28-4.731-.362a4.33,4.33,0,0,0-1.7.216,26.177,26.177,0,0,0-7.222,4.662A20.04,20.04,0,0,0,232.5,57.227h-2.537a22.69,22.69,0,0,1,1.473-5.557,22.293,22.293,0,0,1,2.712-4.841,15.681,15.681,0,0,0-8.136,4.534,22.165,22.165,0,0,0-4.053,5.864h-11.36L208.8,62.1H402.571l1.8-4.878Zm-36.193-46a2.857,2.857,0,0,1,1.891-2.817,3.047,3.047,0,0,1,3.221,1.156,8.9,8.9,0,0,1,1.152,2.051,8.8,8.8,0,0,1,.33.835,6.686,6.686,0,0,1,.395,2.56,4.634,4.634,0,0,1-.271,1.349,2.254,2.254,0,0,1-.931,1.276,3.714,3.714,0,0,1-1.014.326l-.014,0a4.3,4.3,0,0,1-.895.115,2.278,2.278,0,0,1-.56-.064.827.827,0,0,1-.087-.023.017.017,0,0,1-.014,0,.313.313,0,0,1-.037-.014l-.009,0-.014,0a3.5,3.5,0,0,1-1.716-1.418,6.2,6.2,0,0,1-.766-1.487l0-.009s-.041-.106-.1-.294c-.037-.115-.073-.225-.106-.335l0-.014,0-.014a.469.469,0,0,1-.041-.128,9.942,9.942,0,0,1-.4-3.042m-9.943,4.442a8.256,8.256,0,0,1-.018-2.625,3.285,3.285,0,0,1,1.23-2.134,3.54,3.54,0,0,1,2.042-.67,2.918,2.918,0,0,1,.569.055c1.826.376,2.68,1.868,3.4,3.969.794,2.3.243,5.176-1.23,5.809a8.8,8.8,0,0,1-.977.317,4.184,4.184,0,0,1-1.147.184,2.451,2.451,0,0,1-1.271-.34,5.123,5.123,0,0,1-1.8-2.047,7.59,7.59,0,0,1-.8-2.519m2.23,10.012a.933.933,0,0,0-.05.574.22.22,0,0,1-.11.275h0a.017.017,0,0,1-.014,0,.276.276,0,0,1-.239,0,.246.246,0,0,1-.129-.142,1.9,1.9,0,0,1,.5-1.817,2.393,2.393,0,0,1,.661-.445c.083-.037.335-.133.459.05a.334.334,0,0,1-.138.459,2.281,2.281,0,0,0-.936,1.046m1.074.523a.574.574,0,0,1-.546-.385.55.55,0,0,1,.486-.72c.119,0,.234.023.353.032.234.014.463.032.7.037a24.044,24.044,0,0,0,7.759-1.1,15.475,15.475,0,0,0,4.341-2.042,8.821,8.821,0,0,0,1.505-1.3c.064-.073.128-.17.2-.252a1.254,1.254,0,0,0-.133-.069c-.128-.046-.147-.294.106-.358a.828.828,0,0,1,.711.2,1.22,1.22,0,0,1,.294.629c.041.28.014.633-.151.67-.147.028-.206-.161-.289-.381-.454.587-1.39,1.505-1.519,1.666a6.494,6.494,0,0,0-.551.886,14.438,14.438,0,0,1-.89,1.5,5.816,5.816,0,0,1-1.716,1.6,6.644,6.644,0,0,1-4.391.9,8.239,8.239,0,0,1-2.239-.766,4.99,4.99,0,0,0-1.84-.679,14.52,14.52,0,0,1-2.189-.055" transform="translate(-199.219 0.003)" fill="#f7f4f6"></path></g></g></g></svg>