<svg xmlns="http://www.w3.org/2000/svg" width="86.221" height="82.959" viewBox="0 0 86.221 82.959"><g transform="translate(-129.056 -123.665)"><path d="M144.718,419.579a4.036,4.036,0,0,0-1.414-1.041,4.682,4.682,0,0,0-1.948-.382,6.259,6.259,0,0,0-1.163.108,4.129,4.129,0,0,0-1.068.355,3.446,3.446,0,0,0-.9.642,3.1,3.1,0,0,0-.651.961,3.8,3.8,0,0,0-1.436-1.531,4.548,4.548,0,0,0-2.316-.525,4.157,4.157,0,0,0-1.042.117,3.176,3.176,0,0,0-.8.323,3.415,3.415,0,0,0-.642.48,5.913,5.913,0,0,0-.539.588v-.934a.388.388,0,0,0-.112-.278.4.4,0,0,0-.3-.117h-.934a.4.4,0,0,0-.278.108.372.372,0,0,0-.117.287v10.612q0,.4.422.395h.925a.349.349,0,0,0,.4-.395v-6.635a2.713,2.713,0,0,1,.26-1.212,2.762,2.762,0,0,1,.678-.889,2.917,2.917,0,0,1,.938-.543,3.083,3.083,0,0,1,1.032-.184,2.951,2.951,0,0,1,1.364.287,2.524,2.524,0,0,1,.893.745,2.993,2.993,0,0,1,.485,1.019,4.3,4.3,0,0,1,.148,1.1v6.123a.808.808,0,0,0,.094.449q.094.135.426.135h.665a.548.548,0,0,0,.4-.153.611.611,0,0,0,.157-.458v-6.1a4.146,4.146,0,0,1,.2-1.324,2.769,2.769,0,0,1,.57-1,2.44,2.44,0,0,1,.911-.624,3.27,3.27,0,0,1,1.221-.215,2.951,2.951,0,0,1,1.365.287,2.522,2.522,0,0,1,.893.745,3,3,0,0,1,.485,1.019,4.3,4.3,0,0,1,.148,1.1v6.123a.806.806,0,0,0,.094.449q.094.135.426.135h.664a.548.548,0,0,0,.4-.153.609.609,0,0,0,.157-.458v-6.1a6.069,6.069,0,0,0-.292-1.9A4.473,4.473,0,0,0,144.718,419.579Z" transform="translate(0 -226.58)" fill="#fff"></path><path d="M219.1,418.935h-1a.473.473,0,0,0-.3.09.576.576,0,0,0-.179.242q-.171.449-.435,1.14t-.575,1.495q-.31.8-.642,1.657t-.633,1.629q-.3.777-.552,1.41t-.395,1q-.153-.368-.409-1t-.565-1.405q-.31-.772-.646-1.625t-.651-1.656q-.314-.8-.583-1.495t-.44-1.14a.575.575,0,0,0-.18-.242.472.472,0,0,0-.3-.09h-.943q-.413,0-.413.314a.742.742,0,0,0,.018.18c.006.024.012.045.018.063l4.166,10.136-1.5,3.618a.5.5,0,0,1-.018.085.5.5,0,0,0-.018.13q0,.332.431.332h.889a.47.47,0,0,0,.476-.332v.018l3.591-8.8,2.11-5.2a.466.466,0,0,1,.027-.1.712.712,0,0,0,.027-.081.277.277,0,0,0,.009-.063Q219.5,418.935,219.1,418.935Z" transform="translate(-61.716 -227.179)" fill="#fff"></path><path d="M279.584,407.2h-1.409v-1.033a.747.747,0,0,1,.081-.346.915.915,0,0,1,.216-.274,1.055,1.055,0,0,1,.305-.184.974.974,0,0,1,.359-.067h.179a.562.562,0,0,0,.462-.22.859.859,0,0,0,.175-.552v-1.715a.73.73,0,0,0-.166-.507.6.6,0,0,0-.471-.184h-.179a4.29,4.29,0,0,0-1.634.318,4.587,4.587,0,0,0-1.383.871,4.281,4.281,0,0,0-.961,1.288,3.536,3.536,0,0,0-.359,1.571V407.2h-.925a.75.75,0,0,0-.507.166.657.657,0,0,0-.193.525v1.643a.739.739,0,0,0,.193.565.714.714,0,0,0,.507.18h.925v6.437a.676.676,0,0,0,.709.691h1.939a.8.8,0,0,0,.5-.175.61.61,0,0,0,.229-.517v-6.437h1.409a.609.609,0,0,0,.471-.18.813.813,0,0,0,.166-.565V407.89a.718.718,0,0,0-.166-.525A.638.638,0,0,0,279.584,407.2Z" transform="translate(-110.883 -214.239)" fill="#fff"></path><path d="M321.021,419.9a5.856,5.856,0,0,0-4.161-1.7,5.986,5.986,0,0,0-3,.79,5.677,5.677,0,0,0-1.19.911,5.817,5.817,0,0,0-1.508,2.6,5.986,5.986,0,0,0,.592,4.588,5.808,5.808,0,0,0,3.519,2.693,6.006,6.006,0,0,0,1.585.207,5.871,5.871,0,0,0,2.972-.794,5.824,5.824,0,0,0,2.105-2.105,5.99,5.99,0,0,0,.593-1.414,5.894,5.894,0,0,0,.211-1.585,5.8,5.8,0,0,0-.462-2.321A5.93,5.93,0,0,0,321.021,419.9Zm-1.831,5.3a2.628,2.628,0,0,1-.5.893,2.373,2.373,0,0,1-.8.6,2.461,2.461,0,0,1-1.055.22,2.566,2.566,0,0,1-1.082-.22,2.443,2.443,0,0,1-.817-.6,2.672,2.672,0,0,1-.521-.893,3.395,3.395,0,0,1,0-2.2,2.879,2.879,0,0,1,.521-.916,2.438,2.438,0,0,1,.817-.624,2.483,2.483,0,0,1,1.082-.229,2.35,2.35,0,0,1,1.854.853,2.831,2.831,0,0,1,.5.916,3.556,3.556,0,0,1,0,2.2Z" transform="translate(-139.95 -226.61)" fill="#fff"></path><path d="M381.687,419.335q-.4-.287-.732-.5a4.208,4.208,0,0,0-.678-.355,3.751,3.751,0,0,0-.723-.211,4.728,4.728,0,0,0-.866-.072,2.314,2.314,0,0,0-.83.139,2.857,2.857,0,0,0-.669.364,4,4,0,0,0-.57.512q-.265.287-.534.583a4.136,4.136,0,0,1-.17-.484,3.259,3.259,0,0,0-.166-.458,1.148,1.148,0,0,0-.229-.341.484.484,0,0,0-.359-.135H373.8a.859.859,0,0,0-.256.04.723.723,0,0,0-.233.121.6.6,0,0,0-.166.207.655.655,0,0,0-.063.3v10.046a.615.615,0,0,0,.7.691h2.02a.736.736,0,0,0,.552-.175.725.725,0,0,0,.166-.517v-6.5q.189-.305.377-.557a2.537,2.537,0,0,1,.4-.431,1.637,1.637,0,0,1,.48-.278,1.747,1.747,0,0,1,.615-.1,2.155,2.155,0,0,1,.911.184,2.843,2.843,0,0,1,.786.561,1.015,1.015,0,0,0,.4.1.714.714,0,0,0,.6-.35l.817-1.392a.938.938,0,0,0,.152-.458A.635.635,0,0,0,381.687,419.335Z" transform="translate(-187.755 -226.61)" fill="#fff"></path><path d="M434.843,397.951a.223.223,0,0,0-.1.018.773.773,0,0,0-.1.063l-2.28,2.307a.323.323,0,0,0-.058.081.261.261,0,0,0-.022.117.981.981,0,0,0,.022.1.213.213,0,0,0,.058.094l.808.781a.376.376,0,0,0,.184.1.215.215,0,0,0,.211-.072l1.275-1.284,1.248,1.275a.269.269,0,0,0,.2.08.33.33,0,0,0,.243-.1l.79-.808a.263.263,0,0,0,.081-.171.245.245,0,0,0-.072-.206l-2.307-2.3A.329.329,0,0,0,434.843,397.951Z" transform="translate(-233.302 -211.034)" fill="#fff"></path><path d="M428.03,420.911a5.829,5.829,0,0,0-.88-1.1,5.718,5.718,0,0,0-1.127-.862,5.629,5.629,0,0,0-1.315-.557,5.308,5.308,0,0,0-1.446-.2,5.5,5.5,0,0,0-1.553.215,5.594,5.594,0,0,0-1.365.6,5.451,5.451,0,0,0-1.136.929,5.868,5.868,0,0,0-.862,1.189,6.072,6.072,0,0,0-.741,2.918,5.644,5.644,0,0,0,.485,2.343,5.969,5.969,0,0,0,1.311,1.872,6.107,6.107,0,0,0,4.246,1.692,5.418,5.418,0,0,0,2.092-.409,5.975,5.975,0,0,0,1.778-1.136,1.134,1.134,0,0,0,.233-.229.5.5,0,0,0,.1-.31.7.7,0,0,0-.027-.193.6.6,0,0,0-.126-.211l-.952-1.077a1.861,1.861,0,0,0-.274-.234.429.429,0,0,0-.238-.081.441.441,0,0,0-.22.058,1.9,1.9,0,0,0-.247.175,1.944,1.944,0,0,1-.427.31,3.714,3.714,0,0,1-.583.26,4.752,4.752,0,0,1-.66.18,3.441,3.441,0,0,1-.664.067,3.211,3.211,0,0,1-.763-.1,2.516,2.516,0,0,1-.763-.328,2.275,2.275,0,0,1-.633-.615,2.229,2.229,0,0,1-.364-.96h6.464a4.08,4.08,0,0,0,.857-.067.679.679,0,0,0,.418-.242.863.863,0,0,0,.139-.471q.013-.3.013-.763a4.864,4.864,0,0,0-.2-1.4A5.307,5.307,0,0,0,428.03,420.911Zm-7.012,1.665a3.259,3.259,0,0,1,.372-.6,3.2,3.2,0,0,1,.516-.529,2.568,2.568,0,0,1,.615-.373,1.72,1.72,0,0,1,.678-.139,2.6,2.6,0,0,1,.849.126,2.18,2.18,0,0,1,.646.35,2.774,2.774,0,0,1,.5.521,5.25,5.25,0,0,1,.408.647Z" transform="translate(-222.009 -226.61)" fill="#fff"></path><path d="M479.55,408.532a.651.651,0,0,0-.467-.17h-1.23l.009-2.469a1,1,0,0,0-.112-.507.47.47,0,0,0-.444-.193h-.076a.435.435,0,0,0-.085.009l-2.038.709a2.077,2.077,0,0,0-.525.265.49.49,0,0,0-.184.417l-.009,1.769h-.925a.607.607,0,0,0-.691.682v1.733q0,.727.691.727h.925l.009,7.577a.611.611,0,0,0,.691.691h2.029a.8.8,0,0,0,.548-.175.655.655,0,0,0,.2-.517l-.009-7.577h1.23a.64.64,0,0,0,.467-.175.742.742,0,0,0,.18-.552v-1.733A.674.674,0,0,0,479.55,408.532Z" transform="translate(-264.453 -216.605)" fill="#fff"></path><path d="M226.668,180.376c.863-.523,1.745-1.018,2.65-1.474a5.182,5.182,0,0,1,2.065-2.469,40.149,40.149,0,0,0-5.4,2.734A8.681,8.681,0,0,1,226.668,180.376Z" transform="translate(-74.579 -40.6)" fill="#fff"></path><path d="M142.476,258.167a.692.692,0,0,0,.67-.083c.55-.4,5.8-3.942,20.58-3.942,8,0,13.5,2.121,18.811,4.171a52.8,52.8,0,0,0,14.039,3.882h.009a39.887,39.887,0,0,0,4.266.226c13.379,0,19.138-4.281,20.584-5.592a.69.69,0,0,0,.221-.419,40.762,40.762,0,0,0,.37-5.461q0-.535-.015-1.067a4.624,4.624,0,0,1-.224.409,4.523,4.523,0,0,1-1.154,1.249,39.422,39.422,0,0,1-.314,4.429c-2.29,1.983-5.6,3.191-8.866,3.927v-5c2.574-.088,4.419-.675,5.485-1.751a2.759,2.759,0,0,0,.883-1.853.719.719,0,0,0-.009-.081c-.217.037-.441.068-.683.087-.243-.019-.468-.05-.685-.087a.656.656,0,0,0-.007.075c-.036.732-1.144,2.08-4.985,2.226V246.9c.089-.011.18-.022.267-.034a15.023,15.023,0,0,1,1.154-4.695,5.1,5.1,0,0,1,2.35-2.75,4.181,4.181,0,0,1,1.879-.487h.076a4.178,4.178,0,0,1,1.7.4,25.293,25.293,0,0,0-2.123-9.661c-1.968-4.963-5.984-4.744-5.984-4.744s-4.016-.219-5.984,4.744c-2.866,7.226-4.325,16.07,5.282,17.232V235.95a.692.692,0,0,1,1.384,0V246.9c-.229.029-.463.056-.706.075-.232-.018-.455-.042-.675-.069v13.28a52.878,52.878,0,0,1-9.219.854c-1.207,0-2.35-.052-3.443-.148V247.748h-1.384v13a52.6,52.6,0,0,1-12.989-3.72c-1.831-.707-3.683-1.421-5.65-2.058V244.091a6.823,6.823,0,0,1-.692-.407,6.819,6.819,0,0,1-.692.407v10.445a42.276,42.276,0,0,0-12.275-1.778,75.361,75.361,0,0,0-9.007.5v-4.794a11.454,11.454,0,0,1-1.384,0v4.982a29.978,29.978,0,0,0-10.074,2.943,39,39,0,0,1,.474-13.544,11.62,11.62,0,0,1-.652-3.088,40.146,40.146,0,0,0-1.585,11.2,40.646,40.646,0,0,0,.557,6.69A.692.692,0,0,0,142.476,258.167Z" transform="translate(-9.573 -77.91)" fill="#fff"></path><path d="M335.292,166.674l.425-1.319a40.009,40.009,0,0,0-10.383-1.938c.186.489.335.965.457,1.416A38.616,38.616,0,0,1,335.292,166.674Z" transform="translate(-151.015 -30.586)" fill="#fff"></path><path d="M404.323,190.611a6.256,6.256,0,0,1,1.246-.141h.152c.093,0,.23,0,.4.017a40.5,40.5,0,0,0-11.337-8.547l.609,1.891A39.119,39.119,0,0,1,404.323,190.611Z" transform="translate(-204.449 -44.837)" fill="#fff"></path><path d="M458.979,294.023a3.061,3.061,0,0,0-5.961,0c-1.39,3.506-2.113,7.775,2.276,8.528v-1.279a.692.692,0,1,1,1.384,0v1.279C461.072,301.8,460.37,297.53,458.979,294.023Z" transform="translate(-248.431 -129.254)" fill="#fff"></path><path d="M209.641,154.362a.691.691,0,0,0,.978,0l3.4-3.4a.692.692,0,1,0-.978-.978l-2.913,2.913-2.8-2.8a.692.692,0,0,0-.978.978Z" transform="translate(-59.316 -20.091)" fill="#fff"></path><path d="M235.815,128.248a.692.692,0,0,0,.978,0l3.4-3.4a.692.692,0,1,0-.978-.979l-2.913,2.913-2.8-2.8a.692.692,0,0,0-.978.978Z" transform="translate(-79.454)" fill="#fff"></path><path d="M335.78,178.376a.692.692,0,0,1,.978-.978l2.527,2.527V170.8a.692.692,0,1,1,1.384,0v20.041l1.734-1.734a.692.692,0,1,1,.978.978l-2.712,2.712v3.858h9.965a8.324,8.324,0,0,1-4.771-3.513c-1.988-3.191-1.775-8.028.631-14.382l-6.516-20.238-5.944,18.46a8.574,8.574,0,0,1,2.06,7.589c-.609,3.393-3.674,7.284-7.483,9.254l-.912,2.831h11.586V181.882Z" transform="translate(-152.835 -26.82)" fill="#fff"></path><path d="M237.749,167.754a.692.692,0,0,1,.978-.978l4.914,4.914V161.205a.692.692,0,0,1,1.384,0v4.462l2.514-2.514a.692.692,0,0,1,.978.978l-3.493,3.493V177.3l6-6a.692.692,0,1,1,.978.978l-6.977,6.977v3.117c5.657,2.91,13.158-3.51,14.085-8.673a7.192,7.192,0,0,0-2.188-6.88,1.027,1.027,0,0,1-.136-1.329,3.992,3.992,0,0,0,.7-2.273,3.851,3.851,0,0,0-1.9-3.379,1,1,0,0,1-.361-1.354,4.053,4.053,0,0,0,.486-2.341,3.734,3.734,0,0,0-2.809-3.357,3.238,3.238,0,0,0-1.036-.059.9.9,0,0,1-.94-.77c-.48-2.529-2.057-7.247-6.589-7.247s-6.109,4.718-6.589,7.247a.9.9,0,0,1-.94.77,3.236,3.236,0,0,0-1.036.059,3.734,3.734,0,0,0-2.809,3.357,4.053,4.053,0,0,0,.486,2.341,1,1,0,0,1-.361,1.354,3.851,3.851,0,0,0-1.9,3.379,3.99,3.99,0,0,0,.7,2.273,1.027,1.027,0,0,1-.136,1.329,7.192,7.192,0,0,0-2.188,6.88c.927,5.163,8.428,11.583,14.085,8.673v-8.726Z" transform="translate(-77.213 -16.191)" fill="#fff"></path><path d="M159.228,205.844a4.625,4.625,0,0,1-1.342-3.436.692.692,0,0,1,1.384,0,3.252,3.252,0,0,0,.923,2.445,5.121,5.121,0,0,0,2.921,1.227V191.649a.692.692,0,1,1,1.384,0v7.072a5.125,5.125,0,0,0,2.922-1.229,3.253,3.253,0,0,0,.923-2.445.692.692,0,0,1,1.384,0,4.626,4.626,0,0,1-1.341,3.436,6.585,6.585,0,0,1-3.887,1.629v12.539c.135-.008.27-.017.4-.03a9.788,9.788,0,0,0,3.628-1.037,9.228,9.228,0,0,0,4.62-6.238,12.238,12.238,0,0,1-2.818-5.5,8.825,8.825,0,0,1,.716-5.641,22.508,22.508,0,0,1-.069-5.748c.894-9.219-5.978-10.013-6.083-10.024a10.63,10.63,0,0,0-2.182,0s-6.985.734-6.084,10.024-2.667,9.615-2.41,15.11a9.546,9.546,0,0,0,3.964,7.47,9.844,9.844,0,0,0,4.929,1.606v-5.174A6.582,6.582,0,0,1,159.228,205.844Z" transform="translate(-19.353 -42.098)" fill="#fff"></path></g></svg>