<svg xmlns="http://www.w3.org/2000/svg" xmlns:xlink="http://www.w3.org/1999/xlink" width="112.336" height="91.997" viewBox="0 0 112.336 91.997"><defs><clipPath id="a"><rect width="100" height="74.281" fill="none"></rect></clipPath></defs><g transform="translate(0 19.081) rotate(-11)"><g clip-path="url(#a)"><path d="M0,37.14C0,16.628,22.386,0,50,0s50,16.628,50,37.14-22.386,37.14-50,37.14S0,57.653,0,37.14" fill="#ff026a"></path><path d="M64.637,82.156c-24.177,0-43.847-14.1-43.847-31.429S40.46,19.3,64.637,19.3s43.847,14.1,43.847,31.429S88.814,82.156,64.637,82.156m0-61.675c-23.525,0-42.663,13.568-42.663,30.245S41.112,80.973,64.637,80.973,107.3,67.4,107.3,50.727,88.161,20.482,64.637,20.482" transform="translate(-14.637 -13.587)" fill="#000024"></path><path d="M124.536,78.117l8.792-9.052h9.962V102.2h-9.65V78.221l-7.127,3.746Z" transform="translate(-87.679 -48.625)"></path></g></g></svg>