<svg xmlns="http://www.w3.org/2000/svg" xmlns:xlink="http://www.w3.org/1999/xlink" id="Calque_2" data-name="Calque 2" viewBox="0 0 81.06 81.05"><defs><style>      .cls-1, .cls-2, .cls-3, .cls-4, .cls-5 {        fill: none;      }      .cls-6 {        fill: #fff;        stroke-width: 1.16px;      }      .cls-6, .cls-2, .cls-3, .cls-4, .cls-5 {        stroke: #fff;        stroke-miterlimit: 10;      }      .cls-7 {        clip-path: url(#clippath);      }      .cls-3 {        stroke-width: 1.13px;      }      .cls-4 {        stroke-width: .89px;      }      .cls-5 {        stroke-width: 1px;      }    </style><clipPath id="clippath"><rect class="cls-1" x="53.88" y="28.8" width="22.8" height="46.84"></rect></clipPath></defs><g id="Calque_1-2" data-name="Calque 1"><polyline class="cls-2" points="49.93 54.93 .5 54.93 .5 .5 80.5 .5 80.5 24.96"></polyline><rect class="cls-3" x="49.93" y="24.96" width="30.57" height="55.53"></rect><rect class="cls-5" x="5.89" y="6" width="32.19" height="10.77"></rect><rect class="cls-5" x="5.89" y="22.33" width="32.19" height="10.77"></rect><rect class="cls-4" x="53.88" y="28.8" width="22.8" height="46.84"></rect><g class="cls-7"><g><line class="cls-6" x1="33.8" y1="57" x2="76.54" y2="14.27"></line><line class="cls-6" x1="38.02" y1="61.21" x2="80.75" y2="18.48"></line><line class="cls-6" x1="42.23" y1="65.42" x2="84.96" y2="22.69"></line><line class="cls-6" x1="46.45" y1="69.64" x2="89.18" y2="26.91"></line><line class="cls-6" x1="50.66" y1="73.85" x2="93.39" y2="31.12"></line><line class="cls-6" x1="54.87" y1="78.07" x2="97.6" y2="35.33"></line><line class="cls-6" x1="59.09" y1="82.28" x2="101.82" y2="39.55"></line><line class="cls-6" x1="63.3" y1="86.49" x2="106.03" y2="43.76"></line><line class="cls-6" x1="67.51" y1="90.71" x2="110.24" y2="47.98"></line></g></g></g></svg>