<svg xmlns="http://www.w3.org/2000/svg" xmlns:xlink="http://www.w3.org/1999/xlink" width="783" height="929" viewBox="0 0 783 929"><defs><clipPath id="a"><rect width="783" height="929" transform="translate(0 3368)" fill="#fff" stroke="#707070" stroke-width="1"></rect></clipPath></defs><g transform="translate(0 -3368)" clip-path="url(#a)"><g transform="translate(398.682 4381) rotate(-150)"><path d="M1.2,84.233,600.548,0l-1.2,646.895L0,731.127Z" transform="translate(0 17.088)" fill="none" stroke="#fff" stroke-miterlimit="10" stroke-width="0.75"></path><path d="M0,129.547,581.018,0l49.511,634.33L49.511,763.878Z" transform="translate(18.81 14.24)" fill="none" stroke="#fff" stroke-miterlimit="10" stroke-width="0.75"></path><path d="M0,174.862,562.689,0,662.912,621.766,100.222,796.627Z" transform="translate(36.419 11.392)" fill="none" stroke="#fff" stroke-miterlimit="10" stroke-width="0.75"></path><path d="M0,220.176,544.362,0,695.3,609.2,150.936,829.378Z" transform="translate(54.027 8.544)" fill="none" stroke="#fff" stroke-miterlimit="10" stroke-width="0.75"></path><path d="M0,265.492,526.034,0,727.681,596.637,201.648,862.128Z" transform="translate(71.635 5.696)" fill="none" stroke="#fff" stroke-miterlimit="10" stroke-width="0.75"></path><path d="M0,310.806,507.7,0l252.36,584.073L252.359,894.879Z" transform="translate(89.244 2.848)" fill="none" stroke="#fff" stroke-miterlimit="10" stroke-width="0.75"></path><path d="M0,356.121,489.376,0,792.449,571.508,303.072,927.629Z" transform="translate(106.852 0)" fill="none" stroke="#fff" stroke-miterlimit="10" stroke-width="0.75"></path></g></g></svg>