<svg xmlns="http://www.w3.org/2000/svg" xmlns:xlink="http://www.w3.org/1999/xlink" width="344.952" height="344.952" viewBox="0 0 344.952 344.952"><defs><clipPath id="clip-path"><rect id="Rectangle_692" data-name="Rectangle 692" width="281.652" height="281.652" fill="none"></rect></clipPath></defs><g id="Groupe_1723" data-name="Groupe 1723" transform="matrix(0.966, -0.259, 0.259, 0.966, 0, 72.897)"><g id="Groupe_1722" data-name="Groupe 1722" clip-path="url(#clip-path)"><path id="Trac&#xE9;_2133" data-name="Trac&#xE9; 2133" d="M0,140.826A140.826,140.826,0,1,1,140.826,281.652,140.826,140.826,0,0,1,0,140.826" fill="#1970fc"></path><circle id="Ellipse_42" data-name="Ellipse 42" cx="119.863" cy="119.863" r="119.863" transform="translate(20.963 20.963)" fill="none" stroke="#000024" stroke-miterlimit="10" stroke-width="2"></circle><path id="Trac&#xE9;_2134" data-name="Trac&#xE9; 2134" d="M122.593,104.56l28.734,53.754,28.249-53.593h28.572L151,214.167,94.021,104.56Z" transform="translate(-16.669 -18.538)"></path><path id="Trac&#xE9;_2135" data-name="Trac&#xE9; 2135" d="M200.148,215.185A15.867,15.867,0,1,1,215.968,231a14.607,14.607,0,0,1-11.139-4.52,14.755,14.755,0,0,1-4.681-11.3" transform="translate(-35.485 -35.375)"></path></g></g></svg>