<svg xmlns="http://www.w3.org/2000/svg" xmlns:xlink="http://www.w3.org/1999/xlink" id="Groupe_1725" data-name="Groupe 1725" width="275.611" height="213.512" viewBox="0 0 275.611 213.512"><defs><clipPath id="clip-path"><rect id="Rectangle_693" data-name="Rectangle 693" width="275.611" height="213.512" fill="none"></rect></clipPath></defs><g id="Groupe_1724" data-name="Groupe 1724" clip-path="url(#clip-path)"><path id="Trac&#xE9;_2136" data-name="Trac&#xE9; 2136" d="M1.418,26.793c.007.015.015.038.022.053,12.537,31.014,33.1,82.242,46.714,116.141l.511,1.284L60.8,174.5a19.618,19.618,0,0,0,18.3,12.814,19.1,19.1,0,0,0,3.876-.391,19.293,19.293,0,0,0,5.5-1.983c7.654-4.131,16-8.645,26.253-14.211,3.508-1.9,7.241-3.929,11.064-6,14.828,18.47,34.635,41.365,35.664,42.56a18.041,18.041,0,0,0,13.633,6.227,17.635,17.635,0,0,0,3.418-.331,18,18,0,0,0,13.618-11.816l3.846-11.139c2.14-6.01,5.093-14.317,8.36-23.541,3.32-9.367,11.072-31.255,17.247-48.907,13.3-8.075,28.918-16.924,42.845-24.811l1.262-.714a.185.185,0,0,0,.052-.03,19.522,19.522,0,0,0-5.678-36.078C176.817,38.781,99.8,20.634,24.591.668A19.526,19.526,0,0,0,1.418,26.793" transform="translate(0)" fill="#f36"></path><path id="Trac&#xE9;_2137" data-name="Trac&#xE9; 2137" d="M12.815,15.3A1550.994,1550.994,0,0,0,174.942,120.223c-33.177,17.316-65.824,35.3-98.63,52.985,0,.116-42.533-106.062-63.5-157.907C97.654,37.834,181,57.2,264.761,74.663c-18.2,10.309-36.479,20.638-52.067,30.283C142.99,82.41,12.909,15.354,12.975,15.418" transform="translate(-0.983 -1.173)" fill="none" stroke="#000024" stroke-linejoin="round" stroke-width="2"></path><path id="Trac&#xE9;_2138" data-name="Trac&#xE9; 2138" d="M104.606,112.875c-11.236,32.3-33.641,95.229-33.641,95.164" transform="translate(105.481 -8.655)" fill="none" stroke="#000024" stroke-linejoin="round" stroke-width="2"></path><path id="Trac&#xE9;_2139" data-name="Trac&#xE9; 2139" d="M150.361,128.935c.5,29.094,1.271,49.523,2.487,80.336q-23.737-27.557-45.448-56.776" transform="translate(23.598 -9.886)" fill="none" stroke="#000024" stroke-linejoin="round" stroke-width="2"></path></g></svg>