<svg xmlns="http://www.w3.org/2000/svg" xmlns:xlink="http://www.w3.org/1999/xlink" width="81" height="81" viewBox="0 0 81 81"><defs><clipPath id="a"><rect width="19.84" height="19.84" rx="9.92" fill="none"></rect></clipPath></defs><g transform="translate(0.5 0.5)"><rect width="80" height="19.84" rx="9.92" transform="translate(0 0)" fill="none" stroke="#fff" stroke-miterlimit="10" stroke-width="1"></rect><rect width="80" height="19.84" rx="9.92" transform="translate(0 30.08)" fill="#fff" stroke="#fff" stroke-miterlimit="10" stroke-width="1"></rect><rect width="80" height="19.84" rx="9.92" transform="translate(0 60.16)" fill="none" stroke="#fff" stroke-miterlimit="10" stroke-width="1"></rect><g transform="translate(30.08 30.08)" fill="#002" stroke="#fff" stroke-miterlimit="10" stroke-width="1"><rect width="19.84" height="19.84" rx="9.92" stroke="none"></rect><rect x="0.5" y="0.5" width="18.84" height="18.84" rx="9.42" fill="none"></rect></g><g transform="translate(30.08 30.08)"><g clip-path="url(#a)"><g transform="translate(-6.173 -7.627)"><line y1="15.127" x2="15.127" fill="#fff" stroke="#fff" stroke-miterlimit="10" stroke-width="1"></line><line y1="15.127" x2="15.127" transform="translate(2.021 2.021)" fill="#fff" stroke="#fff" stroke-miterlimit="10" stroke-width="1"></line><line y1="15.127" x2="15.127" transform="translate(4.042 4.042)" fill="#fff" stroke="#fff" stroke-miterlimit="10" stroke-width="1"></line><line y1="15.127" x2="15.127" transform="translate(6.062 6.062)" fill="#fff" stroke="#fff" stroke-miterlimit="10" stroke-width="1"></line><line y1="15.127" x2="15.127" transform="translate(8.083 8.083)" fill="#fff" stroke="#fff" stroke-miterlimit="10" stroke-width="1"></line><line y1="15.127" x2="15.127" transform="translate(10.104 10.104)" fill="#fff" stroke="#fff" stroke-miterlimit="10" stroke-width="1"></line><line y1="15.127" x2="15.127" transform="translate(12.125 12.125)" fill="#fff" stroke="#fff" stroke-miterlimit="10" stroke-width="1"></line><line y1="15.127" x2="15.127" transform="translate(14.146 14.146)" fill="#fff" stroke="#fff" stroke-miterlimit="10" stroke-width="1"></line><line y1="15.127" x2="15.127" transform="translate(16.167 16.167)" fill="#fff" stroke="#fff" stroke-miterlimit="10" stroke-width="1"></line></g></g></g><g transform="translate(47.31 0)" fill="none" stroke="#fff" stroke-miterlimit="10" stroke-width="1"><rect width="19.84" height="19.84" rx="9.92" stroke="none"></rect><rect x="0.5" y="0.5" width="18.84" height="18.84" rx="9.42" fill="none"></rect></g><g transform="translate(0 60.16)" fill="none" stroke="#fff" stroke-miterlimit="10" stroke-width="1"><rect width="19.84" height="19.84" rx="9.92" stroke="none"></rect><rect x="0.5" y="0.5" width="18.84" height="18.84" rx="9.42" fill="none"></rect></g></g></svg>