<svg xmlns="http://www.w3.org/2000/svg" xmlns:xlink="http://www.w3.org/1999/xlink" width="81" height="81" viewBox="0 0 81 81"><defs><clipPath id="a"><path d="M91.258,85.03A28.763,28.763,0,0,1,90.7,90.7,28.76,28.76,0,0,1,56.85,56.85,28.76,28.76,0,0,1,91.258,85.03Z" transform="translate(-56.29 -56.29)" fill="none"></path></clipPath></defs><g transform="translate(0.5 0.5)"><path d="M56.924,91.538A28.744,28.744,0,1,1,23.076,57.69,28.76,28.76,0,0,0,56.924,91.538Z" transform="translate(0 -34.614)" fill="#fff" stroke="#fff" stroke-miterlimit="10" stroke-width="1"></path><path d="M91.258,85.03A28.763,28.763,0,0,1,90.7,90.7,28.76,28.76,0,0,1,56.85,56.85,28.76,28.76,0,0,1,91.258,85.03Z" transform="translate(-33.774 -33.774)" fill="none" stroke="#fff" stroke-miterlimit="10" stroke-width="1"></path><path d="M113.774,28.744A28.744,28.744,0,1,1,85.03,0,28.751,28.751,0,0,1,113.774,28.744Z" transform="translate(-33.774)" fill="none" stroke="#fff" stroke-miterlimit="10" stroke-width="1"></path><g transform="translate(22.516 22.516)"><g clip-path="url(#a)"><g transform="translate(-13.713 -16.475)"><line y1="31.542" x2="31.542" transform="translate(0 0)" fill="#fff" stroke="#fff" stroke-miterlimit="10" stroke-width="1"></line><line y1="31.542" x2="31.542" transform="translate(4.214 4.214)" fill="#fff" stroke="#fff" stroke-miterlimit="10" stroke-width="1"></line><line y1="31.542" x2="31.542" transform="translate(8.427 8.427)" fill="#fff" stroke="#fff" stroke-miterlimit="10" stroke-width="1"></line><line y1="31.542" x2="31.542" transform="translate(12.641 12.641)" fill="#fff" stroke="#fff" stroke-miterlimit="10" stroke-width="1"></line><line y1="31.542" x2="31.542" transform="translate(16.855 16.855)" fill="#fff" stroke="#fff" stroke-miterlimit="10" stroke-width="1"></line><line y1="31.542" x2="31.542" transform="translate(21.069 21.069)" fill="#fff" stroke="#fff" stroke-miterlimit="10" stroke-width="1"></line><line y1="31.542" x2="31.542" transform="translate(25.282 25.282)" fill="#fff" stroke="#fff" stroke-miterlimit="10" stroke-width="1"></line><line y1="31.542" x2="31.542" transform="translate(29.496 29.496)" fill="#fff" stroke="#fff" stroke-miterlimit="10" stroke-width="1"></line><line y1="31.542" x2="31.542" transform="translate(33.71 33.71)" fill="#fff" stroke="#fff" stroke-miterlimit="10" stroke-width="1"></line></g></g></g></g></svg>