<svg xmlns="http://www.w3.org/2000/svg" xmlns:xlink="http://www.w3.org/1999/xlink" width="109.365" height="87.475" viewBox="0 0 109.365 87.475"><defs><clipPath id="a"><rect width="100" height="74.281" fill="none"></rect></clipPath></defs><g transform="translate(10.338) rotate(8)"><g clip-path="url(#a)"><path d="M0,37.14C0,16.628,22.386,0,50,0s50,16.628,50,37.14-22.386,37.14-50,37.14S0,57.653,0,37.14" fill="#ff026a"></path><path d="M64.638,82.156c-24.177,0-43.847-14.1-43.847-31.429S40.461,19.3,64.638,19.3s43.847,14.1,43.847,31.429S88.815,82.156,64.638,82.156m0-61.675c-23.524,0-42.663,13.568-42.663,30.245S41.113,80.973,64.638,80.973,107.3,67.4,107.3,50.727,88.162,20.482,64.638,20.482" transform="translate(-14.638 -13.587)" fill="#000024"></path><path d="M114.077,100.037V98.763a15.924,15.924,0,0,1,2.315-8.22,17.258,17.258,0,0,1,2.393-2.965,22.246,22.246,0,0,1,2.667-2.315,25.321,25.321,0,0,1,2.692-1.691q.936-.52,2.562-1.287t2.744-1.327q1.119-.559,2.263-1.261a6.616,6.616,0,0,0,1.743-1.457,2.457,2.457,0,0,0,.6-1.535,3.046,3.046,0,0,0-1.365-2.692,6.484,6.484,0,0,0-3.681-.923,19.812,19.812,0,0,0-6.5,1.275,20.688,20.688,0,0,0-5.879,3.043l-2.289-6.659a24.015,24.015,0,0,1,7.4-3.343,33.264,33.264,0,0,1,9.455-1.418,13.41,13.41,0,0,1,8.584,2.562A8.55,8.55,0,0,1,143,75.639q0,5.359-6.113,9.26-.364.234-3.264,1.795a42.254,42.254,0,0,0-4.89,3.017,10.706,10.706,0,0,0-2.926,3.018h16.777v7.309Z" transform="translate(-80.315 -46.458)"></path></g></g></svg>