<svg xmlns="http://www.w3.org/2000/svg" xmlns:xlink="http://www.w3.org/1999/xlink" width="80.877" height="80.877" viewBox="0 0 80.877 80.877"><defs><clipPath id="a"><path d="M64.814,38.587V33.093A24.349,24.349,0,0,0,33.093,64.814h5.494V52.454l3.626-1.5,8.739,8.74,8.74-8.74-8.74-8.739,1.5-3.626Z" fill="none"></path></clipPath></defs><g transform="translate(0.377 0.377)"><circle cx="24.348" cy="24.348" r="24.348" transform="translate(31.304 31.304)" fill="none" stroke="#fff" stroke-miterlimit="10" stroke-width="1"></circle><path d="M64.814,38.587V33.093A24.349,24.349,0,0,0,33.093,64.814h5.494V52.454l3.626-1.5,8.739,8.74,8.74-8.74-8.74-8.739,1.5-3.626Z" fill="none" stroke="#fff" stroke-miterlimit="10" stroke-width="1"></path><path d="M33.093,64.814A24.349,24.349,0,0,1,64.814,33.093V26.227H52.454l-1.5-3.626,8.74-8.739-8.74-8.74-8.739,8.74-3.626-1.5V0H26.227V12.36l-3.626,1.5-8.739-8.74-8.74,8.74,8.74,8.739-1.5,3.626H0v12.36H12.36l1.5,3.626-8.74,8.739,8.74,8.74,8.739-8.74,3.626,1.5v12.36ZM24.171,32.407a8.237,8.237,0,1,1,8.236,8.237A8.236,8.236,0,0,1,24.171,32.407Z" fill="#fff" stroke="#fff" stroke-miterlimit="10" stroke-width="0.754"></path><g clip-path="url(#a)"><line y1="38.118" x2="38.118" transform="translate(19.38 19.38)" fill="#fff" stroke="#fff" stroke-miterlimit="10" stroke-width="1.099"></line><line y1="38.118" x2="38.118" transform="translate(22.757 22.757)" fill="#fff" stroke="#fff" stroke-miterlimit="10" stroke-width="1.099"></line><line y1="38.118" x2="38.118" transform="translate(26.134 26.134)" fill="#fff" stroke="#fff" stroke-miterlimit="10" stroke-width="1.099"></line><line y1="38.118" x2="38.118" transform="translate(29.51 29.51)" fill="#fff" stroke="#fff" stroke-miterlimit="10" stroke-width="1.099"></line><line y1="38.118" x2="38.118" transform="translate(32.887 32.887)" fill="#fff" stroke="#fff" stroke-miterlimit="10" stroke-width="1.099"></line><line y1="38.118" x2="38.118" transform="translate(36.263 36.263)" fill="#fff" stroke="#fff" stroke-miterlimit="10" stroke-width="1.099"></line></g></g></svg>