<svg xmlns="http://www.w3.org/2000/svg" xmlns:xlink="http://www.w3.org/1999/xlink" width="304" height="200" viewBox="0 0 304 200"><defs><clipPath id="a"><rect width="238.535" height="48.488" fill="#f7f4f6"></rect></clipPath></defs><g transform="translate(-808 -8091)"><rect width="304" height="200" transform="translate(808 8091)" fill="none"></rect><g transform="translate(840.732 8166.756)"><path d="M289.5,12.407l5.511-9.545h16.92l-5.51,9.545H289.5l-5.51,9.545H267.07L261.559,31.5H244.64l5.51-9.545h16.92l5.51-9.545H255.661l5.51-9.545h16.919l-5.51,9.545ZM257.749,0,237.911,34.36h29.553l-8.157,14.128h60.911l19.839-34.36H310.5L318.66,0Z" transform="translate(-101.522 0)" fill="#f7f4f6"></path><path d="M10.014,6.93,6.464,14.585H6.451L2.9,6.93H0v9.5H1.849V11.482l-.013-2.87h.013l3.678,7.822H7.389l3.678-7.822h.013l-.013,2.87v4.951h1.848V6.93Z" transform="translate(0 -2.958)" fill="#f7f4f6"></path><g transform="translate(0 0)"><g clip-path="url(#a)"><path d="M25.8,11.544v-.013c0-2.98,2.5-4.939,6.064-4.939s6.064,1.959,6.064,4.939v.013c0,2.974-2.5,4.939-6.064,4.939S25.8,14.518,25.8,11.544m10.13,0v-.013c0-2.211-1.81-3.485-4.066-3.485s-4.066,1.274-4.066,3.485v.013c0,2.2,1.81,3.484,4.066,3.484s4.066-1.28,4.066-3.484" transform="translate(-11.008 -2.813)" fill="#f7f4f6"></path><path d="M51.437,8.392H47.106V6.931H57.662V8.392H53.331v8.042H51.437Z" transform="translate(-20.101 -2.957)" fill="#f7f4f6"></path><path d="M65.672,11.544v-.013c0-2.98,2.5-4.939,6.064-4.939S77.8,8.551,77.8,11.531v.013c0,2.974-2.5,4.939-6.064,4.939s-6.064-1.965-6.064-4.939m10.13,0v-.013c0-2.211-1.81-3.485-4.066-3.485s-4.066,1.274-4.066,3.485v.013c0,2.2,1.81,3.484,4.066,3.484s4.066-1.28,4.066-3.484" transform="translate(-28.024 -2.813)" fill="#f7f4f6"></path><path d="M90.093,6.931h5.372c2.457,0,4.066.789,4.066,2.889v.013c0,1.713-1.105,2.553-2.818,2.806l3.368,3.795H97.8l-3.277-3.711H91.987v3.711H90.093Zm5.288,4.363c1.435,0,2.159-.407,2.159-1.461V9.82c0-1.054-.724-1.461-2.159-1.461H91.987v2.935Z" transform="translate(-38.445 -2.957)" fill="#f7f4f6"></path><path d="M109.652,13.425h2.068c.317,1.164,1.759,1.707,3.433,1.707,1.7,0,3.142-.42,3.142-1.4v-.013c0-.944-1.022-1.254-2.909-1.461l-1.577-.194c-2.624-.284-3.969-1.105-3.969-2.741V9.314c0-1.739,2.2-2.722,4.9-2.722,2.663,0,4.687.989,5.081,2.793h-2.069c-.349-1-1.68-1.442-3.129-1.442-1.5,0-2.87.42-2.87,1.286v.013c0,.737.711,1.125,2.592,1.312l1.571.2c2.631.3,4.3.976,4.3,2.774v.019c0,2.01-2.127,2.935-5.153,2.935-2.928,0-5.016-1.132-5.411-3.058" transform="translate(-46.791 -2.813)" fill="#f7f4f6"></path><path d="M131.377,6.93h5.54c2.457,0,4.066.815,4.066,2.948v.013c0,2.139-1.609,2.954-4.066,2.954h-3.645v3.588h-1.894Zm5.43,4.486c1.454,0,2.178-.44,2.178-1.525V9.878c0-1.079-.724-1.519-2.178-1.519h-3.536v3.057Z" transform="translate(-56.061 -2.957)" fill="#f7f4f6"></path><path d="M149.966,11.544v-.013c0-2.98,2.5-4.939,6.064-4.939s6.064,1.959,6.064,4.939v.013c0,2.974-2.5,4.939-6.064,4.939s-6.064-1.965-6.064-4.939m10.13,0v-.013c0-2.211-1.81-3.485-4.066-3.485s-4.066,1.274-4.066,3.485v.013c0,2.2,1.81,3.484,4.066,3.484s4.066-1.28,4.066-3.484" transform="translate(-63.994 -2.813)" fill="#f7f4f6"></path><path d="M174.387,6.931h5.372c2.457,0,4.066.789,4.066,2.889v.013c0,1.713-1.105,2.553-2.818,2.806l3.368,3.795h-2.282l-3.277-3.711h-2.534v3.711h-1.894Zm5.288,4.363c1.435,0,2.159-.407,2.159-1.461V9.82c0-1.054-.724-1.461-2.159-1.461h-3.394v2.935Z" transform="translate(-74.415 -2.957)" fill="#f7f4f6"></path><path d="M197.139,8.392h-4.331V6.931h10.556V8.392h-4.331v8.042h-1.894Z" transform="translate(-82.275 -2.957)" fill="#f7f4f6"></path><path d="M76.512,34h9.057v1.461H78.406v2.509h6.756v1.461H78.406v4.073H76.512Z" transform="translate(-32.649 -14.509)" fill="#f7f4f6"></path><path d="M96.279,34h2.314l4.622,9.5h-2.023l-1.208-2.534H94.824l-1.2,2.534H91.65Zm3.013,5.514L97.4,35.554h-.013l-1.882,3.963Z" transform="translate(-39.109 -14.509)" fill="#f7f4f6"></path><path d="M114.458,34h2.314l6.057,7.369h.013l-.013-1.862V34h1.829v9.5h-2.334l-6.044-7.369h-.013l.013,1.856v5.514h-1.823Z" transform="translate(-48.841 -14.509)" fill="#f7f4f6"></path><path d="M139.217,35.464h-4.331V34h10.556v1.461h-4.331v8.042h-1.894Z" transform="translate(-57.559 -14.509)" fill="#f7f4f6"></path><path d="M155.7,34h2.314l4.622,9.5h-2.024l-1.208-2.534h-5.159l-1.2,2.534h-1.978Zm3.013,5.514-1.888-3.963h-.013l-1.881,3.963Z" transform="translate(-64.466 -14.509)" fill="#f7f4f6"></path><path d="M172.177,40.5h2.068c.317,1.164,1.759,1.707,3.433,1.707,1.7,0,3.142-.42,3.142-1.4v-.013c0-.944-1.022-1.254-2.909-1.461l-1.577-.194c-2.624-.284-3.969-1.105-3.969-2.741v-.013c0-1.739,2.2-2.722,4.9-2.722,2.663,0,4.687.989,5.081,2.793h-2.069c-.349-1-1.681-1.442-3.128-1.442-1.5,0-2.87.42-2.87,1.286v.013c0,.737.711,1.125,2.592,1.312l1.571.2c2.631.3,4.3.976,4.3,2.774v.019c0,2.01-2.127,2.935-5.153,2.935-2.928,0-5.016-1.132-5.411-3.058" transform="translate(-73.472 -14.365)" fill="#f7f4f6"></path><path d="M195.86,39.788,190.992,34h2.263l2.883,3.478.666.827h.013l.659-.827L200.346,34H202.6l-4.842,5.779v3.723h-1.9Z" transform="translate(-81.5 -14.509)" fill="#f7f4f6"></path><path d="M169.943,65.688v-.013c0-2.967,2.443-4.939,5.973-4.939,2.754,0,4.952,1.157,5.546,3.07h-2.036c-.511-1.086-1.984-1.616-3.465-1.616-2.236,0-4.021,1.267-4.021,3.484v.013c0,2.224,1.765,3.516,4.034,3.516,1.978,0,3.717-.866,3.717-2.424v-.1h-3.465V65.326h5.327v5.107h-1.487l-.045-1.4a5.4,5.4,0,0,1-4.183,1.59c-3.452,0-5.9-1.958-5.9-4.938" transform="translate(-72.518 -25.917)" fill="#f7f4f6"></path><path d="M194.308,61.074h5.54c2.457,0,4.066.815,4.066,2.947v.014c0,2.139-1.609,2.954-4.066,2.954H196.2v3.588h-1.894Zm5.43,4.486c1.454,0,2.178-.44,2.178-1.525v-.014c0-1.079-.724-1.519-2.178-1.519H196.2V65.56Z" transform="translate(-82.915 -26.061)" fill="#f7f4f6"></path></g></g></g></g></svg>