<svg xmlns="http://www.w3.org/2000/svg" xmlns:xlink="http://www.w3.org/1999/xlink" width="107.217" height="84.327" viewBox="0 0 107.217 84.327"><defs><clipPath id="a"><rect width="100" height="74.281" fill="none"></rect></clipPath></defs><g transform="matrix(0.995, 0.105, -0.105, 0.995, 7.764, 0)"><g clip-path="url(#a)"><path d="M0,37.14C0,16.628,22.386,0,50,0s50,16.628,50,37.14-22.386,37.14-50,37.14S0,57.653,0,37.14" fill="#ff026a"></path><path d="M64.638,82.156c-24.177,0-43.847-14.1-43.847-31.429S40.461,19.3,64.638,19.3s43.847,14.1,43.847,31.429S88.815,82.156,64.638,82.156m0-61.674c-23.524,0-42.663,13.568-42.663,30.245S41.113,80.972,64.638,80.972,107.3,67.4,107.3,50.727,88.162,20.482,64.638,20.482" transform="translate(-14.638 -13.587)" fill="#000024"></path><path d="M107.925,89.528l17.948-20.471h11.783V88.774h3.356v6.5h-3.356V102.2H129.02V95.277H109.043Zm9.91-.754H129.02V76.782h-.6Z" transform="translate(-75.984 -48.619)"></path></g></g></svg>