<svg xmlns="http://www.w3.org/2000/svg" width="81.47" height="81.362" viewBox="0 0 81.47 81.362"><g transform="translate(0.97 0.862)"><path d="M107.707,76.945A30.766,30.766,0,1,1,76.941,46.179,30.773,30.773,0,0,1,107.707,76.945Z" transform="translate(-27.707 -27.707)" fill="none" stroke="#fff" stroke-miterlimit="10" stroke-width="1"></path><path d="M123.089,78.869V96.557h10.864" transform="translate(-73.854 -47.321)" fill="none" stroke="#fff" stroke-miterlimit="10" stroke-width="1"></path><path d="M39.319,27.615,19.659,0,0,27.615H11.028V62.061H28.29V27.615Z" fill="#fff" stroke="#fff" stroke-miterlimit="10" stroke-width="1"></path><line y1="3.633" transform="translate(49.236 21.958)" fill="none" stroke="#fff" stroke-miterlimit="10" stroke-width="1"></line><line x1="2.569" y1="2.569" transform="translate(29.947 29.947)" fill="none" stroke="#fff" stroke-miterlimit="10" stroke-width="1"></line><line x1="3.633" transform="translate(21.958 49.236)" fill="none" stroke="#fff" stroke-miterlimit="10" stroke-width="1"></line><line x1="2.569" y2="2.569" transform="translate(29.947 65.956)" fill="none" stroke="#fff" stroke-miterlimit="10" stroke-width="1"></line><line y2="3.633" transform="translate(49.236 72.881)" fill="none" stroke="#fff" stroke-miterlimit="10" stroke-width="1"></line><line x2="2.569" y2="2.569" transform="translate(65.956 65.956)" fill="none" stroke="#fff" stroke-miterlimit="10" stroke-width="1"></line><line x2="3.633" transform="translate(72.881 49.236)" fill="none" stroke="#fff" stroke-miterlimit="10" stroke-width="1"></line><line y1="2.569" x2="2.569" transform="translate(65.956 29.947)" fill="none" stroke="#fff" stroke-miterlimit="10" stroke-width="1"></line></g></svg>