<svg xmlns="http://www.w3.org/2000/svg" xmlns:xlink="http://www.w3.org/1999/xlink" width="245" height="265" viewBox="0 0 245 265"><defs><clipPath id="a"><rect width="245" height="265" transform="translate(1675 6319)" fill="#fff"></rect></clipPath></defs><g transform="translate(-1675 -6319)" clip-path="url(#a)"><g transform="translate(1675 6319)"><path d="M253.553,77.914a132.684,132.684,0,1,0-66.034,175.639A132.682,132.682,0,0,0,253.553,77.914" fill="#ff5c9a"></path><path d="M138.058,252.532a114.606,114.606,0,1,1,47.233-10.283,114.485,114.485,0,0,1-47.233,10.283m-.1-225.987A111.668,111.668,0,1,0,177.2,33.73a111.063,111.063,0,0,0-39.248-7.185" transform="translate(-5.291 -5.271)" fill="#000024"></path><path d="M171.114,229.355a1.94,1.94,0,0,1-.617-.12h0c-1.78-.58-40.281-13.54-54.229-24.287-21.693-16.714-24.97-33.825-24.992-42.537a34.091,34.091,0,0,1,9.7-24.342,27.309,27.309,0,0,1,20.038-8.039c11,.179,21.161,7.01,29.06,13.451,5.179-12.86,13.327-21.406,23.1-24.169a32.564,32.564,0,0,1,31.8,8.8c11.43,12.134,13.2,28.023,5.259,47.227-5.131,12.409-14.225,26.055-27.8,41.715-.158.183-.6.743-1.213,1.522-7.21,9.145-8.9,10.78-10.1,10.78m.355-3.065h0l0,0m-50.944-93.165a24.264,24.264,0,0,0-17.375,7.15A30.974,30.974,0,0,0,94.377,162.4c.02,8.144,3.139,24.182,23.784,40.089,12.884,9.928,47.585,21.867,52.685,23.591a104.248,104.248,0,0,0,7.939-9.425c.66-.837,1.136-1.438,1.305-1.634,13.356-15.4,22.279-28.772,27.281-40.868,7.432-17.975,5.868-32.751-4.65-43.916a29.388,29.388,0,0,0-28.7-7.942c-9.164,2.589-17.115,11.442-21.815,24.287l-.76,2.076-1.693-1.42c-7.719-6.476-17.967-13.933-28.787-14.109-.145,0-.291,0-.436,0" transform="translate(-20.524 -26.574)" fill="#000024"></path><path d="M71.8,160.754a30.818,30.818,0,0,1,16.63-31.478l1.357,2.788C79.639,137,73.226,149.143,74.864,160.3Z" transform="translate(-16.077 -29.069)" fill="#000024"></path><path d="M56.478,144.677l-3.091-.238a25.426,25.426,0,0,1,12.53-19.848l1.544,2.689a22.286,22.286,0,0,0-10.983,17.4" transform="translate(-12.005 -28.016)" fill="#000024"></path><path d="M242.321,112.275a25.462,25.462,0,0,0-24.766-10.735l-.516-3.057A28.649,28.649,0,0,1,244.9,110.561Z" transform="translate(-48.804 -22.065)" fill="#000024"></path><path d="M246.445,89.861a16.754,16.754,0,0,0-20.41-6.88l-1.222-2.849c8.583-3.682,19.726.074,24.329,8.2Z" transform="translate(-50.552 -17.7)" fill="#000024"></path><rect width="265.432" height="265.432" fill="none"></rect></g></g></svg>