<svg xmlns="http://www.w3.org/2000/svg" xmlns:xlink="http://www.w3.org/1999/xlink" width="304" height="200" viewBox="0 0 304 200"><defs><clipPath id="a"><rect width="133.633" height="116.783" fill="#f7f4f6"></rect></clipPath></defs><g transform="translate(-504 -5401)"><rect width="304" height="200" transform="translate(504 5401)" fill="none"></rect><g transform="translate(589.183 5442.609)"><g transform="translate(0 0)" clip-path="url(#a)"><path d="M67.781,76.573a1.808,1.808,0,0,1,1.041.33l-.233.3a1.256,1.256,0,0,0-.778-.27.854.854,0,1,0,0,1.689,1.352,1.352,0,0,0,.821-.284l.233.3a1.9,1.9,0,0,1-1.084.344,1.231,1.231,0,1,1,0-2.415" transform="translate(32.729 37.795)" fill="#f7f4f6"></path><path d="M68.267,78.261V76.6h2.115v.373H68.767v.563h1.482V77.9H68.767v.36a.261.261,0,0,0,.294.3h1.367v.373H68.941a.615.615,0,0,1-.674-.674" transform="translate(33.695 37.808)" fill="#f7f4f6"></path><path d="M70.605,77.27v1.665h-.5V76.6h.5l1.431,1.661V76.6h.5v2.336h-.5Z" transform="translate(34.602 37.808)" fill="#f7f4f6"></path><path d="M72.012,76.973V76.6h2.3v.373h-.9v1.961h-.5V76.973Z" transform="translate(35.543 37.808)" fill="#f7f4f6"></path><path d="M75.056,77.758c.354,0,.581-.146.581-.4s-.218-.384-.584-.384h-.724v.784ZM73.828,76.6h1.265c.587,0,1.063.236,1.063.751,0,.4-.293.609-.69.7l.763.883h-.584l-.693-.814h-.624v.814h-.5Z" transform="translate(36.44 37.808)" fill="#f7f4f6"></path><path d="M75.727,78.261V76.6h2.115v.373H76.227v.563h1.482V77.9H76.227v.36a.261.261,0,0,0,.294.3h1.367v.373H76.4a.615.615,0,0,1-.674-.674" transform="translate(37.377 37.808)" fill="#f7f4f6"></path><path d="M78.392,76.6h2.115v.373H78.892v.73h1.414v.364H78.892v.866h-.5Z" transform="translate(38.692 37.808)" fill="#f7f4f6"></path><path d="M81.382,77.758c.354,0,.581-.146.581-.4s-.218-.384-.584-.384h-.724v.784ZM80.154,76.6h1.265c.587,0,1.063.236,1.063.751,0,.4-.293.609-.69.7l.763.883h-.584l-.693-.814h-.624v.814h-.5Z" transform="translate(39.562 37.808)" fill="#f7f4f6"></path><path d="M83.768,78.007l-.46-.926-.462.926Zm.184.364H82.665l-.281.563h-.511L83.084,76.6H83.6l1.211,2.334h-.574Z" transform="translate(40.41 37.808)" fill="#f7f4f6"></path><path d="M84.55,77.27v1.665h-.5V76.6h.5L85.98,78.26V76.6h.5v2.336h-.5Z" transform="translate(41.485 37.808)" fill="#f7f4f6"></path><path d="M87.5,76.573a1.808,1.808,0,0,1,1.041.33l-.234.3a1.249,1.249,0,0,0-.777-.27.854.854,0,1,0,0,1.689,1.355,1.355,0,0,0,.821-.284l.233.3a1.9,1.9,0,0,1-1.084.344,1.231,1.231,0,1,1,0-2.415" transform="translate(42.459 37.795)" fill="#f7f4f6"></path><path d="M88.025,78.261V76.6H90.14v.373H88.525v.563h1.482V77.9H88.525v.36a.261.261,0,0,0,.294.3h1.367v.373H88.7a.615.615,0,0,1-.674-.674" transform="translate(43.447 37.808)" fill="#f7f4f6"></path><path d="M82.347,70.783l3.244-1.737L88,74.057H84.416a1.094,1.094,0,0,1-.966-.62c-.257-.687-1.1-2.653-1.1-2.654" transform="translate(40.644 34.079)" fill="#f7f4f6"></path><rect width="26.096" height="2.336" transform="translate(103.322 109.736)" fill="#f7f4f6"></rect><path d="M90.282,64.469c-.006,0-4.106,2.355-5.066,2.714-.884.348-1.216-.112-1.32-.273a11.031,11.031,0,0,1-.681-1.739,1.822,1.822,0,0,0,.775-.082c.624-.16,6.286-3.326,6.292-3.323Z" transform="translate(41.072 30.486)" fill="#f7f4f6"></path><path d="M90.738,68.9l-2.694-5.971H84.123L78.616,73.2a8.946,8.946,0,0,0,4.443-1.389c.439-.258,1.674-3.5,2.806-5.686l1.761,4.411a46.889,46.889,0,0,1-6.552,2.944c-3.592,1.034-7.968,1.655-9.541.263-1.477-1.313,1.936-6.808,8.392-8.029a5.293,5.293,0,0,1,1.658-.167,9.5,9.5,0,0,0-.787-2.273,1.594,1.594,0,0,0-1.656-.621c-1.4.082-7.342,1.668-9.689,6.621a5.658,5.658,0,0,0,1.558,6.481c.523.382,3.9,3.41,11.707.35a83.112,83.112,0,0,0,14.591-7.684V65.271s-3.041,1.737-6.569,3.626" transform="translate(34.049 30.909)" fill="#f7f4f6"></path><path d="M68.107,65.755a1.555,1.555,0,0,1-.739-.161V62.147h.523v1.205a1.469,1.469,0,0,1,.482-.085,1.072,1.072,0,0,1,1.105,1.161,1.294,1.294,0,0,1-1.371,1.328m.17-2.031a.867.867,0,0,0-.387.085v1.464a.892.892,0,0,0,.321.045.786.786,0,0,0,.744-.85.68.68,0,0,0-.678-.744" transform="translate(33.251 30.674)" fill="#f7f4f6"></path><path d="M70.575,65.449c-.332.92-.714,1.056-1.126,1.056a1.211,1.211,0,0,1-.517-.106l.13-.4a.741.741,0,0,0,.367.085c.261,0,.5-.2.678-.769l-1.086-2.376h.559l.778,1.774h.01l.6-1.774h.523Z" transform="translate(34.023 31.064)" fill="#f7f4f6"></path><path d="M19.635,37.311V5.3h4.324V33.474h11.9v3.837Z" transform="translate(9.691 2.615)" fill="#f7f4f6"></path><path d="M25.663,32.013V0H42.034L40.625,3.838H29.986v9.91h10.54v3.789H29.986V28.176H42.131v3.837Z" transform="translate(12.666 0)" fill="#f7f4f6"></path><path d="M15.5,61.805h-2.72L0,29.647H4.663L12.485,49.9c.63,1.7,1.262,3.5,1.845,5.2h.1c.582-1.652,1.165-3.3,1.943-5.15l8.452-20.305h4.469Z" transform="translate(0 14.633)" fill="#f7f4f6"></path><rect width="4.324" height="32.013" transform="translate(32.061 44.279)" fill="#f7f4f6"></rect><path d="M71.67,62.225c-9.619,0-15.983-6.7-15.983-16.031,0-9.862,6.851-16.712,17.052-16.712a22.875,22.875,0,0,1,9.084,1.846L81.774,35.7a19.541,19.541,0,0,0-8.938-2.429c-8.21,0-12.485,5.247-12.485,12.437,0,7.723,4.711,12.679,12.388,12.679a11.644,11.644,0,0,0,5.731-1.166V46.048h4.324v13.5A24.4,24.4,0,0,1,71.67,62.225" transform="translate(27.486 14.552)" fill="#f7f4f6"></path><path d="M76.975,61.659V29.646H93.346l-1.408,3.838H81.3v9.91h10.54v3.789H81.3V57.822H93.443v3.837Z" transform="translate(37.993 14.633)" fill="#f7f4f6"></path><path d="M58.257,32.263H55.488L48.024,51.479h3.988l3.525-8.918A35.736,35.736,0,0,0,56.8,38.627h.049a33.462,33.462,0,0,0,1.214,3.983l3.549,9.714H41.172V24.148H36.849V56.161h9.492l-1.674,4.373H31.926V32.36H27.6V64.373H47.473l2.959-8.212h12.5l3.2,8.212h4.615Z" transform="translate(13.625 11.919)" fill="#f7f4f6"></path><path d="M4.519,61.957a4.142,4.142,0,0,1-4.3-4.443,4.409,4.409,0,0,1,4.524-4.578,4.61,4.61,0,0,1,2.263.509L7,54.622a3.956,3.956,0,0,0-2.263-.656,3.215,3.215,0,0,0-3.225,3.467A3.136,3.136,0,0,0,4.68,60.886a4.44,4.44,0,0,0,2.1-.562l.347.923a5.209,5.209,0,0,1-2.609.709" transform="translate(0.11 26.128)" fill="#f7f4f6"></path><path d="M10.576,55.4a3.9,3.9,0,0,1-.027,4.939,2.853,2.853,0,0,1-2.1.829A2.835,2.835,0,0,1,6.4,60.388a3.92,3.92,0,0,1-.013-5,2.818,2.818,0,0,1,2.075-.844,2.831,2.831,0,0,1,2.115.857M6.694,57.846c0,1.405.669,2.342,1.78,2.342s1.753-.95,1.753-2.342-.642-2.328-1.78-2.328-1.753.936-1.753,2.328" transform="translate(2.71 26.919)" fill="#f7f4f6"></path><path d="M15.575,55.4a3.9,3.9,0,0,1-.027,4.939,2.853,2.853,0,0,1-2.1.829,2.835,2.835,0,0,1-2.048-.777,3.92,3.92,0,0,1-.013-5,2.818,2.818,0,0,1,2.075-.844,2.831,2.831,0,0,1,2.115.857m-3.882,2.449c0,1.405.669,2.342,1.78,2.342s1.753-.95,1.753-2.342-.642-2.328-1.78-2.328-1.753.936-1.753,2.328" transform="translate(5.177 26.919)" fill="#f7f4f6"></path><path d="M17.9,61.166a2.692,2.692,0,0,1-1.017-.188V64.2H15.7V54.969a6.38,6.38,0,0,1,2.2-.429,2.979,2.979,0,0,1,3.226,3.24A3.2,3.2,0,0,1,17.9,61.166m-.04-5.595a3.231,3.231,0,0,0-.977.146V59.96a2.253,2.253,0,0,0,.963.215c1.258,0,2.061-.9,2.061-2.357a1.991,1.991,0,0,0-2.048-2.248" transform="translate(7.751 26.92)" fill="#f7f4f6"></path><path d="M21.6,58.967a1.924,1.924,0,0,0,1.994,2.048,3.113,3.113,0,0,0,1.538-.442l.335.79a3.654,3.654,0,0,1-2.1.656c-2.061,0-3.011-1.619-3.011-3.386,0-1.821,1.057-3.24,2.676-3.24,1.661,0,2.624,1.3,2.624,3.266v.308Zm1.419-2.611a1.528,1.528,0,0,0-1.432,1.688H24.4a1.516,1.516,0,0,0-1.379-1.688m.481-1.579H22.468l1.178-1.967h1.511Z" transform="translate(10.046 26.066)" fill="#f7f4f6"></path><path d="M28.31,55.851a1.39,1.39,0,0,0-.656-.148,2.153,2.153,0,0,0-1.325.7v4.632H25.138V54.7h.99l.148.709a2.5,2.5,0,0,1,1.78-.869,1.36,1.36,0,0,1,.723.214Z" transform="translate(12.407 26.92)" fill="#f7f4f6"></path><path d="M29.355,58.114a1.924,1.924,0,0,0,1.994,2.048,3.134,3.134,0,0,0,1.54-.442l.335.79a3.669,3.669,0,0,1-2.1.656c-2.061,0-3.011-1.621-3.011-3.386,0-1.821,1.057-3.24,2.676-3.24,1.659,0,2.623,1.3,2.623,3.265v.309ZM30.774,55.5a1.528,1.528,0,0,0-1.432,1.686h2.811A1.515,1.515,0,0,0,30.774,55.5" transform="translate(13.875 26.92)" fill="#f7f4f6"></path><path d="M36.067,55.851a1.39,1.39,0,0,0-.656-.148,2.153,2.153,0,0,0-1.325.7v4.632H32.9V54.7h.99l.148.709a2.5,2.5,0,0,1,1.78-.869,1.36,1.36,0,0,1,.723.214Z" transform="translate(16.236 26.92)" fill="#f7f4f6"></path><path d="M40.915,61.166a2.692,2.692,0,0,1-1.017-.188V64.2H38.719V54.969a6.38,6.38,0,0,1,2.2-.429,2.979,2.979,0,0,1,3.226,3.24,3.2,3.2,0,0,1-3.226,3.386m-.04-5.595a3.231,3.231,0,0,0-.977.146V59.96a2.253,2.253,0,0,0,.963.215c1.258,0,2.061-.9,2.061-2.357a1.991,1.991,0,0,0-2.048-2.248" transform="translate(19.111 26.92)" fill="#f7f4f6"></path><path d="M48.456,55.4a3.9,3.9,0,0,1-.027,4.939,3.083,3.083,0,0,1-4.149.052,3.92,3.92,0,0,1-.013-5,3,3,0,0,1,4.189.013m-3.882,2.449c0,1.405.669,2.342,1.78,2.342s1.753-.95,1.753-2.342-.642-2.328-1.78-2.328-1.753.936-1.753,2.328" transform="translate(21.406 26.919)" fill="#f7f4f6"></path><path d="M52.854,60.978l-.254-.642a3.15,3.15,0,0,1-2.021.777c-.844,0-2-.442-2-2.3V54.647h1.192v4.07c0,.963.415,1.4,1.19,1.4a2.135,2.135,0,0,0,1.54-.735V54.647h1.178v3.976a8.879,8.879,0,0,0,.133,2.355Z" transform="translate(23.98 26.972)" fill="#f7f4f6"></path><path d="M56.693,55.851a1.394,1.394,0,0,0-.656-.148,2.153,2.153,0,0,0-1.325.7v4.632H53.521V54.7h.99l.148.709a2.5,2.5,0,0,1,1.78-.869,1.36,1.36,0,0,1,.723.214Z" transform="translate(26.417 26.92)" fill="#f7f4f6"></path><path d="M60.906,53.569a.8.8,0,0,1-.79.79.783.783,0,1,1,.79-.79m-1.379,1.994h1.178v6.331H59.527Z" transform="translate(29.282 26.057)" fill="#f7f4f6"></path><path d="M65.9,61.031V57.19c0-.736-.121-1.565-1.044-1.565A3.043,3.043,0,0,0,63,56.507v4.524H61.827V54.7h.99l.146.723a3.6,3.6,0,0,1,2.249-.883c.923,0,1.874.629,1.874,2.248v4.243Z" transform="translate(30.516 26.92)" fill="#f7f4f6"></path><path d="M70.85,61.031V57.19c0-.736-.121-1.565-1.044-1.565a3.043,3.043,0,0,0-1.848.883v4.524H66.782V54.7h.99l.146.723a3.6,3.6,0,0,1,2.249-.883c.923,0,1.874.629,1.874,2.248v4.243Z" transform="translate(32.962 26.92)" fill="#f7f4f6"></path><path d="M76.607,55.4a3.9,3.9,0,0,1-.027,4.939,3.083,3.083,0,0,1-4.149.052,3.92,3.92,0,0,1-.013-5,3,3,0,0,1,4.189.013m-3.882,2.449c0,1.405.669,2.342,1.78,2.342s1.753-.95,1.753-2.342-.642-2.328-1.78-2.328-1.753.936-1.753,2.328" transform="translate(35.301 26.919)" fill="#f7f4f6"></path><path d="M79.436,61.018h-.9l-2.475-6.372h1.217l1.727,4.82h.027l1.888-4.82h1.15Z" transform="translate(37.543 26.972)" fill="#f7f4f6"></path><path d="M81.947,58.114a1.924,1.924,0,0,0,1.994,2.048,3.134,3.134,0,0,0,1.54-.442l.335.79a3.669,3.669,0,0,1-2.1.656c-2.061,0-3.011-1.621-3.011-3.386,0-1.821,1.057-3.24,2.676-3.24,1.659,0,2.623,1.3,2.623,3.265v.309ZM83.366,55.5a1.528,1.528,0,0,0-1.432,1.686h2.811A1.515,1.515,0,0,0,83.366,55.5" transform="translate(39.833 26.92)" fill="#f7f4f6"></path><path d="M88.659,55.851A1.39,1.39,0,0,0,88,55.7a2.153,2.153,0,0,0-1.325.7v4.632H85.487V54.7h.99l.148.709a2.5,2.5,0,0,1,1.78-.869,1.36,1.36,0,0,1,.723.214Z" transform="translate(42.194 26.92)" fill="#f7f4f6"></path></g></g></g></svg>