<svg xmlns="http://www.w3.org/2000/svg" xmlns:xlink="http://www.w3.org/1999/xlink" width="304" height="200" viewBox="0 0 304 200"><defs><clipPath id="a"><rect width="134.227" height="117.435" fill="none"></rect></clipPath></defs><g transform="translate(-1112 -486)"><g transform="translate(-304 -45)"><g transform="translate(912 -4668)"><rect width="304" height="200" transform="translate(504 5199)" fill="none"></rect></g></g><g transform="translate(1196.886 527.283)"><path d="M0,114.711v29.425H9.959v-3.843H4.381V114.711Z" transform="translate(0 -64.898)" fill="#fff"></path><g clip-path="url(#a)"><path d="M35.244,151.3H31.526a3.581,3.581,0,0,1-.248-1.612h-.084c-.826,1.364-1.446,1.9-3.1,1.9a2.433,2.433,0,0,1-2.688-2.728v-7.935c0-4.793,5.746-2.273,5.746-8.306,0-.7.167-2.357-.786-2.357-1.156,0-.951,1.9-.951,2.728v3.1H25.408v-4.756c0-2.438,1.9-3.966,4.92-3.966s4.916,1.528,4.916,3.966Zm-3.966-12.234c-1.114.663-1.9,1.156-1.9,2.4v5.952a.851.851,0,0,0,.951.785.988.988,0,0,0,.951-.95Z" transform="translate(-14.375 -72.059)" fill="#fff"></path><path d="M0,230.687V201.262H9.839V205.1H4.381v7.562H9.63v3.844H4.381v14.176Z" transform="translate(0 -113.865)" fill="#fff"></path><path d="M26.172,230.687V201.262h5.786c3.514,0,5.662,1.238,5.662,5.042v4.174c0,2.189-.619,4.009-4.337,4.422v.083c1.941.248,4.005.909,4.173,3.6.248,3.927,0,8.059.7,12.109H33.775c-.743-3.389-.535-7.813-.535-11.241,0-1.777-.659-2.482-2.685-2.4v13.639Zm4.382-17.234h.825c1.529,0,1.861-.828,1.861-1.9v-5.332c0-1.116-.659-1.446-1.653-1.446H30.554Z" transform="translate(-14.807 -113.865)" fill="#fff"></path><path d="M58.15,230.687V201.262H67.9V205.1H62.529v7.562H67.7v3.844H62.529v10.332h5.458v3.844Z" transform="translate(-32.899 -113.865)" fill="#fff"></path><path d="M92.528,201.262l1.242,8.472a150.347,150.347,0,0,1,2.065,16.656H96v-1.57c.044-2.853-.124-5.745-.124-8.6V201.262h3.6v29.425H92.983l-2.068-14.714c-.7-3.635-.95-6.941-1.322-10.415h-.168c0,1.282.086,2.563.128,3.8v21.325h-3.6V201.262Z" transform="translate(-48.63 -113.865)" fill="#fff"></path><path d="M128.416,211.252V205.26c0-1.487-.457-1.82-1.326-1.82-.908,0-1.362.333-1.362,1.82v19.919c0,1.489.453,1.821,1.362,1.821.868,0,1.326-.332,1.326-1.821v-6.365h4.377v6.739c0,3.843-3.015,4.96-5.742,4.96-2.688,0-5.7-1.117-5.7-4.96V204.887c0-3.844,3.015-4.96,5.7-4.96,2.728,0,5.742,1.116,5.742,4.96v6.365Z" transform="translate(-68.653 -113.109)" fill="#fff"></path><path d="M153.323,230.687V201.262H157.7v11.283h2.44V201.262h4.377v29.425h-4.377v-14.3H157.7v14.3Z" transform="translate(-86.743 -113.865)" fill="#fff"></path><path d="M205.281,201.26v3.848h-3.807v25.611H197.09V205.108h-3.847V201.26Z" transform="translate(-109.328 -113.863)" fill="#fff"></path><path d="M225.062,230.719V201.26h9.766v3.848H229.45v7.571h5.171v3.848H229.45v10.344h5.462v3.847Z" transform="translate(-127.33 -113.863)" fill="#fff"></path><path d="M258.344,211.261v-6c0-1.492-.455-1.823-1.325-1.823-.907,0-1.364.331-1.364,1.823v19.943c0,1.488.457,1.819,1.364,1.819.87,0,1.325-.33,1.325-1.819v-6.373h4.384v6.742c0,3.849-3.018,4.967-5.75,4.967-2.691,0-5.708-1.118-5.708-4.967V204.889c0-3.848,3.017-4.965,5.708-4.965,2.731,0,5.75,1.117,5.75,4.965v6.372Z" transform="translate(-142.157 -113.108)" fill="#fff"></path><path d="M283.284,230.719V201.26h4.384v11.3h2.442v-11.3H294.5v29.459h-4.386V216.4h-2.442v14.317Z" transform="translate(-160.269 -113.863)" fill="#fff"></path><path d="M114.761,59.966l-.009-.009.01.008h0" transform="translate(-64.921 -33.921)" fill="#8e8e8e"></path><path d="M198.833,147.887l-.01.008.009-.009h0" transform="translate(-112.485 -83.667)" fill="#8e8e8e"></path><path d="M169.687,25.837c.12-.033.123.072.141.139q.182.7.355,1.4,1.479,5.968,2.957,11.936l3.17,12.8q1.2,4.835,2.394,9.67c.018.073.088.168.028.223s-.158-.021-.233-.049q-9.748-3.583-19.5-7.165c-.154-.057-.178-.109-.129-.263q2.013-6.4,4.016-12.8,2.4-7.665,4.794-15.332a.328.328,0,0,1,.3-.27c.567-.087,1.132-.191,1.7-.288" transform="translate(-89.871 -14.614)" fill="#fefefe"></path><path d="M154.384,107.628q0-6.213,0-12.426a.322.322,0,0,1,.212-.344c.281-.13.559-.271.829-.423a.217.217,0,0,1,.328.062c.712.859,1.432,1.712,2.15,2.566l4.878,5.81,4.676,5.567,5.122,6.1c.37.439.736.882,1.11,1.318.091.107.108.165-.027.256q-3.043,2.056-6.077,4.124a.436.436,0,0,1-.258.079c-1.717,0-3.436.033-5.152-.01-2.119-.053-4.237-.015-6.355-.023-.4,0-.8.022-1.2.035-.175.006-.234-.036-.233-.225.009-1.473,0-2.946,0-4.419Z" transform="translate(-87.34 -53.4)" fill="#fefefe"></path><path d="M93.5,64.425c.52,0,1.02-.007,1.519,0q2.426.04,4.853.09c1.288.025,2.575.054,3.863.075a.25.25,0,0,1,.243.154q1.608,2.854,3.223,5.7,1.924,3.4,3.845,6.807,2.291,4.058,4.58,8.118c.022.039.04.08.073.147-.086,0-.154.012-.222.012q-4.459,0-8.918,0a.348.348,0,0,1-.342-.2q-3.84-6.32-7.688-12.634-2.465-4.049-4.925-8.1c-.034-.056-.065-.113-.1-.181" transform="translate(-52.899 -36.447)" fill="#fefefe"></path><path d="M178.123,115.894,160.932,95.426l.03-.042c.35.128.7.255,1.051.384l11.359,4.18q5.874,2.161,11.75,4.319c.162.059.145.109.069.229q-3.438,5.543-6.87,11.088c-.059.1-.121.188-.2.31" transform="translate(-91.048 -53.964)" fill="#fefefe"></path><path d="M107.654,116.033c.182-.014.363-.033.545-.042q2.712-.119,5.422-.235c1.372-.058,2.744-.109,4.117-.168s2.717-.127,4.076-.187c1.029-.046,2.058-.084,3.087-.126.64-.026,1.28-.048,1.92-.085.182-.01.234.04.234.225q-.007,7.958,0,15.915c0,.062.033.15-.036.179s-.112-.054-.161-.093q-2.888-2.3-5.774-4.61l-10.137-8.1-3.2-2.56c-.033-.027-.083-.044-.086-.116" transform="translate(-60.906 -65.168)" fill="#fefefe"></path><path d="M188.418,34.583c.327.669.657,1.336.981,2.007q2.227,4.616,4.451,9.233,1.228,2.549,2.455,5.1a11.717,11.717,0,0,1,.58,1.846q1.493,5.166,2.97,10.336.856,2.983,1.71,5.967c.014.048.061.107.023.148s-.109,0-.161-.022q-2.4-.877-4.792-1.754a.275.275,0,0,1-.179-.231q-.9-3.659-1.813-7.316-1.559-6.3-3.117-12.6-1.548-6.249-3.1-12.5c-.016-.064-.027-.129-.04-.194l.03-.024" transform="translate(-106.581 -19.565)" fill="#fefefe"></path><path d="M166.1,14.788c-.331-.5-.637-.961-.942-1.423Q162.3,9.034,159.443,4.7c-.089-.135-.114-.189.079-.241,1.406-.38,2.809-.772,4.214-1.156a.659.659,0,0,0,.288-.161q1.63-1.52,3.263-3.036c.167-.155.17-.154.219.056.495,2.123,1.019,4.241,1.472,6.373.255,1.2.581,2.387.849,3.585.041.186-.01.225-.169.251-.709.117-1.416.248-2.126.359a.241.241,0,0,0-.221.2q-.564,1.812-1.137,3.622c-.019.061-.041.122-.078.229" transform="translate(-90.167 0)" fill="#fefefe"></path><path d="M121.7,68.1c.079-.016.119.048.167.086q5.541,4.36,11.079,8.721.95.747,1.9,1.489a.3.3,0,0,1,.141.281,5.139,5.139,0,0,0,0,.634.314.314,0,0,1-.192.341c-1.1.6-2.186,1.2-3.278,1.8-.532.293-1.067.581-1.593.882-.126.072-.17.048-.237-.069q-2.415-4.284-4.837-8.565-1.509-2.671-3.019-5.341c-.048-.085-.087-.176-.13-.264Z" transform="translate(-68.854 -38.528)" fill="#fefefe"></path><path d="M180.208.19c.167.106.3.184.421.265q1.559,1.015,3.116,2.034a.452.452,0,0,0,.363.079q2.456-.472,4.915-.932l.058-.013c.219-.04.234-.032.207.185-.08.641-.168,1.281-.252,1.922-.113.856-.229,1.711-.336,2.568a.331.331,0,0,1-.175.282Q185.6,8.285,182.687,10c-.138.081-.181.084-.222-.094q-1.109-4.767-2.231-9.53c-.01-.044-.012-.089-.025-.186" transform="translate(-101.953 -0.107)" fill="#fefefe"></path><path d="M167.653,166.7l-.872-.5c-1.684-.973-3.367-1.95-5.058-2.914a.7.7,0,0,1-.352-.479q-.858-3.3-1.738-6.6c-.05-.186,0-.207.164-.206q2.149.007,4.3,0a.2.2,0,0,1,.229.172c.271.873.548,1.744.826,2.615q1.221,3.841,2.444,7.683c.019.06.031.123.058.227" transform="translate(-90.303 -88.259)" fill="#fefefe"></path><path d="M89.575,66.292l.636,1.042q1.791,2.94,3.581,5.881c.052.085.09.141-.031.218q-3.053,1.948-6.1,3.9a.721.721,0,0,1-.092.04l1.957-11.07.049-.016" transform="translate(-49.542 -37.505)" fill="#fefefe"></path><path d="M146.131,96.862c0,.4,0,.767,0,1.136,0,1.876.005,3.752.015,5.628,0,.191-.036.262-.247.256-.621-.017-1.242-.011-1.863,0a.286.286,0,0,1-.292-.172q-1.145-2.047-2.3-4.088c-.051-.091-.08-.15.042-.217q2.273-1.247,4.542-2.5a1.067,1.067,0,0,1,.105-.04" transform="translate(-79.997 -54.8)" fill="#fefefe"></path><path d="M166.156,177.957h-7.963c-.026,0-.053,0-.079,0-.05-.006-.116.023-.146-.029s.027-.1.055-.136q.478-.7.96-1.406c.4-.583.8-1.165,1.193-1.75.067-.1.114-.129.231-.061q2.8,1.623,5.6,3.238c.055.032.107.069.161.1Z" transform="translate(-89.366 -98.745)" fill="#fefefe"></path><path d="M163.107,36.462c.064.119,0,.209-.03.3q-1.342,4.3-2.689,8.6-2.333,7.447-4.663,14.9c-.044.142-.092.172-.228.112-.193-.084-.394-.152-.594-.219-.119-.04-.143-.09-.1-.216.392-1.1.775-2.2,1.162-3.3q1.363-3.873,2.727-7.745l4.32-12.261c.019-.053.022-.115.092-.159" transform="translate(-87.57 -20.628)" fill="#fefefe"></path><path d="M176.5,157.1c.346,2.371.686,4.7,1.027,7.042a.481.481,0,0,1-.261-.095c-.5-.262-1-.528-1.509-.787a.355.355,0,0,1-.2-.226q-.614-1.961-1.236-3.919c-.03-.094-.053-.169.04-.246.7-.578,1.4-1.161,2.137-1.769" transform="translate(-98.611 -88.88)" fill="#fefefe"></path><path d="M178.279,173.983c.586.3,1.173.6,1.757.9q2.49,1.3,4.977,2.6c.067.035.148.052.2.126-.063.046-.13.024-.192.024q-2.633,0-5.268,0c-.336,0-.367-.022-.465-.333q-.518-1.651-1.034-3.3l.029-.025" transform="translate(-100.845 -98.431)" fill="#fefefe"></path><path d="M107.259,107.187c.429-.021.843-.043,1.258-.061.93-.041,1.859-.08,2.789-.122a.23.23,0,0,1,.248.111c.488.815.983,1.625,1.476,2.437a.137.137,0,0,1,.008.04c-.039.05-.1.03-.144.03-.614,0-1.228,0-1.842,0a.48.48,0,0,1-.279-.079q-1.7-1.122-3.407-2.239a.178.178,0,0,1-.106-.119" transform="translate(-60.682 -60.537)" fill="#fefefe"></path><path d="M208.108,124.067q.945-1.532,1.891-3.064,1.437-2.322,2.877-4.642c.031-.05.065-.1.117-.173.152.525.276,1.029.447,1.516a.577.577,0,0,1-.162.659q-2.426,2.69-4.833,5.4c-.1.113-.208.22-.312.33l-.025-.023" transform="translate(-117.738 -65.734)" fill="#fefefe"></path><path d="M196.968,34.951c.082-.416.153-.783.227-1.149.1-.51.21-1.02.311-1.531.021-.109.05-.177.184-.176,1.353,0,2.706,0,4.058,0a1.16,1.16,0,0,1,.134.023l-4.914,2.83" transform="translate(-111.435 -18.158)" fill="#fefefe"></path><path d="M202.822,27.178h-1.084c-.956,0-1.913,0-2.869,0-.142,0-.2-.016-.158-.185.145-.629.274-1.261.4-1.893.021-.1.043-.141.148-.079q1.784,1.058,3.571,2.111l-.011.043" transform="translate(-112.414 -14.14)" fill="#fefefe"></path><path d="M158.126,171.257c.057.221.112.438.169.653.02.076-.03.126-.065.178-.371.545-.744,1.088-1.114,1.633-.052.076-.1.128-.207.1-.4-.1-.8-.2-1.208-.3-.1-.024-.155-.048-.048-.141l2.4-2.091a.369.369,0,0,1,.072-.033" transform="translate(-88.028 -96.889)" fill="#fefefe"></path><path d="M174.6,156.2c-.482.4-.964.8-1.444,1.2-.095.079-.123.047-.154-.056-.1-.347-.214-.692-.324-1.037-.025-.077-.048-.147.072-.148h1.836l.015.042" transform="translate(-97.684 -88.347)" fill="#fefefe"></path><path d="M188.382,34.55a.308.308,0,0,1,0-.067c.036-.01.026.024.034.043l-.03.024" transform="translate(-106.574 -19.508)" fill="#fefefe"></path><path d="M121.694,68.074a.062.062,0,0,1-.015-.01s0-.007,0-.011a.216.216,0,0,0,.007.024l0,0" transform="translate(-68.84 -38.501)" fill="#fefefe"></path><path d="M208.121,134.356l-.033.021c0-.015.006-.03.009-.045l.025.023" transform="translate(-117.726 -75.999)" fill="#fefefe"></path><path d="M178.25,173.983l.006-.043.023.019-.029.025" transform="translate(-100.845 -98.407)" fill="#fefefe"></path><path d="M191.665,17.612q-2.639,1.544-5.279,3.087c-.134.078-.148.141-.083.277q1.651,3.411,3.295,6.825a.315.315,0,0,0,.14.185c.688-3.491,1.374-6.961,2.134-10.431a.261.261,0,0,0-.208.059m-2.505,5.4a1.117,1.117,0,1,1,.016-2.235,1.117,1.117,0,0,1-.016,2.235" transform="translate(-105.38 -9.929)" fill="#fefefe"></path></g></g></g></svg>