<svg xmlns="http://www.w3.org/2000/svg" xmlns:xlink="http://www.w3.org/1999/xlink" width="304" height="200" viewBox="0 0 304 200"><defs><clipPath id="a"><rect width="250.92" height="56.289" fill="#fffaf4"></rect></clipPath></defs><g transform="translate(-808 -5401)"><rect width="304" height="200" transform="translate(808 5401)" fill="none"></rect><g transform="translate(834.54 5472.855)"><g clip-path="url(#a)"><path d="M0,0V56.287l56.286,0L56.289,0ZM43.636,51.177l-23.413,0L21.9,48.5l23.415-.009ZM38,23.959l1.752-1.1,4.116,6.6-5.586,3.5-1.092-1.746,3.847-2.407Zm-1.706,4.6a1.689,1.689,0,1,1,1.692-1.687A1.692,1.692,0,0,1,36.3,28.557m8.291,8.523-1.678,2.684H29.747l1.67-2.687Zm.867-31.6c-8.19,3.781-17.067,8.181-23.609,13.588h6.174l-1.675,2.683-7.453,0q-1.04,1.044-1.949,2.136h8.1l-1.676,2.679H14.987a21.2,21.2,0,0,0-1.163,2.085h8.239l-1.671,2.686H12.775a16.579,16.579,0,0,0-.716,4.807c0,5.13,2.557,8.973,4.549,10.443L36,15.56l1.574,2.505L17.323,50.478c-3.958-1.891-7.892-6.9-7.892-13.741a20.96,20.96,0,0,1,.7-5.4H2.413l1.678-2.686h6.948a22.487,22.487,0,0,1,1-2.085H5.393l1.676-2.676h6.647c.525-.732,1.092-1.443,1.694-2.137l-7.041,0,1.681-2.678H18C26.069,11.531,38.309,6.31,47.9,1.543Z" fill="#fffaf4"></path><path d="M243.1,79.608a6.829,6.829,0,0,0-1.953-.216c-2.835-.01-4.707,1.583-4.707,3.989a2.6,2.6,0,0,0,2.78,2.9,6.746,6.746,0,0,0,3.578-1.267l-.428,2.945a7.285,7.285,0,0,1-3.346.807c-3.507,0-5.351-2.172-5.351-5.247,0-4.009,2.766-6.679,7.379-6.684a8.57,8.57,0,0,1,2.46.306Z" transform="translate(-166.086 -54.609)" fill="#fffaf4" fill-rule="evenodd"></path><path d="M285.759,89.114h-2.715L282.7,87.1l-3.174,0-.886,2.009-2.735,0L281,77.877h2.692Zm-3.273-4.051a29.121,29.121,0,0,1-.519-4.137s-1.145,3.216-1.656,4.138Z" transform="translate(-196.104 -55.352)" fill="#fffaf4" fill-rule="evenodd"></path><path d="M326.791,89.107l-2.661,0L325.64,77.9l2.641,0Z" transform="translate(-230.381 -55.368)" fill="#fffaf4" fill-rule="evenodd"></path><path d="M357.252,80.31a5.253,5.253,0,0,0-2.6-.959,1.047,1.047,0,0,0-1.171.941c0,.473.34.921,1.393,1.708C356.5,83.2,357,84.21,357,85.385a3.457,3.457,0,0,1-1.034,2.557,3.331,3.331,0,0,1-2.613,1.023,7.108,7.108,0,0,1-3.925-1.13l.549-2.339a9.452,9.452,0,0,0,1.162.7,3.483,3.483,0,0,0,1.8.551c.969,0,1.361-.585,1.361-1.09,0-.544-.471-1.143-1.656-2.054a3.948,3.948,0,0,1-1.843-3.241,3.487,3.487,0,0,1,3.712-3.239,6.932,6.932,0,0,1,3.066.906Z" transform="translate(-248.359 -54.817)" fill="#fffaf4" fill-rule="evenodd"></path><path d="M396.544,80.309a5.378,5.378,0,0,0-2.6-.955,1.045,1.045,0,0,0-1.168.939c0,.479.341.93,1.384,1.717,1.626,1.205,2.137,2.211,2.135,3.37a3.484,3.484,0,0,1-1.04,2.574,3.329,3.329,0,0,1-2.612,1.015,7.175,7.175,0,0,1-3.928-1.127l.543-2.329a8.592,8.592,0,0,0,1.169.692,3.588,3.588,0,0,0,1.8.559c.97,0,1.353-.582,1.348-1.092,0-.547-.459-1.144-1.637-2.053a3.956,3.956,0,0,1-1.857-3.25,3.481,3.481,0,0,1,3.717-3.225,6.911,6.911,0,0,1,3.067.89Z" transform="translate(-276.287 -54.83)" fill="#fffaf4" fill-rule="evenodd"></path><path d="M438.2,80.157l-4.426,0-.283,1.955,4.077-.009-.319,2.376h-4.076l-.291,2.244h5.388l-.33,2.345h-8.074l1.519-11.242,7.115-.008Z" transform="translate(-305.533 -55.314)" fill="#fffaf4" fill-rule="evenodd"></path><path d="M564.769,80.156l-4.427,0-.264,1.953h4.071l-.333,2.367-4.07,0-.3,2.238h5.4l-.339,2.347-8.066,0,1.53-11.251,7.105,0Z" transform="translate(-395.498 -55.314)" fill="#fffaf4" fill-rule="evenodd"></path><path d="M846.019,80.14l-4.43,0-.27,1.952,4.066,0-.32,2.378-4.073,0-.3,2.239h5.394l-.33,2.344-8.071,0,1.529-11.248h7.1Z" transform="translate(-595.398 -55.304)" fill="#fffaf4" fill-rule="evenodd"></path><path d="M645.8,89.1h-2.706l-.331-2.019h-3.194l-.886,2.021h-2.726l5.086-11.234h2.7Zm-3.267-4.051a30.138,30.138,0,0,1-.516-4.137s-1.148,3.213-1.662,4.135Z" transform="translate(-452.016 -55.346)" fill="#fffaf4" fill-rule="evenodd"></path><path d="M496.29,77.869c2.3,0,2.805.175,3.7.646a5.074,5.074,0,0,1,2.67,4.786,5.262,5.262,0,0,1-5.09,5.78c-.263.014-1.793.022-1.793.022l-3.654-.028,1.515-11.2Zm-1.205,8.9H496.3a3.787,3.787,0,0,0,2.725-.941,3.393,3.393,0,0,0,.866-2.507,2.914,2.914,0,0,0-.759-2.152,3.041,3.041,0,0,0-2.379-.837l-.756,0Z" transform="translate(-349.786 -55.347)" fill="#fffaf4" fill-rule="evenodd"></path><path d="M539.8,77.819l-1.4,2.964h1.617l3.009-2.958Z" transform="translate(-382.677 -55.311)" fill="#fffaf4" fill-rule="evenodd"></path><path d="M604.974,77.83l1.16,0a3.4,3.4,0,0,1,3.648,3.311,3.566,3.566,0,0,1-3.751,3.718l-1.112,0-.568,0-.577,4.192-2.69,0,1.536-11.224Zm-.344,5.025h.358a2.461,2.461,0,0,0,1.194-.208,1.426,1.426,0,0,0,.827-1.265,1.12,1.12,0,0,0-.372-.922,1.689,1.689,0,0,0-1.339-.4l-.28,0Z" transform="translate(-427.23 -55.315)" fill="#fffaf4" fill-rule="evenodd"></path><path d="M687.732,77.841l1.006,0a3.242,3.242,0,0,1,3.469,3.3,2.963,2.963,0,0,1-1.112,2.41,4.317,4.317,0,0,1-1,.532l-.075.022a4.466,4.466,0,0,1,1.558,2.082L693,89.064h-2.966l-1.116-2.336c-.707-1.512-.941-1.894-1.494-2.143a1.1,1.1,0,0,0-.5-.109h-.176l-.6,4.594h-2.62l1.505-11.231Zm-.717,4.717h.554a2.727,2.727,0,0,0,1.281-.213,1.356,1.356,0,0,0,.678-1.1,1.191,1.191,0,0,0-.376-.844,2.077,2.077,0,0,0-1.466-.412h-.336Z" transform="translate(-485.823 -55.325)" fill="#fffaf4" fill-rule="evenodd"></path><path d="M739.406,79.811a11.013,11.013,0,0,0-2.513-.308c-4.337,0-5.463,2.448-5.464,3.894,0,1.98,1.543,3.053,3.6,3.053a3.5,3.5,0,0,0,.941-.1l.249-1.8-2.176.008.3-2.112,4.751,0-.827,5.993a16.093,16.093,0,0,1-3.236.327,6.477,6.477,0,0,1-4.914-1.669,4.6,4.6,0,0,1-1.431-3.622c0-3.759,3.026-6.43,7.88-6.429a9.865,9.865,0,0,1,3.189.389Z" transform="translate(-517.926 -54.762)" fill="#fffaf4" fill-rule="evenodd"></path><path d="M785.886,83.753l-.664,5.311-2.577,0,1.49-11.206,2.532,0,2.773,4.995,1.124,2.353.2-2.191.673-5.153,2.577,0L792.5,89.069l-2.511,0-2.622-4.925L786.1,81.5Z" transform="translate(-556.277 -55.341)" fill="#fffaf4" fill-rule="evenodd"></path><path d="M233.067,125.734l182.267-.006-.994,1.564-182.253.019Z" transform="translate(-164.959 -89.363)" fill="#fffaf4" fill-rule="evenodd"></path><path d="M230.61,155.813h2.525a3.714,3.714,0,0,1,2.913,1.121,4.158,4.158,0,0,1,1.009,2.892,4.5,4.5,0,0,1-1.031,3.029,3.229,3.229,0,0,1-2.553,1.2h-3.923Zm1.437,1.387-.7,5.485h1.511a2.277,2.277,0,0,0,1.86-.812,3.134,3.134,0,0,0,.669-2.067,2.616,2.616,0,0,0-.691-1.882,2.461,2.461,0,0,0-1.872-.725Z" transform="translate(-163.155 -110.747)" fill="#fffaf4"></path><path d="M261.6,158.94l.168-.739a1.276,1.276,0,0,0,.958-.872,1.017,1.017,0,0,1-.534-.916.952.952,0,0,1,.271-.687.885.885,0,0,1,.665-.28.952.952,0,0,1,.754.372,1.348,1.348,0,0,1,.312.9,2.059,2.059,0,0,1-.726,1.555,2.653,2.653,0,0,1-1.869.67" transform="translate(-185.933 -110.486)" fill="#fffaf4"></path><path d="M277.046,155.445l1.336,8.352h-1.656l-.238-1.8h-2.362l-.74,1.8h-1.778l3.729-8.352Zm-2.454,5.377h1.759l-.4-3.648Z" transform="translate(-193.05 -110.485)" fill="#fffaf4"></path><path d="M308.375,155.813l-.672,5.141q-.415,3.212-3.5,3.213a3.579,3.579,0,0,1-2.5-.795,2.841,2.841,0,0,1-.869-2.211,5.377,5.377,0,0,1,.042-.655l.627-4.693h1.616l-.616,4.67a4.113,4.113,0,0,0-.027.442,1.647,1.647,0,0,0,.479,1.285,1.783,1.783,0,0,0,1.246.434,1.816,1.816,0,0,0,1.284-.47,2.163,2.163,0,0,0,.62-1.365l.647-4.995Z" transform="translate(-213.827 -110.747)" fill="#fffaf4"></path><path d="M338.367,155.813l-3.712,8.354h-.785l-1.592-8.354h1.54l.847,4.852,2.041-4.852Z" transform="translate(-236.171 -110.746)" fill="#fffaf4"></path><path d="M361.435,155.813l-.179,1.387h-3.13l-.252,1.936h2.751l-.18,1.387h-2.751l-.281,2.162h3.947l-.179,1.375h-5.561l1.071-8.247Z" transform="translate(-252.762 -110.746)" fill="#fffaf4"></path><path d="M382.064,155.813h2.6a2.431,2.431,0,0,1,1.891.734,2.5,2.5,0,0,1,.672,1.745,2.278,2.278,0,0,1-.437,1.4,2.029,2.029,0,0,1-1.255.756v.023a1.746,1.746,0,0,1,.8.967l1.171,2.622h-1.784L385,162.391a5.644,5.644,0,0,0-.749-1.389,1.153,1.153,0,0,0-.863-.279h-.342l-.426,3.336H381Zm1.431,1.387-.288,2.242h.8a1.742,1.742,0,0,0,1.143-.338,1.066,1.066,0,0,0,.409-.857.946.946,0,0,0-.337-.768,1.432,1.432,0,0,0-.94-.28Z" transform="translate(-270.803 -110.747)" fill="#fffaf4"></path><path d="M416.646,155.744l-.185,1.523a7.168,7.168,0,0,0-2.019-.3,4.138,4.138,0,0,0-2.743.88,2.822,2.822,0,0,0-1.054,2.272,2.142,2.142,0,0,0,.656,1.663,2.5,2.5,0,0,0,1.76.6,4.276,4.276,0,0,0,1.137-.154l.19-1.463H413l.163-1.3h3l-.541,4.2a9.4,9.4,0,0,1-2.361.243,4.484,4.484,0,0,1-3.177-1.04,3.5,3.5,0,0,1-1.115-2.679,4.485,4.485,0,0,1,1.446-3.348,5.56,5.56,0,0,1,4.028-1.393,7.284,7.284,0,0,1,2.2.3" transform="translate(-290.681 -110.483)" fill="#fffaf4"></path><path d="M448.253,155.813l-1.057,8.247h-1.536l-3.143-5.584-.714,5.584h-1.617l1.073-8.247h1.616l3.085,5.382.679-5.382Z" transform="translate(-312.869 -110.746)" fill="#fffaf4"></path><path d="M478.936,155.813l-.179,1.387h-3.13l-.252,1.936h2.751l-.18,1.387H475.2l-.281,2.162h3.945l-.179,1.375H473.12l1.071-8.247Z" transform="translate(-336.277 -110.746)" fill="#fffaf4"></path><path d="M517.879,155.813l-.18,1.387H514.57l-.252,1.936h2.751l-.18,1.387h-2.751l-.28,2.162H517.8l-.18,1.375h-5.559l1.071-8.247Z" transform="translate(-363.957 -110.746)" fill="#fffaf4"></path><path d="M545.047,155.813l-.179,1.387H542.4l-.893,6.859h-1.616l.893-6.859h-2.409l.177-1.387Z" transform="translate(-382.657 -110.746)" fill="#fffaf4"></path><path d="M578.768,155.813h2.524a3.713,3.713,0,0,1,2.913,1.121,4.157,4.157,0,0,1,1.011,2.892,4.5,4.5,0,0,1-1.031,3.029,3.233,3.233,0,0,1-2.555,1.2h-3.924ZM580.2,157.2l-.7,5.485h1.511a2.275,2.275,0,0,0,1.859-.812,3.136,3.136,0,0,0,.67-2.067,2.616,2.616,0,0,0-.692-1.882,2.459,2.459,0,0,0-1.87-.725Z" transform="translate(-410.613 -110.747)" fill="#fffaf4"></path><path d="M618.207,155.813l-.673,5.141q-.413,3.212-3.5,3.213a3.579,3.579,0,0,1-2.5-.795,2.842,2.842,0,0,1-.871-2.211,5.138,5.138,0,0,1,.045-.655l.625-4.693h1.616l-.616,4.67a4.113,4.113,0,0,0-.027.442,1.647,1.647,0,0,0,.479,1.285,1.785,1.785,0,0,0,1.246.434,1.818,1.818,0,0,0,1.284-.47,2.165,2.165,0,0,0,.62-1.365l.647-4.995Z" transform="translate(-434.044 -110.747)" fill="#fffaf4"></path><path d="M657.5,155.813l-.882,6.872h3.456l-.179,1.375h-5.071l1.073-8.247Z" transform="translate(-465.427 -110.746)" fill="#fffaf4"></path><path d="M681.036,155.813l-1.072,8.247h-1.616l1.072-8.247Z" transform="translate(-482.147 -110.746)" fill="#fffaf4"></path><path d="M700.382,155.813l.358,8.247h-1.568l-.252-5.574-2.82,5.574h-.768l-1.357-5.732-1.725,5.732h-1.625l2.485-8.247h1.767L696.1,161l2.563-5.191Z" transform="translate(-490.873 -110.746)" fill="#fffaf4"></path><path d="M737.336,155.447a3.638,3.638,0,0,1,2.7,1.05,3.682,3.682,0,0,1,1.045,2.71,4.741,4.741,0,0,1-1.23,3.39,4.128,4.128,0,0,1-3.149,1.309,3.7,3.7,0,0,1-3.83-3.832,4.578,4.578,0,0,1,1.271-3.309,4.25,4.25,0,0,1,3.2-1.319m-.627,6.936a2.453,2.453,0,0,0,1.911-.891,3.155,3.155,0,0,0,.787-2.166,2.387,2.387,0,0,0-.617-1.689,2.04,2.04,0,0,0-1.564-.667,2.452,2.452,0,0,0-1.892.891,3.091,3.091,0,0,0-.795,2.132,2.461,2.461,0,0,0,.606,1.723,2.02,2.02,0,0,0,1.564.667" transform="translate(-520.897 -110.486)" fill="#fffaf4"></path><path d="M775.837,155.813l-.673,5.141q-.413,3.212-3.5,3.213a3.579,3.579,0,0,1-2.5-.795,2.842,2.842,0,0,1-.871-2.211,5.361,5.361,0,0,1,.044-.655l.627-4.693h1.616l-.616,4.67a4.113,4.113,0,0,0-.027.442,1.647,1.647,0,0,0,.479,1.285,1.783,1.783,0,0,0,1.246.434,1.818,1.818,0,0,0,1.284-.47,2.165,2.165,0,0,0,.619-1.365l.648-4.995Z" transform="translate(-546.082 -110.747)" fill="#fffaf4"></path><path d="M803.32,156.093l-.222,1.453a3.6,3.6,0,0,0-.945-.523,2.665,2.665,0,0,0-.938-.2,1.142,1.142,0,0,0-.762.257.815.815,0,0,0-.3.653.823.823,0,0,0,.171.476,5.058,5.058,0,0,0,1.082.829,3.591,3.591,0,0,1,1.227,1.159,2.415,2.415,0,0,1,.317,1.183,2.425,2.425,0,0,1-2.575,2.527,4.3,4.3,0,0,1-2.585-.785l.246-1.434a4.346,4.346,0,0,0,1.092.611,2.987,2.987,0,0,0,1.059.233,1.191,1.191,0,0,0,.793-.252.815.815,0,0,0,.3-.658,1.026,1.026,0,0,0-.193-.572,4.651,4.651,0,0,0-1.109-.9,3.729,3.729,0,0,1-1.207-1.134,2.2,2.2,0,0,1-.288-1.075,2.333,2.333,0,0,1,.762-1.776,2.675,2.675,0,0,1,1.91-.715,3.991,3.991,0,0,1,2.171.65" transform="translate(-567.039 -110.484)" fill="#fffaf4"></path><path d="M824.7,155.813l-1.072,8.247h-1.616l1.072-8.247Z" transform="translate(-584.258 -110.746)" fill="#fffaf4"></path><path d="M844.516,155.813l-1.057,8.247h-1.536l-3.143-5.584-.714,5.584h-1.617l1.072-8.247h1.617l3.085,5.382.68-5.382Z" transform="translate(-594.519 -110.746)" fill="#fffaf4"></path></g></g></g></svg>