<svg xmlns="http://www.w3.org/2000/svg" xmlns:xlink="http://www.w3.org/1999/xlink" width="304" height="200" viewBox="0 0 304 200"><defs><clipPath id="clip-path"><rect id="Rectangle_86" data-name="Rectangle 86" width="214.974" height="65.27" fill="#f7f4f6"></rect></clipPath></defs><g id="Groupe_1268" data-name="Groupe 1268" transform="translate(-808 -486)"><g id="Groupe_214" data-name="Groupe 214" transform="translate(-608 -45)"><g id="Groupe_177" data-name="Groupe 177" transform="translate(912 -4668)"><rect id="Rectangle_44" data-name="Rectangle 44" width="304" height="200" transform="translate(504 5199)" fill="none"></rect></g></g><g id="Groupe_215" data-name="Groupe 215" transform="translate(852.513 553.362)"><g id="Groupe_212" data-name="Groupe 212" transform="translate(0 0.002)"><g id="Groupe_211" data-name="Groupe 211" clip-path="url(#clip-path)"><path id="Trac&#xE9;_405" data-name="Trac&#xE9; 405" d="M1344.325,377.029a.174.174,0,0,0-.2-.2h-5.008a.311.311,0,0,1-.327-.293c0-.012,0-.023,0-.035v-2.923a.311.311,0,0,1,.292-.328h14.8a.309.309,0,0,1,.328.289.364.364,0,0,1,0,.04V376.5a.311.311,0,0,1-.292.328h-5.039a.174.174,0,0,0-.2.148.185.185,0,0,0,0,.048v18.2a.309.309,0,0,1-.289.329h-3.746a.311.311,0,0,1-.328-.292.264.264,0,0,1,0-.037Zm-6.5,18.113-6.712-11.5,5.776-9.989c.085-.178-.062-.4-.318-.4h-3.792a.6.6,0,0,0-.549.4l-3.456,6.018-3.538-6.01a.7.7,0,0,0-.681-.406h-3.846a.27.27,0,0,0-.3.234.274.274,0,0,0,.04.18l5.761,9.945-6.471,11.542c-.109.208-.007.4.217.4h3.923c.278,0,.415-.1.58-.4l4.149-7.442,4.393,7.433c.2.327.348.4.595.4h3.984a.263.263,0,0,0,.248-.412m-32.948-21.556a.309.309,0,0,1,.288-.329h12.028a.309.309,0,0,1,.329.329V376.5a.309.309,0,0,1-.289.328h-7.77a.174.174,0,0,0-.2.148.17.17,0,0,0,0,.05v5.181a.174.174,0,0,0,.148.2.179.179,0,0,0,.048,0h6.593a.309.309,0,0,1,.328.289.287.287,0,0,1,0,.038v2.721a.309.309,0,0,1-.29.327h-6.63a.174.174,0,0,0-.2.148.178.178,0,0,0,0,.05v5.738a.174.174,0,0,0,.147.2.172.172,0,0,0,.05,0h8a.311.311,0,0,1,.329.292.366.366,0,0,1,0,.038v2.982a.311.311,0,0,1-.292.329h-12.3a.309.309,0,0,1-.329-.289.362.362,0,0,1,0-.04Zm-9.642,21.972c-.262,0-.361-.131-.459-.4l-5.936-16.066c-.168-.43-.261-.656-.459-.656s-.23.064-.23.623v16.167a.311.311,0,0,1-.292.329h-3.181a.311.311,0,0,1-.328-.329v-21.65a.311.311,0,0,1,.292-.329h5.644c.229,0,.328.165.427.393l5.573,15.513c.165.492.229.523.392.523s.231-.065.231-.326V373.582a.309.309,0,0,1,.289-.328h3.281a.309.309,0,0,1,.328.289.273.273,0,0,1,0,.04v21.644a.311.311,0,0,1-.292.329h-.037Zm-26.3-4.1c.525.721,1.444.819,3.122.819,1.738,0,2.622-.1,3.148-.819.721-1.017,1.05-3.935,1.05-7.051,0-3.149-.329-6.033-1.05-7.051-.525-.721-1.409-.819-3.082-.819-1.738,0-2.657.1-3.18.819-.721,1.017-1.051,3.9-1.051,7.051,0,3.122.33,6.034,1.051,7.051m9.641,2.359c-1.377,1.635-3.378,2.066-6.561,2.066s-5.08-.425-6.492-2.066c-1.409-1.705-2.2-5.246-2.2-9.412s.788-7.705,2.2-9.41c1.411-1.635,3.41-2.066,6.592-2.066s5.083.427,6.461,2.066c1.443,1.705,2.23,5.246,2.23,9.41s-.786,7.705-2.23,9.412m-23.151-13.677c0-2.952-.788-3.7-3.739-3.7h-1.6c-.361,0-.427.064-.427.2v7.284c0,.165.067.232.229.263h1.794c2.825,0,3.739-1.115,3.739-4.033m-2.493,7.609c-.262-.492-.329-.595-.525-.624h-2.489c-.164,0-.262.067-.262.229v7.87a.311.311,0,0,1-.292.329h-3.741a.309.309,0,0,1-.329-.329V373.582a.309.309,0,0,1,.289-.329h6.889c4.983,0,7.51,1.672,7.51,6.165,0,2.949-.623,4.723-2.887,6.033-.229.2-.329.327-.329.461a2.657,2.657,0,0,0,.525,1.279l4.362,8.028c.1.163.1.329-.164.329h-4.36c-.2,0-.3-.065-.394-.3Zm-11.771,2.786c0,3.543-3.247,5.352-8,5.352-5.41,0-7.936-1.8-7.936-5.352V373.591a.311.311,0,0,1,.292-.329h3.741a.309.309,0,0,1,.328.289.363.363,0,0,1,0,.04v15.666c0,2.557,1.672,2.952,3.641,2.952s3.607-.4,3.607-2.985V373.582a.309.309,0,0,1,.288-.329h3.712a.309.309,0,0,1,.328.289.364.364,0,0,1,0,.04Zm-32.495-16.947a.309.309,0,0,1,.289-.328h12.029a.309.309,0,0,1,.326.292.284.284,0,0,1,0,.037v2.92a.308.308,0,0,1-.287.327h-7.769a.174.174,0,0,0-.2.146.181.181,0,0,0,0,.051v5.182a.174.174,0,0,0,.2.2h6.59a.309.309,0,0,1,.328.289.269.269,0,0,1,0,.038v2.722a.309.309,0,0,1-.29.327h-6.629a.174.174,0,0,0-.2.146.181.181,0,0,0,0,.051v5.74a.174.174,0,0,0,.148.2.176.176,0,0,0,.05,0h8a.309.309,0,0,1,.328.289.273.273,0,0,1,0,.04v2.984a.309.309,0,0,1-.289.329h-12.306a.311.311,0,0,1-.327-.293q0-.018,0-.035Z" transform="translate(-1139.241 -351.508)" fill="#f7f4f6"></path></g></g><rect id="Rectangle_87" data-name="Rectangle 87" width="4.486" height="15.867" transform="translate(0 22.416)" fill="#f7f4f6"></rect><rect id="Rectangle_88" data-name="Rectangle 88" width="4.486" height="12.266" transform="translate(0 39.91)" fill="#f7f4f6"></rect><rect id="Rectangle_89" data-name="Rectangle 89" width="4.583" height="17.752" transform="translate(6.114 9.356)" fill="#f7f4f6"></rect><rect id="Rectangle_90" data-name="Rectangle 90" width="4.583" height="20.592" transform="translate(6.114 28.737)" fill="#f7f4f6"></rect><rect id="Rectangle_91" data-name="Rectangle 91" width="4.519" height="19.275" transform="translate(12.326 12.586)" fill="#f7f4f6"></rect><rect id="Rectangle_92" data-name="Rectangle 92" width="4.519" height="22.842" transform="translate(12.326 33.491)" fill="#f7f4f6"></rect><rect id="Rectangle_93" data-name="Rectangle 93" width="7.748" height="20.65" transform="translate(18.473 0.002)" fill="#f7f4f6"></rect><rect id="Rectangle_94" data-name="Rectangle 94" width="7.748" height="39.134" transform="translate(18.473 22.28)" fill="#f7f4f6"></rect><rect id="Rectangle_95" data-name="Rectangle 95" width="4.534" height="27.198" transform="translate(27.849 11.001)" fill="#f7f4f6"></rect><rect id="Rectangle_96" data-name="Rectangle 96" width="4.534" height="25.443" transform="translate(27.85 39.829)" fill="#f7f4f6"></rect><rect id="Rectangle_97" data-name="Rectangle 97" width="7.741" height="23.856" transform="translate(34.011 5.455)" fill="#f7f4f6"></rect><rect id="Rectangle_98" data-name="Rectangle 98" width="7.741" height="25.981" transform="translate(34.011 30.94)" fill="#f7f4f6"></rect><rect id="Rectangle_99" data-name="Rectangle 99" width="4.537" height="12.205" transform="translate(43.38 22.405)" fill="#f7f4f6"></rect><rect id="Rectangle_100" data-name="Rectangle 100" width="4.537" height="13.088" transform="translate(43.38 36.238)" fill="#f7f4f6"></rect><rect id="Rectangle_101" data-name="Rectangle 101" width="4.531" height="11.001" transform="translate(49.545 18.31)" fill="#f7f4f6"></rect><rect id="Rectangle_102" data-name="Rectangle 102" width="4.531" height="13.037" transform="translate(49.545 30.939)" fill="#f7f4f6"></rect></g></g></svg>