<svg xmlns="http://www.w3.org/2000/svg" width="304" height="200" viewBox="0 0 304 200"><g transform="translate(-200 -5401)"><rect width="304" height="200" transform="translate(200 5401)" fill="none"></rect><g transform="translate(388.8 5430.599)"><path d="M91,91H8.226A8.213,8.213,0,0,1,0,82.773V8.226A8.213,8.213,0,0,1,8.226,0H20.566L35.745,26.245,53.836,15.816,50.377,9.846,38.966,16.435,29.466,0H82.774A8.213,8.213,0,0,1,91,8.226V12.7a3.932,3.932,0,0,0-1.363-.233,7.69,7.69,0,0,0-3.151.833l-2.548,1.183a5.586,5.586,0,0,1-2.254.611,2.151,2.151,0,0,1-1.2-.333,2.78,2.78,0,0,1-.894-1.006,3.224,3.224,0,0,1-.443-1.336,2.652,2.652,0,0,1,.218-1.287,5.306,5.306,0,0,1,2.355-2.309,8.229,8.229,0,0,1,4.107-1.173,7.115,7.115,0,0,1,.789.044,10,10,0,0,0,.619-1.8,7.365,7.365,0,0,0-1.505-.152,10.131,10.131,0,0,0-4.956,1.426,8.878,8.878,0,0,0-2.337,1.856,5.571,5.571,0,0,0-1.21,2.182A4.462,4.462,0,0,0,77.1,13a4.952,4.952,0,0,0,.628,1.793,4.7,4.7,0,0,0,1.573,1.721,3.937,3.937,0,0,0,2.113.574,8.043,8.043,0,0,0,3.338-.876L87.4,15a5.031,5.031,0,0,1,2.036-.532A2.159,2.159,0,0,1,90.909,15l.091.091v4.86a17.385,17.385,0,0,0-2.184,1.4,8.272,8.272,0,0,1-4.09,1.237,6.3,6.3,0,0,1-1.825-.272,8.057,8.057,0,0,0-.673,1.838,8.17,8.17,0,0,0,2.485.394,8.427,8.427,0,0,0,2.515-.4,12.937,12.937,0,0,0,2.608-1.163L91,22.259V91ZM25.4,39.9h0a7.637,7.637,0,0,0-5.837,3.046A6.126,6.126,0,0,0,18.5,45.623a8.306,8.306,0,0,0,.2,3.189,13.949,13.949,0,0,0,1.481,3.568,12.425,12.425,0,0,0,3.326,3.945,6.5,6.5,0,0,0,3.876,1.327,7.886,7.886,0,0,0,3.9-1.141,10.366,10.366,0,0,0,1.691-1.19,7.339,7.339,0,0,0,1.176-1.3A9.334,9.334,0,0,0,35.49,50.96a7.335,7.335,0,0,0-1.856-.455,8.7,8.7,0,0,1-1.249,2.571,6.319,6.319,0,0,1-1.972,1.67,5.7,5.7,0,0,1-2.846.846,4.427,4.427,0,0,1-1.159-.155,5.322,5.322,0,0,1-2.159-1.242,10.572,10.572,0,0,1-1.9-2.416c.242-.136,7.237-4.143,10.233-5.86l.159-.091v-.055a3.139,3.139,0,0,0-.364-.892,11.489,11.489,0,0,0-3.209-3.717A6.443,6.443,0,0,0,25.4,39.9Zm4.334-3.118a16.6,16.6,0,0,0-1.94,1h0c-.018.253,14.054,12.111,14.2,12.23h.005a14.663,14.663,0,0,0,1.741-.892h0l.091-.055L40.659,30.631a.1.1,0,0,0-.045-.008,10.092,10.092,0,0,0-1.939.918c0,.487,2.459,13.4,2.893,15.616-.628-.538-11.718-10.276-11.83-10.374Zm19.983-10.8a7.132,7.132,0,0,0-3.543,1.01,6.491,6.491,0,0,0-3.2,3.949,7.606,7.606,0,0,0-.048,3.524A13.417,13.417,0,0,0,44.5,38.438c1.6,2.789,3.484,4.5,5.587,5.078a5.983,5.983,0,0,0,1.579.211A7.955,7.955,0,0,0,55.6,42.57a10.378,10.378,0,0,0,1.691-1.19,7.341,7.341,0,0,0,1.176-1.3,9.333,9.333,0,0,0,1.338-3.062,8.121,8.121,0,0,0-1.856-.437A6.513,6.513,0,0,1,54.727,40.8a5.623,5.623,0,0,1-2.808.827,4.756,4.756,0,0,1-2.816-.961,9.2,9.2,0,0,1-2.439-2.833c.307-.181,10.292-5.894,10.392-5.951V31.85a3.1,3.1,0,0,0-.364-.892,11.439,11.439,0,0,0-3.2-3.712A6.452,6.452,0,0,0,49.716,25.981Zm6.446-4.307a10.957,10.957,0,0,0-1.78.857c-.055.2,8.539,15.228,8.626,15.379l.021,0a11.177,11.177,0,0,0,1.8-.857h0c.053-.2-5.113-9.225-5.333-9.61a6.772,6.772,0,0,1-.791-2.028,4.284,4.284,0,0,1,.018-1.842,3.973,3.973,0,0,1,.809-1.6,5.735,5.735,0,0,1,1.584-1.3,5.181,5.181,0,0,1,2.548-.756,3.773,3.773,0,0,1,2.2.712,6.422,6.422,0,0,1,1.824,2.12l5.46,9.537,1.729-1c.053-.2-5.269-9.5-5.5-9.9a7.874,7.874,0,0,0-1.807-2.212A5.8,5.8,0,0,0,65.3,18a5.592,5.592,0,0,0-1.385-.174,7.169,7.169,0,0,0-3.565,1.047,6.616,6.616,0,0,0-3.367,4.55,8.582,8.582,0,0,0-.8-1.747ZM13.948,4.167A13.312,13.312,0,0,0,7.316,6.115a12.55,12.55,0,0,0-3.808,3.24,11.726,11.726,0,0,0-1.979,4.168,9.412,9.412,0,0,0-.313,3.142,11.453,11.453,0,0,0,.627,2.968,33.524,33.524,0,0,0,2.9,5.778l.022.038.241.414.22.38.049.085h0a33.769,33.769,0,0,0,3.57,5.377A11.578,11.578,0,0,0,11.1,33.728a9.52,9.52,0,0,0,2.874,1.306,12.376,12.376,0,0,0,3.189.437h0a11.213,11.213,0,0,0,3.043-.425A13.685,13.685,0,0,0,23.3,33.725a17.614,17.614,0,0,0,2.087-1.383,11.908,11.908,0,0,0,1.751-1.656,10.851,10.851,0,0,0,2.3-4.568,9.8,9.8,0,0,0,.016-4.9,15.851,15.851,0,0,0-.935-2.676,32.227,32.227,0,0,0-1.574-3.048L24.752,11.7,14.1,17.836l3.221,5.569,4-2.311.218.382a5.9,5.9,0,0,1,.676,1.686,3.769,3.769,0,0,1-.02,1.809,4.525,4.525,0,0,1-2.366,2.785,4.231,4.231,0,0,1-2.109.609,3.068,3.068,0,0,1-1.186-.227,4.221,4.221,0,0,1-1.763-1.374A36,36,0,0,1,11.666,22,34.638,34.638,0,0,1,9.1,16.956a5.63,5.63,0,0,1-.321-1.276,3.759,3.759,0,0,1,.017-.919,3.416,3.416,0,0,1,.564-1.445,4.185,4.185,0,0,1,1.383-1.267,5.051,5.051,0,0,1,2.513-.8,4.428,4.428,0,0,1,3.148,1.6l6.734-3.84a14.559,14.559,0,0,0-1.781-1.895,12.629,12.629,0,0,0-2.142-1.538A10.563,10.563,0,0,0,13.948,4.167Zm56.1,11.34h0c0,.293,5.477,9.841,5.533,9.937a4.484,4.484,0,0,0,3.843,2.582h0a4.64,4.64,0,0,0,2.289-.652l1.383-.8a7.555,7.555,0,0,0-.764-1.62.114.114,0,0,0-.029,0,6.062,6.062,0,0,0-1.281.586,2.865,2.865,0,0,1-1.411.432,2.565,2.565,0,0,1-2.156-1.56l0,0c-.232-.405-5.677-9.925-5.748-10.024a.023.023,0,0,0,.018.005,35.8,35.8,0,0,0,3.348-1.771,5.592,5.592,0,0,0-.636-1.4h-.01a27.66,27.66,0,0,0-3.508,1.843l-.122.069c0-.267-2.479-4.6-2.584-4.787l-.018,0a11.973,11.973,0,0,0-1.746.857h0v0a47.881,47.881,0,0,0,2.617,4.875l.095.167a.031.031,0,0,0-.025-.008,15.06,15.06,0,0,0-1.995,1.008h0a5.965,5.965,0,0,0,.637,1.4l.016,0a17,17,0,0,0,2.258-1.13ZM21.294,50.3h0a11.8,11.8,0,0,1-.874-3.057,4.653,4.653,0,0,1,.482-2.664,4.835,4.835,0,0,1,1.9-2,4.929,4.929,0,0,1,2.434-.653,4.617,4.617,0,0,1,1.467.237,4.445,4.445,0,0,1,1.322.707,7.958,7.958,0,0,1,2.147,2.511l-.007,0c-.3,0-8.788,4.867-8.874,4.916ZM45.609,36.364h0a11.478,11.478,0,0,1-.874-3.057,4.521,4.521,0,0,1,.478-2.657,4.94,4.94,0,0,1,4.353-2.655,4.619,4.619,0,0,1,1.465.237,4.54,4.54,0,0,1,1.33.708,7.965,7.965,0,0,1,2.129,2.511l-.007,0c-.292,0-8.52,4.714-8.871,4.914l0,0Z" transform="translate(-81.8 25.401)" fill="#f7f4f6"></path></g></g></svg>