<svg xmlns="http://www.w3.org/2000/svg" width="304" height="200" viewBox="0 0 304 200"><g id="Groupe_1515" data-name="Groupe 1515" transform="translate(-1112 -8091)"><g id="Groupe_1271" data-name="Groupe 1271" transform="translate(-12761 8581)"><rect id="Rectangle_44" data-name="Rectangle 44" width="304" height="200" transform="translate(13873 -490)" fill="none"></rect><g id="axa-health-1" transform="translate(13971.668 -440)"><path id="Soustraction_3" data-name="Soustraction 3" d="M106.665,100v0H0V0H99.221L58.449,54.107h6.2L105.426,0h1.239V100ZM50.232,88.837v0l1.395,4.647h8.527a29.261,29.261,0,0,1-1.86-4.65l-2.48-7.288,2.635-3.566H73.333l3.411,10.7,0,.015a25.284,25.284,0,0,1,1.081,4.635h8.837a20.845,20.845,0,0,1-1.86-4.65L75.658,59.535a22.583,22.583,0,0,1-.62-3.411H67.907l-.006.018a15.718,15.718,0,0,1-1.08,2.307,8.568,8.568,0,0,0-.93,1.241L53.8,75.5l-1.4-4.652L60.776,59.69a24.36,24.36,0,0,1,3.411-3.566h-7.6a15.832,15.832,0,0,1-2.48,3.721l-3.72,4.961-1.551-4.961-.011-.044a31.61,31.61,0,0,1-.765-3.677H39.379a16.653,16.653,0,0,1,1.4,3.566l4.03,12.558-2.635,3.411L37.21,59.844a10.447,10.447,0,0,1-.62-3.721H29.457l-.006.018a15.781,15.781,0,0,1-1.078,2.307,3.051,3.051,0,0,1-.5.858c-.1.131-.184.249-.274.383L5.583,88.991a20.611,20.611,0,0,1-4.5,4.5H8.527l11.629-15.5H35.04L36.745,83.1,32.4,88.837a24.132,24.132,0,0,1-3.721,4.185l-.465.465H35.04l3.566-4.65,1.4,4.65h6.821l3.407-4.647Z" transform="translate(0 0)" fill="#f7f4f6"></path><path id="Trac&#xE9;_275" data-name="Trac&#xE9; 275" d="M60.581,41.2l-6.822,9.457h9.767ZM38.256,55.153l-2.481,3.256,1.705,5.116,2.636-3.411ZM22.132,41.2,15,50.657H25.232Z" transform="translate(8.256 22.675)" fill="#f7f4f6" fill-rule="evenodd"></path></g></g></g></svg>