<svg xmlns="http://www.w3.org/2000/svg" width="304" height="200" viewBox="0 0 304 200"><g transform="translate(-13873 490)"><rect width="304" height="200" transform="translate(13873 -490)" fill="none"></rect><g transform="translate(13977 -446.543)"><path d="M94.54,245.018,86.477,231.05H79l13.142,15.661a29.089,29.089,0,0,1,2.4-1.693Z" transform="translate(-62.281 -182.152)" fill="#f7f4f6"></path><path d="M66,248.078,51.709,231.05H47.9v5.67l16.021,13.443Q64.907,249.071,66,248.078Z" transform="translate(-37.763 -182.152)" fill="#f7f4f6"></path><path d="M256.849,241.953l3.968-10.9h-5.033L254,241.2a28.562,28.562,0,0,1,2.849.756Z" transform="translate(-200.245 -182.152)" fill="#f7f4f6"></path><path d="M62.58,283.2,47.92,270.9l.017,7.217,12.969,7.49A29.046,29.046,0,0,1,62.58,283.2Z" transform="translate(-37.779 -213.568)" fill="#f7f4f6"></path><path d="M135.986,242.7l-4.233-11.65H125.87l7.45,12.91A28.631,28.631,0,0,1,135.986,242.7Z" transform="translate(-99.232 -182.152)" fill="#f7f4f6"></path><path d="M56.823,388.553,48,387v4.48h8.573A29.028,29.028,0,0,1,56.823,388.553Z" transform="translate(-37.842 -305.098)" fill="#f7f4f6"></path><path d="M355.61,444.712l4.512,1.642,4.29-2.5a2.475,2.475,0,0,0,.569-.463l-8.6-1.517A28.922,28.922,0,0,1,355.61,444.712Z" transform="translate(-280.351 -348.355)" fill="#f7f4f6"></path><path d="M56.617,418.17H48.05V422.2a2.522,2.522,0,0,0,.044.438l8.783-1.545C56.744,420.132,56.655,419.158,56.617,418.17Z" transform="translate(-37.881 -329.671)" fill="#f7f4f6"></path><path d="M59.9,323.466,48,316.59v5.659l10.666,3.881a28.488,28.488,0,0,1,1.236-2.664Z" transform="translate(-37.842 -249.589)" fill="#f7f4f6"></path><path d="M57.947,357.613,48,354v4.84l9.183,1.619A28.292,28.292,0,0,1,57.947,357.613Z" transform="translate(-37.842 -279.082)" fill="#f7f4f6"></path><path d="M279.523,243.93l7.435-12.88h-5.875l-4.233,11.629A28.7,28.7,0,0,1,279.523,243.93Z" transform="translate(-218.259 -182.152)" fill="#f7f4f6"></path><path d="M171.1,241.158,169.313,231H164.28l3.974,10.92A29.025,29.025,0,0,1,171.1,241.158Z" transform="translate(-129.513 -182.113)" fill="#f7f4f6"></path><path d="M361,421.1l8.889,1.566V418.17H361.26A29.076,29.076,0,0,1,361,421.1Z" transform="translate(-284.6 -329.671)" fill="#f7f4f6"></path><path d="M63.011,441.83l-7.651,1.348,4.683,2.842,3.729-1.359A28.742,28.742,0,0,1,63.011,441.83Z" transform="translate(-43.644 -348.324)" fill="#f7f4f6"></path><path d="M361.07,388.474a29.073,29.073,0,0,1,.25,2.935h8.624v-4.5Z" transform="translate(-284.655 -305.027)" fill="#f7f4f6"></path><path d="M199.958,240.842a28.582,28.582,0,0,1,2.938-.258V231.06H198.24Z" transform="translate(-156.286 -182.16)" fill="#f7f4f6"></path><path d="M345.055,464.68a28.882,28.882,0,0,1-1.9,3.833l4.779-2.789Z" transform="translate(-270.528 -366.338)" fill="#f7f4f6"></path><path d="M88.45,465.379l3.526,2.137a28.721,28.721,0,0,1-1.384-2.916Z" transform="translate(-69.731 -366.275)" fill="#f7f4f6"></path><path d="M347.706,325.956l10.7-3.894V316.39l-11.945,6.9A28.436,28.436,0,0,1,347.706,325.956Z" transform="translate(-273.137 -249.431)" fill="#f7f4f6"></path><path d="M335.175,285.414l13-7.5V270.68L333.49,283A29.022,29.022,0,0,1,335.175,285.414Z" transform="translate(-262.912 -213.395)" fill="#f7f4f6"></path><path d="M319.266,250.135l16.042-13.46V231.05h-3.856l-14.262,17A28.92,28.92,0,0,1,319.266,250.135Z" transform="translate(-250.062 -182.152)" fill="#f7f4f6"></path><path d="M300.568,246.685,313.69,231.05H306.2l-8.042,13.942Q299.4,245.78,300.568,246.685Z" transform="translate(-235.059 -182.152)" fill="#f7f4f6"></path><path d="M356.528,360.3l9.223-1.627V353.82l-9.981,3.636A29.082,29.082,0,0,1,356.528,360.3Z" transform="translate(-280.477 -278.94)" fill="#f7f4f6"></path><path d="M230.24,240.573a29.182,29.182,0,0,1,2.94.252l1.725-9.775h-4.656Z" transform="translate(-181.513 -182.152)" fill="#f7f4f6"></path><path d="M396.265,118.969l0-2.929-1.691,2.929Z" transform="translate(-311.066 -91.482)" fill="#f7f4f6"></path><path d="M289.319,59.124,293.952,46.4,283.62,40.13l-3.35,18.994Z" transform="translate(-220.955 -31.637)" fill="#f7f4f6"></path><path d="M109.509,57.839h9.049L115.147,38.5,104.69,44.6Z" transform="translate(-82.534 -30.352)" fill="#f7f4f6"></path><path d="M47.65,115.56l0,3.031H49.4Z" transform="translate(-37.566 -91.104)" fill="#f7f4f6"></path><path d="M166.92,27.487h8.438V0a2.327,2.327,0,0,0-.241.121L163.31,7.011Z" transform="translate(-128.748)" fill="#f7f4f6"></path><path d="M53.876,84.612H64.321L59.9,72.46l-8.994,5.249a2.438,2.438,0,0,0-.675.58Z" transform="translate(-39.6 -57.125)" fill="#f7f4f6"></path><path d="M230.224,27.692h8.44L242.22,7.521,230.385.347c-.053-.034-.108-.057-.165-.087Z" transform="translate(-181.498 -0.205)" fill="#f7f4f6"></path><path d="M333.67,86.614h10.44l3.325-5.759a2.411,2.411,0,0,0-.379-.288L337.9,75Z" transform="translate(-263.054 -59.127)" fill="#f7f4f6"></path><path d="M136.473,313.536l8.649,4.152c1.767-1.378,5.632-4.182,7.466-5.42v-9.126c-1.748-1.177-5.568-3.977-7.456-5.433a25.884,25.884,0,0,0-10.793,7.219C134.956,307.183,136.033,311.447,136.473,313.536Z" transform="translate(-105.909 -234.704)" fill="#f7f4f6"></path><path d="M230.57,302.865v9.291c1.89,1.285,5.653,4.021,7.371,5.376l8.637-4.146c.442-2.116,1.494-6.478,2.1-8.715a25.856,25.856,0,0,0-10.889-7.21C235.981,298.867,232.384,301.631,230.57,302.865Z" transform="translate(-181.774 -234.507)" fill="#f7f4f6"></path><path d="M196.637,456.4l-5.981-7.951c-2.193.072-6.842.066-9.115-.013l-6.032,8.019c.686,2.087,2.068,6.772,2.66,9.037a25.82,25.82,0,0,0,15.707.025C194.481,463.244,195.952,458.476,196.637,456.4Z" transform="translate(-138.366 -353.535)" fill="#f7f4f6"></path><path d="M108.508,402.515c2.423.015,6.533.142,8.539.273l5.909-7.854c-.749-2.055-2.184-6.482-2.817-8.677l-8.7-4.178c-1.778,1.181-5.926,3.716-7.96,4.878-.034.544-.055,1.092-.055,1.644a25.656,25.656,0,0,0,4.085,13.919Z" transform="translate(-81.533 -301.219)" fill="#f7f4f6"></path><path d="M266.564,382.2l-8.76,4.2c-.622,2.165-2.017,6.457-2.775,8.544L261,402.881c2.025-.131,6.08-.256,8.48-.271.233,0,.671-.03,1.041-.053a25.644,25.644,0,0,0,4.046-13.858c0-.54-.019-1.077-.053-1.611C272.479,385.923,268.357,383.383,266.564,382.2Z" transform="translate(-201.057 -301.314)" fill="#f7f4f6"></path><path d="M11.49,165.186l-.847-6.328-2.914,6.349h-.9l-2.912-6.349-.847,6.324H0L1.661,154.2H4.683l2.588,5.979,2.6-5.979H12.9l1.647,10.986Z" transform="translate(0 -121.566)" fill="#f7f4f6"></path><path d="M78.5,163.4H74.612L74,165.186H70.75L75.065,154.2h2.963l4.415,10.986H79.1Zm-1.953-5.773-1.2,3.405h2.419Z" transform="translate(-55.777 -121.566)" fill="#f7f4f6"></path><path d="M134.043,156.939v1.748h3.53v2.65h-3.53v3.85H131V154.2h6.984v2.739Z" transform="translate(-103.276 -121.566)" fill="#f7f4f6"></path><path d="M171.6,154.2h3.067v10.986H171.6Z" transform="translate(-135.284 -121.566)" fill="#f7f4f6"></path><path d="M198.856,163.4h-3.894l-.609,1.784H191.11l4.315-10.986h2.963l4.41,10.986h-3.337Zm-1.953-5.773-1.2,3.405h2.419Z" transform="translate(-150.665 -121.566)" fill="#f7f4f6"></path><path d="M254.372,156.939v1.748h3.53v2.65h-3.53v3.85H251.32V154.2H258.3v2.739Z" transform="translate(-198.132 -121.566)" fill="#f7f4f6"></path><path d="M294.773,164.43a5.776,5.776,0,1,1,6.034-5.769A5.7,5.7,0,0,1,294.773,164.43Zm0-2.815a2.964,2.964,0,1,0-2.9-2.963A2.821,2.821,0,0,0,294.773,161.616Z" transform="translate(-227.617 -120.533)" fill="#f7f4f6"></path><path d="M356.453,164.43a5.776,5.776,0,1,1,6.034-5.769A5.7,5.7,0,0,1,356.453,164.43Zm0-2.815a2.964,2.964,0,1,0-2.9-2.963A2.821,2.821,0,0,0,356.453,161.616Z" transform="translate(-276.243 -120.533)" fill="#f7f4f6"></path><path d="M418.9,156.926h-2.984v8.254h-3.033v-8.254H409.9V154.2h9.007Z" transform="translate(-323.151 -121.566)" fill="#f7f4f6"></path></g></g></svg>