<svg xmlns="http://www.w3.org/2000/svg" width="81.877" height="81.973" viewBox="0 0 81.877 81.973"><g transform="translate(0.5 0.5)"><rect width="80" height="54.449" fill="none" stroke="#fff" stroke-miterlimit="10" stroke-width="1"></rect><g transform="translate(5.739 9.881)"><path d="M58.232,43.791l-5.544-9.607A6.326,6.326,0,0,1,55,25.544h0a6.323,6.323,0,0,1,8.638,2.315L76.358,49.892a6.327,6.327,0,0,1-2.315,8.641h0A6.323,6.323,0,0,1,65.4,56.218L58.232,43.791" transform="translate(-36.842 -24.695)" fill="none" stroke="#fff" stroke-miterlimit="10" stroke-width="1"></path><path d="M33.7,32.6,20.979,54.636a6.327,6.327,0,0,0,2.315,8.641h0a6.323,6.323,0,0,0,8.639-2.316l7.2-12.471" transform="translate(-17.817 -29.438)" fill="none" stroke="#fff" stroke-miterlimit="10" stroke-width="1"></path><rect width="12.65" height="12.652" rx="6.325" transform="translate(10.953 37.001) rotate(-150)" fill="none" stroke="#fff" stroke-miterlimit="10" stroke-width="1"></rect></g><path d="M119.424,116.976l10.741,33.2,6.309-15.817,15.18-6.943Z" transform="translate(-71.655 -70.171)" fill="#fff" stroke="#fff" stroke-miterlimit="10" stroke-width="1"></path></g></svg>