<svg xmlns="http://www.w3.org/2000/svg" xmlns:xlink="http://www.w3.org/1999/xlink" width="120" height="38.188" viewBox="0 0 120 38.188"><defs><clipPath id="a"><rect width="120" height="38.187" fill="#fff"></rect></clipPath></defs><g clip-path="url(#a)"><path d="M1221.107,100.9h4.772s-.978-.3-.978-3.073V82.118c0-7.287-13.083-9.289-13.479.815,1.443-7.217,10.639-7.845,10.639-1.048V97.808c0,2.77-.954,3.1-.954,3.1" transform="translate(-1105.88 -69.375)" fill="#fff"></path><path d="M776.561,96.591V80.878a6.132,6.132,0,0,0-3.726-5.539,7.8,7.8,0,0,0-4.205-.637,6.221,6.221,0,0,0-3.743,1.93c-.707.725-1.336,1.521-1.991,2.291V74.755L759.1,76.221s.978.466.978,3.259v1.932a15.848,15.848,0,0,1-1.792,1.048c-.535.279-1.094.535-1.653.769v-.675c0-3.515-1.723-7.892-8.986-7.822-4.26.023-8.544,1.49-10.662,5.913l2.491,1.653a8.259,8.259,0,0,1,8.148-6.8c5.378,0,6.146,4.353,6.169,8.031v.629c-9.126,2.491-19.02.326-19.02,8.008v.279c0,2.561,2.072,7.217,9.708,7.217a9.68,9.68,0,0,0,9.335-6.192v3.1c0,2.817,1.769,3.1,3.795,3.1,0,0-.955-.3-.955-3.073,0,0-.023-9.219-.023-12.711a14.477,14.477,0,0,0,1.63-.722,17.553,17.553,0,0,0,4.848-3.706,25.958,25.958,0,0,1,2.68-2.85,5.521,5.521,0,0,1,3.362-1.225c3.023-.054,4.568,2.462,4.568,5.268V96.568c0,2.771-.978,3.1-.978,3.1h4.772s-.954-.3-.954-3.073m-22.768-7.426c-.047,5.308-3.05,9.172-8.707,9.172-4.493,0-7.356-2.282-7.356-6.775,0-6.495,8.241-4.865,16.063-6.8Z" transform="translate(-670.758 -68.135)" fill="#fff"></path><path d="M1014.982,143.964l-.023,13.6c0,2.771-.954,3.1-.954,3.1,2.514,0,3.794-.489,3.794-2.747V141.45a11.652,11.652,0,0,1-2.817,2.514" transform="translate(-925.66 -129.126)" fill="#fff"></path><path d="M672.014,119.21a9.643,9.643,0,0,0-.052-1.022,9.763,9.763,0,0,1,.049,1v1.953l0,0Z" transform="translate(-613.418 -107.891)" fill="#fff"></path><path d="M623.255,143.653l0,17.976c0,5.424-4.447,3.4-4.7,3.282a3.916,3.916,0,0,0,3.678,2.118c1.4,0,3.864-1.141,3.864-5.378l-.021-20.513a11.654,11.654,0,0,1-2.817,2.514" transform="translate(-564.66 -128.842)" fill="#fff"></path><path d="M403.987,97.256s-.023-9.219-.023-12.711a14.481,14.481,0,0,0,1.63-.722,15.494,15.494,0,0,0,1.813-1.125v-.619a15.832,15.832,0,0,1-1.79,1.046c-.535.279-1.094.535-1.653.769v-.675c0-3.515-1.723-7.892-8.986-7.822-4.26.023-8.544,1.49-10.662,5.913l2.491,1.653a8.259,8.259,0,0,1,8.148-6.8c5.378,0,6.146,4.353,6.169,8.031v.629c-9.126,2.491-19.02.326-19.02,8.008v.279c0,2.561,2.072,7.217,9.708,7.217a9.68,9.68,0,0,0,9.335-6.192v3.1c0,2.817,1.769,3.1,3.795,3.1,0,0-.955-.3-.955-3.073m-2.863-7.426c-.047,5.308-3.05,9.172-8.707,9.172-4.493,0-7.356-2.281-7.356-6.774,0-6.495,8.241-4.865,16.063-6.8Z" transform="translate(-348.814 -68.827)" fill="#fff"></path><path d="M661.354,77.144l3.771-1.467,0,2.9v-2.9l-3.794,1.467s.726.35.926,2.238c-.194-1.883-.905-2.233-.905-2.233" transform="translate(-603.715 -69.08)" fill="#fff"></path><path d="M665.331,80.694s.013-.148.013-.815V78.614l0-2.9-3.771,1.467s.712.351.905,2.233a9.623,9.623,0,0,1,.052,1.022V82.37l0,0v.619a28.261,28.261,0,0,0,2.807-2.3" transform="translate(-603.932 -69.119)" fill="#fff"></path><path d="M342.9,361.78h.47l-.006,0h-.511l.047,0" transform="translate(-312.981 -330.259)" fill="#fff"></path><path d="M30.245,97.814,30.222,82.1a5.754,5.754,0,0,0-2.74-4.875A7.7,7.7,0,0,0,23.747,76a6.227,6.227,0,0,0-6.558,4.365,8.285,8.285,0,0,0-.246.915c-.462-3.222-3.6-5.221-6.726-5.28A6.215,6.215,0,0,0,3.8,80.956l-.005-4.971L.943,77.094l-.92.358s.954.489.954,3.259V97.8c0,2.771-.978,3.1-.978,3.1.146,0,.288,0,.426-.006H4.869s-.954-.3-.954-3.073L3.891,82.1v0a2.158,2.158,0,0,1,.177-.873q.117-.265.249-.514a6.389,6.389,0,0,1,5.762-3.564c2.2.1,4.083,1.65,4.083,4.732,0,14.829.023,15.923.023,15.923,0,2.771-.978,3.1-.978,3.1h4.772l-.007,0c-.068-.025-.971-.4-.971-3.07V82.11c0-.043,0-.085,0-.127a7.98,7.98,0,0,1,.366-.915,7.252,7.252,0,0,1,1.261-1.884A6.1,6.1,0,0,1,23.5,77.16c2.12.181,3.9,1.724,3.9,4.707L27.46,98.15a2.712,2.712,0,0,0,.554,1.864,3.59,3.59,0,0,0,2.668.871h.511c-.066-.025-.948-.4-.948-3.07" transform="translate(0 -69.365)" fill="#fff"></path><path d="M657.752,2.321l1.017.556-1.017.556a3.283,3.283,0,0,0-1.3,1.3l-.556,1.017-.556-1.017a3.282,3.282,0,0,0-1.3-1.3l-1.017-.556,1.017-.556a3.282,3.282,0,0,0,1.3-1.3L655.891,0l.556,1.017a3.283,3.283,0,0,0,1.3,1.3" transform="translate(-596.121)" fill="#fff"></path></g></svg>