<svg xmlns="http://www.w3.org/2000/svg" width="304" height="200" viewBox="0 0 304 200"><g transform="translate(-200 -801)"><g transform="translate(-1216 270)"><g transform="translate(912 -4668)"><rect width="304" height="200" transform="translate(504 5199)" fill="none"></rect></g></g><g transform="translate(247.64 853.745)"><g transform="translate(-0.01 24.8)"><path d="M-.008,337.37c3.015.01,6.031-.008,9.045.044a12.891,12.891,0,0,1,2.816.361,6,6,0,0,1,4.9,6.315,5.922,5.922,0,0,1-5.119,6.117,36.164,36.164,0,0,1-4.694.351c-.62.036-1.243.007-2,.007,0,1.274-.013,2.487,0,3.7.01.7-.178,1.6.179,2.036.286.351,1.258.142,1.925.183.108.007.214.021.465.049a13.665,13.665,0,0,1-.024,1.573c-.016.144-.321.362-.494.362-2.333,0-4.668-.023-7-.041v-1.958H2.565V339.33H-.008v-1.958Zm5,11.148c1.33,0,2.549,0,3.766,0a9.484,9.484,0,0,0,1.38-.059,9.231,9.231,0,0,0,1.656-.392,3.972,3.972,0,0,0,2.74-4.238,3.883,3.883,0,0,0-2.922-4.014,7.971,7.971,0,0,0-1.994-.336c-1.531-.049-3.063-.015-4.626-.015v9.058Z" transform="translate(0.01 -307.119)" fill="#f5f5f5"></path><path d="M572.392,230.294l-5.912,3.7c-4.84-8.082-15.565-8.371-20.5-.179a18.419,18.419,0,0,1-5.864-3.694A21.063,21.063,0,0,1,572.392,230.294Z" transform="translate(-451.987 -211.143)" fill="#f5f5f5"></path><path d="M711.117,356.089v2c-1.359,0-2.679.031-4-.031-.215-.01-.48-.388-.609-.653-1.252-2.532-2.493-5.068-3.7-7.622a1.076,1.076,0,0,0-1.17-.744c-1.028.052-2.059.015-3.167.015v7.008h2.209a12.107,12.107,0,0,1-.024,1.594.688.688,0,0,1-.511.423c-2.038.031-4.078.016-6.117.024-.414,0-.594-.168-.578-.586s0-.862,0-1.4h2.526V338.934H693.46a12.122,12.122,0,0,1,.026-1.617.692.692,0,0,1,.525-.411c3.479.008,6.962-.052,10.435.108a5.733,5.733,0,0,1,5.708,5.332,5.8,5.8,0,0,1-4.5,6.473c-.178.052-.357.1-.584.16a2.623,2.623,0,0,0,.122.48c.976,2.031,1.942,4.068,2.962,6.076a1.23,1.23,0,0,0,.845.529,18.432,18.432,0,0,0,2.118.024Zm-12.659-16.983v7.721c2.09,0,4.131.145,6.143-.039,2.2-.2,3.289-1.645,3.262-3.836a3.491,3.491,0,0,0-3.342-3.81c-1.991-.17-4.006-.036-6.065-.036Z" transform="translate(-580.295 -306.727)" fill="#f5f5f5"></path><path d="M540.731,355.877c-2.811,2.557-5.944,3.1-8.686,1.568-2.5-1.4-3.511-3.712-3.671-6.427a10.343,10.343,0,0,1,.346-3.3,6.812,6.812,0,0,1,11.768-2.872,3.029,3.029,0,0,0,.119-.548c.008-1.632-.011-3.265.015-4.9.008-.521-.147-.751-.692-.716-.511.033-1.026.007-1.609.007v-1.919c1.359,0,2.712-.011,4.061.02.126,0,.3.258.351.426a2.253,2.253,0,0,1,.018.648v18.2c.583,0,1.07.033,1.55-.008.64-.054.9.189.821.834a8.658,8.658,0,0,0-.007,1.015h-4.388v-2.028Zm.044-5.461c-.077-.6-.119-1.165-.23-1.723a4.942,4.942,0,0,0-4.743-4.166,4.766,4.766,0,0,0-5.052,3.835,10.582,10.582,0,0,0-.116,3.7,4.8,4.8,0,0,0,4.774,4.28,4.851,4.851,0,0,0,5.089-4.012c.148-.63.189-1.286.276-1.911Z" transform="translate(-442.144 -306.615)" fill="#f5f5f5"></path><path d="M1190.455,356.359c.6,0,1.085.028,1.563-.007.614-.046.927.144.84.816a8.5,8.5,0,0,0-.006,1.026h-4.373V356.17c-.5.445-.831.783-1.2,1.07a6.894,6.894,0,0,1-10.459-2.833,9.167,9.167,0,0,1,.006-7.454,6.752,6.752,0,0,1,11.2-2.015,2.764,2.764,0,0,0,.325.217v-2.669c0-.925-.031-1.852.011-2.774.026-.587-.2-.773-.757-.736-.484.033-.974.007-1.539.007V337.12h4.394v19.238Zm-1.942-5.58c-.085-.661-.124-1.26-.245-1.841a4.94,4.94,0,0,0-4.784-4.117,4.775,4.775,0,0,0-5.016,3.885,10.735,10.735,0,0,0-.122,3.539,5,5,0,0,0,9.849.483c.167-.653.222-1.333.318-1.948Z" transform="translate(-984.133 -306.91)" fill="#f5f5f5"></path><path d="M993.7,374.155v-1.849h4.415a5.434,5.434,0,0,1,.088.612c.039,1.116.036,1.116-1.09,1.119h-1.238v11.353c.61,0,1.176.008,1.743,0,.778-.013.573.569.581.987s.153.924-.569.912q-1.672-.024-3.345,0c-.427.007-.582-.178-.565-.587.018-.427,0-.855,0-1.333-.16.036-.256.028-.3.07a6.478,6.478,0,0,1-7.23,1.774c-2.849-.888-4.193-3.121-4.665-5.941a9.087,9.087,0,0,1,.819-5.713,6.792,6.792,0,0,1,11.053-1.579,2.142,2.142,0,0,0,.292.176Zm.137,5.6c-.08-.62-.119-1.219-.238-1.8a4.912,4.912,0,0,0-4.786-4.112,4.62,4.62,0,0,0-4.882,3.812,10.882,10.882,0,0,0-.093,3.861,4.657,4.657,0,0,0,4.614,4.14,4.844,4.844,0,0,0,5.1-3.9,19.871,19.871,0,0,0,.289-2Z" transform="translate(-821.256 -335.936)" fill="#f5f5f5"></path><path d="M127.548,383.314a5.952,5.952,0,0,1-3.665,3.983,8.473,8.473,0,0,1-5.517.215c-2.922-.837-4.285-3-4.685-5.848a10.23,10.23,0,0,1,.442-5.063,6.79,6.79,0,0,1,7.336-4.469,6.641,6.641,0,0,1,6.316,5.489,33.355,33.355,0,0,1,.3,3.487H115.9A4.7,4.7,0,0,0,120,385.874c2.08.21,3.893-.255,5.055-2.2a.741.741,0,0,1,.486-.338c.615-.041,1.237-.016,2-.016Zm-11.737-4.192H125.8a5,5,0,1,0-9.994,0Z" transform="translate(-95.023 -336.186)" fill="#f5f5f5"></path><path d="M303.01,385.93h2.214v1.818a2.8,2.8,0,0,1-.529.1c-1.876.008-3.755-.026-5.629.021-.865.021-.7-.525-.72-1.025-.023-.529-.028-.994.736-.922.532.051,1.074.01,1.643.01V374.619H298.41v-1.767h4.37V374.6c.1.065.2.132.3.2a3.477,3.477,0,0,1,.408-.674c2.532-2.624,8.783-2.464,10.046,2.687a14.947,14.947,0,0,1,.336,3.069c.054,1.686.015,3.373.015,5.06v.989c.628,0,1.168.029,1.7-.007.741-.052.689.439.654.907-.031.434.232,1.036-.617,1.026q-2.815-.034-5.629,0c-.85.01-.583-.594-.614-1.028-.034-.467-.088-.958.654-.906.535.038,1.077.008,1.705.008,0-1.625.021-3.143-.007-4.66a19.536,19.536,0,0,0-.191-3.407,4.135,4.135,0,0,0-4.456-3.474,4.021,4.021,0,0,0-4.037,3.751c-.193,2.536-.044,5.1-.044,7.788Z" transform="translate(-249.658 -336.48)" fill="#f5f5f5"></path><path d="M420.55,379.893a26.94,26.94,0,0,1,1.052-3.887c1.271-2.939,4.1-4.277,7.707-3.844a6.842,6.842,0,0,1,5.807,5.62,10.432,10.432,0,0,1-.145,4.924c-.964,3.4-3.6,5.217-7.39,5.1a6.7,6.7,0,0,1-6.572-5.505c-.163-.765-.2-1.558-.3-2.338l-.155-.064Zm12.593.284c-.039-.627-.051-1.034-.091-1.439a5.053,5.053,0,0,0-9.924-.91,7.991,7.991,0,0,0,.034,4.345,4.8,4.8,0,0,0,5.07,3.717A4.73,4.73,0,0,0,432.9,381.9C433.046,381.264,433.086,380.609,433.143,380.177Z" transform="translate(-351.927 -336.167)" fill="#f5f5f5"></path><path d="M890.008,381.873a6.67,6.67,0,0,1-5.983,5.659,7.62,7.62,0,0,1-5.306-1.119c-2.562-1.813-3.227-4.458-3.074-7.388a9.287,9.287,0,0,1,.6-2.771,6.871,6.871,0,0,1,11.371-2.358c.07.07.145.135.354.33V372.29h2.059v5.354a14.99,14.99,0,0,1-2.007-.031c-.224-.031-.465-.38-.584-.638a4.823,4.823,0,0,0-5.827-2.983,4.53,4.53,0,0,0-3.466,3.123,7.8,7.8,0,0,0-.049,5.044,4.613,4.613,0,0,0,4.1,3.461A4.69,4.69,0,0,0,887.34,383a1.705,1.705,0,0,1,2.041-1.132,5.247,5.247,0,0,0,.627,0Z" transform="translate(-732.746 -335.931)" fill="#f5f5f5"></path><path d="M707.523,159.317a21.5,21.5,0,0,0-15.333-.878c.284-1.126.537-2.2.837-3.26a.972.972,0,0,1,.463-.491,21.641,21.641,0,0,1,13.762-2.459c1.19.183,1.23.194,1.079,1.423-.228,1.841-.521,3.673-.808,5.667Z" transform="translate(-579.244 -151.974)" fill="#f5f5f5"></path><path d="M501.395,159.148a21.4,21.4,0,0,0-15.162.8,21.3,21.3,0,0,1-1.023-6.383c0-.166.369-.47.578-.481a59.3,59.3,0,0,1,6.316-.232,19.561,19.561,0,0,1,7.85,2.495,1.384,1.384,0,0,1,.614.744c.308.976.542,1.974.827,3.056Z" transform="translate(-406.037 -152.685)" fill="#f5f5f5"></path><path d="M500.242,202.23a19.957,19.957,0,0,1,6.034-2.5,23.747,23.747,0,0,1,8.168-.419,2.155,2.155,0,0,1,1.017.535c1.1.855,2.183,1.743,3.223,2.578a21.081,21.081,0,0,0-14.609,5.53,22.182,22.182,0,0,1-3.835-5.721Z" transform="translate(-418.614 -191.455)" fill="#f5f5f5"></path><path d="M682.219,202.312l-3.836,5.717a21.111,21.111,0,0,0-14.662-5.644c1.1-.94,2.276-1.947,3.459-2.939a.881.881,0,0,1,.445-.157,22.272,22.272,0,0,1,14.06,2.634c.116.067.217.157.535.388Z" transform="translate(-555.419 -191.414)" fill="#f5f5f5"></path><path d="M1109.051,385.925c.638,0,1.2.016,1.77,0,.777-.029.6.535.6.963s.176.974-.6.966c-1.958-.018-3.916-.008-5.874-.007-.795,0-.529-.6-.547-1.005s-.17-.932.556-.915c.592.015,1.183,0,1.845,0V381.74c0-2.1-.034-4.19.018-6.284.02-.747-.23-.966-.928-.893a13.962,13.962,0,0,1-1.439.01v-1.728h4.383v1.968a5.332,5.332,0,0,1,3.252-2.265,4.752,4.752,0,0,1,.643-.085c2.116-.09,2.351.168,2.12,2.345-.392-.047-.785-.108-1.178-.139-2.63-.2-4.463,1.278-4.6,3.921-.121,2.386-.026,4.781-.026,7.333Z" transform="translate(-924.171 -336.474)" fill="#f5f5f5"></path><path d="M226.1,385.975c.592,0,1.186-.007,1.779,0,.676.01.5.538.483.9s.263.987-.462,1c-2.141.026-4.283.01-6.364.01-.088-.142-.139-.186-.142-.232q-.134-1.668,1.473-1.684c.268,0,.535-.028.862-.046.023-.274.059-.507.059-.741,0-3.237-.016-6.475.018-9.71.007-.693-.219-.922-.883-.858-.48.046-.966.008-1.5.008v-1.736h4.3c.038.568.075,1.145.124,1.865.225-.235.364-.372.494-.519a4.835,4.835,0,0,1,4.926-1.6c.5.1.692.3.646.811-.041.455-.008.917-.008,1.424-.457-.055-.848-.117-1.243-.148-2.48-.194-4.259.974-4.5,3.43-.25,2.55-.055,5.145-.055,7.827Z" transform="translate(-185.262 -336.517)" fill="#f5f5f5"></path><path d="M819.393,376.627V374.91h4.5c.018.315.051.63.051.946,0,3.727.023,7.452-.013,11.179-.006.762.232,1.025.973.94a12.393,12.393,0,0,1,1.4-.01v1.858H819.41v-1.858c.521,0,1.052-.036,1.578.01.627.055.786-.207.782-.8q-.032-4.856,0-9.71c0-.615-.147-.917-.822-.848-.481.049-.972.01-1.557.01Z" transform="translate(-685.689 -338.533)" fill="#f5f5f5"></path><path d="M834.877,339.525h-2.328c0-.819-.018-1.646.021-2.472,0-.116.289-.3.452-.313.589-.038,1.183-.015,1.855-.015Z" transform="translate(-696.697 -306.573)" fill="#f5f5f5"></path></g><path d="M587.38,15.414c0,.4-.021.672,0,.941a.714.714,0,0,1-.742.862,7.51,7.51,0,0,0-2.262.636c-.994.387-1.056.379-1.2-.636a35.518,35.518,0,0,0-1.573-6.442,60.426,60.426,0,0,0-3.588-7.989c-.54-1.056-.514-1.07.568-1.5A23.822,23.822,0,0,1,583.056.052c.769-.145,1.247.007,1.511.868a65.9,65.9,0,0,1,2.619,11.709c.113.966.139,1.942.2,2.785Z" transform="translate(-483.424)" fill="#f9f9f9"></path><path d="M643.243,15.351a40.577,40.577,0,0,1,1.046-8.005A54.806,54.806,0,0,1,646.13.713a.907.907,0,0,1,1.163-.685,23.923,23.923,0,0,1,5.159,1.449c.5.2.478.436.286.863-.956,2.115-2.1,4.14-2.981,6.29a38.245,38.245,0,0,0-2.428,8.907c-.095.628-.276.72-.826.467a8.414,8.414,0,0,0-2.552-.785.734.734,0,0,1-.713-.893c.024-.323,0-.649,0-.976Z" transform="translate(-538.286 0)" fill="#f9f9f9"></path><path d="M531.816,43.981c.07.31-.23.441-.429.584a7.217,7.217,0,0,0-1.859,2.022c-.4.63-.584.432-.824-.095a22.25,22.25,0,0,0-5.026-6.923A24.386,24.386,0,0,0,517.7,35.55c-.609-.305-.517-.556-.2-.964a24.891,24.891,0,0,1,3.941-3.967.731.731,0,0,1,1.018-.051,26.646,26.646,0,0,1,9.255,13.055C531.757,43.725,531.777,43.832,531.816,43.981Z" transform="translate(-432.864 -25.424)" fill="#f9f9f9"></path><path d="M688.183,35.148c-.059.307-.3.348-.483.444a27.591,27.591,0,0,0-5.686,3.758,23.407,23.407,0,0,0-5.1,6.677c-.126.24-.243.485-.362.728-.191.388-.369.4-.62.028a8.629,8.629,0,0,0-2.08-2.151.631.631,0,0,1-.214-.847A27.9,27.9,0,0,1,679.9,33.272c.9-.889,1.914-1.672,2.873-2.506a.77.77,0,0,1,1.136,0,23.917,23.917,0,0,1,4.055,4.089c.083.1.157.214.217.3Z" transform="translate(-563.665 -25.533)" fill="#f9f9f9"></path><path d="M708.533,94.554a26.066,26.066,0,0,0-7.189,1.863,20.935,20.935,0,0,0-5.248,3.228c-.444.374-.68.333-.749-.282a10.384,10.384,0,0,0-.618-2.51.814.814,0,0,1,.175-.822A18.4,18.4,0,0,1,700.85,90.7a25.555,25.555,0,0,1,6.8-2.674.955.955,0,0,1,1.317.661,25.619,25.619,0,0,1,1.49,4.97c.109.552.153.906-.6.808-.421-.054-.84.23-1.318.091Z" transform="translate(-581.336 -73.607)" fill="#f9f9f9"></path><path d="M490.625,87.722c.421.1.842.2,1.261.315A21.984,21.984,0,0,1,503.061,94.8c.72.817,1.281,1.637.716,2.818a5.887,5.887,0,0,0-.364,1.739c-.069.521-.235.532-.6.222a22.638,22.638,0,0,0-8.423-4.422,28.982,28.982,0,0,0-5.584-.906c-.494-.044-.628-.241-.538-.662a24.328,24.328,0,0,1,1.689-5.4c.144-.305.3-.509.667-.473Z" transform="translate(-408.583 -73.4)" fill="#f9f9f9"></path></g></g></svg>