<svg xmlns="http://www.w3.org/2000/svg" xmlns:xlink="http://www.w3.org/1999/xlink" width="830" height="1042" viewBox="0 0 830 1042"><defs><clipPath id="a"><rect width="830" height="1042" transform="translate(1090 9051)" fill="#fff" stroke="#707070" stroke-width="1"></rect></clipPath></defs><g transform="translate(-1090 -9051)" clip-path="url(#a)"><g transform="translate(668.861 8970.724)"><g transform="translate(432.402 757.193)"><line x1="735.173" y2="350.367" transform="translate(394.302)" fill="#fff" stroke="#fff" stroke-miterlimit="10" stroke-width="0.75"></line><line x1="747.351" y2="311.102" transform="translate(328.585 26.372)" fill="#fff" stroke="#fff" stroke-miterlimit="10" stroke-width="0.75"></line><line x1="759.53" y2="271.836" transform="translate(262.868 52.743)" fill="#fff" stroke="#fff" stroke-miterlimit="10" stroke-width="0.75"></line><line x1="771.708" y2="232.571" transform="translate(197.151 79.114)" fill="#fff" stroke="#fff" stroke-miterlimit="10" stroke-width="0.75"></line><line x1="783.887" y2="193.306" transform="translate(131.434 105.486)" fill="#fff" stroke="#fff" stroke-miterlimit="10" stroke-width="0.75"></line><line x1="796.066" y2="154.041" transform="translate(65.717 131.857)" fill="#fff" stroke="#fff" stroke-miterlimit="10" stroke-width="0.75"></line><line x1="808.244" y2="114.775" transform="translate(0 158.229)" fill="#fff" stroke="#fff" stroke-miterlimit="10" stroke-width="0.75"></line></g><g transform="translate(839.031 101.636)"><line x2="627.524" y2="655.556" transform="translate(95.32)" fill="#fff" stroke="#fff" stroke-miterlimit="10" stroke-width="0.75"></line><line x2="589.873" y2="681.928" transform="translate(79.434)" fill="#fff" stroke="#fff" stroke-miterlimit="10" stroke-width="0.75"></line><line x2="552.221" y2="708.299" transform="translate(63.547)" fill="#fff" stroke="#fff" stroke-miterlimit="10" stroke-width="0.75"></line><line x2="514.57" y2="734.671" transform="translate(47.66)" fill="#fff" stroke="#fff" stroke-miterlimit="10" stroke-width="0.75"></line><line x2="476.918" y2="761.042" transform="translate(31.773)" fill="#fff" stroke="#fff" stroke-miterlimit="10" stroke-width="0.75"></line><line x2="439.267" y2="787.414" transform="translate(15.887)" fill="#fff" stroke="#fff" stroke-miterlimit="10" stroke-width="0.75"></line><line x2="401.615" y2="813.785" fill="#fff" stroke="#fff" stroke-miterlimit="10" stroke-width="0.75"></line></g><g transform="translate(432.402 98.993)"><line y1="931.204" x2="406.634" fill="#fff" stroke="#fff" stroke-miterlimit="10" stroke-width="0.75"></line><line y1="943.657" x2="356.803" transform="translate(65.717 0.441)" fill="#fff" stroke="#fff" stroke-miterlimit="10" stroke-width="0.75"></line><line y1="956.11" x2="306.972" transform="translate(131.434 0.881)" fill="#fff" stroke="#fff" stroke-miterlimit="10" stroke-width="0.75"></line><line y1="968.564" x2="257.141" transform="translate(197.151 1.322)" fill="#fff" stroke="#fff" stroke-miterlimit="10" stroke-width="0.75"></line><line y1="981.017" x2="207.31" transform="translate(262.868 1.762)" fill="#fff" stroke="#fff" stroke-miterlimit="10" stroke-width="0.75"></line><line y1="993.47" x2="157.479" transform="translate(328.585 2.203)" fill="#fff" stroke="#fff" stroke-miterlimit="10" stroke-width="0.75"></line><line y1="1005.923" x2="107.648" transform="translate(394.302 2.643)" fill="#fff" stroke="#fff" stroke-miterlimit="10" stroke-width="0.75"></line></g></g></g></svg>