<svg xmlns="http://www.w3.org/2000/svg" xmlns:xlink="http://www.w3.org/1999/xlink" width="108.307" height="85.914" viewBox="0 0 108.307 85.914"><defs><clipPath id="a"><rect width="100" height="74.281" fill="none"></rect></clipPath></defs><g transform="translate(0 12.187) rotate(-7)"><g clip-path="url(#a)"><path d="M0,37.14C0,16.628,22.386,0,50,0s50,16.628,50,37.14-22.386,37.14-50,37.14S0,57.653,0,37.14" fill="#ff026a"></path><path d="M64.638,82.156c-24.177,0-43.847-14.1-43.847-31.429S40.461,19.3,64.638,19.3s43.847,14.1,43.847,31.429S88.815,82.156,64.638,82.156m0-61.675c-23.524,0-42.663,13.568-42.663,30.245S41.113,80.973,64.638,80.973,107.3,67.4,107.3,50.727,88.162,20.482,64.638,20.482" transform="translate(-14.638 -13.587)" fill="#000024"></path><path d="M110.3,98.393l1.561-7.231q4.188,2.653,11.445,2.992h.338a12.535,12.535,0,0,0,5.306-.975q2.081-.975,2.081-2.666a2.627,2.627,0,0,0-.884-1.977,5.605,5.605,0,0,0-2.393-1.248,21.328,21.328,0,0,0-3.147-.611,30.038,30.038,0,0,0-3.538-.2,30.392,30.392,0,0,0-3.9.208l-.1-5.54.806-.052a30.078,30.078,0,0,0,9.065-1.327q3.395-1.2,3.395-3.356a2.646,2.646,0,0,0-1.613-2.38,9.31,9.31,0,0,0-4.4-.871,18.744,18.744,0,0,0-5.9,1.028,19.629,19.629,0,0,0-5.333,2.64L110.949,69.7a27.087,27.087,0,0,1,7.283-2.6,39.909,39.909,0,0,1,8.584-.936,24.184,24.184,0,0,1,6.828.871,10.253,10.253,0,0,1,4.7,2.731,6.362,6.362,0,0,1,1.743,4.513,7.967,7.967,0,0,1-1.964,5.306,11.573,11.573,0,0,1-5.449,3.434q8.428,1.925,8.428,8.506a7.386,7.386,0,0,1-2.146,5.384,12.5,12.5,0,0,1-5.775,3.174,32.743,32.743,0,0,1-8.545.988A34.558,34.558,0,0,1,110.3,98.393" transform="translate(-77.655 -46.583)"></path></g></g></svg>