<svg xmlns="http://www.w3.org/2000/svg" width="728.585" height="147.518" viewBox="0 0 728.585 147.518"><path d="M536.449,36.7V76.866c0,11.594,4.659,17.392,13.768,17.392s13.768-5.8,13.768-17.392V36.7h16.149V77.28a47.273,47.273,0,0,1-2.07,14.6,24.5,24.5,0,0,1-6.936,9.835c-5.383,4.762-12.423,7.039-20.911,7.039-8.385,0-15.321-2.381-20.808-7.039a23.523,23.523,0,0,1-7.039-9.835c-1.346-3.313-2.07-8.075-2.07-14.6V36.7Z" transform="translate(18.323 1.292)" fill="#f7f4f6"></path><path d="M623.46,68.9,598.408,36.7h19.255l15.528,20.5L649.03,36.7h19.876l-25.88,32.2,30.021,37.889H653.792L633.191,80.7l-21.118,26.087H592.3Z" transform="translate(20.858 1.292)" fill="#f7f4f6"></path><path d="M684.2,94.942a10.176,10.176,0,1,1,10.145,10.145,9.366,9.366,0,0,1-7.143-2.9A9.462,9.462,0,0,1,684.2,94.942Z" transform="translate(24.095 2.99)" fill="#f7f4f6"></path><path d="M18.323,36.7,36.75,71.173,54.866,36.8H73.19L36.543,106.991,0,36.7Z" transform="translate(0 1.292)" fill="#f7f4f6"></path><path d="M106.442,36.7v69.463H90.5V36.7Z" transform="translate(3.187 1.292)" fill="#f7f4f6"></path><path d="M126.4,36.767h16.253v6.418c5.59-5.59,12.009-8.385,19.152-8.385,8.178,0,14.389,2.588,19.048,7.661,3.934,4.348,5.8,11.491,5.8,21.325v42.858H170.4V67.616c0-6.832-.932-11.7-2.9-14.286-1.863-2.692-5.176-4.037-10.249-4.037-5.28,0-9.213,1.76-11.491,5.28S142.449,64.2,142.449,72.9v33.748H126.3l.1-69.877Z" transform="translate(4.448 1.226)" fill="#f7f4f6"></path><path d="M275.544,105.916c0,3.313-.1,6.315-.311,8.8a52.826,52.826,0,0,1-.932,6.729,29.834,29.834,0,0,1-6.832,13.768c-6.418,7.35-15.218,11.077-26.4,11.077-9.42,0-17.185-2.588-23.292-7.661q-9.472-7.764-10.87-21.74h16.46a18.292,18.292,0,0,0,3.106,8.075c3.416,4.451,8.282,6.625,14.8,6.625,12.009,0,17.909-7.35,17.909-22.05V99.7c-6.522,6.625-13.975,9.938-22.464,9.938a30.414,30.414,0,0,1-23.706-10.456c-6.211-7.039-9.317-15.942-9.317-26.5,0-10.352,2.9-19.048,8.7-26.294Q221.713,34.9,236.93,34.9a28.592,28.592,0,0,1,22.257,9.938V36.867h16.356v69.049ZM259.912,72.271c0-6.832-1.863-12.319-5.487-16.46A18.116,18.116,0,0,0,240.14,49.5c-6.211,0-11.077,2.277-14.7,6.936-3.209,4.141-4.865,9.42-4.865,15.942,0,6.418,1.656,11.7,4.865,15.839,3.52,4.555,8.385,6.729,14.7,6.729,6.211,0,11.18-2.277,14.8-6.832Q259.912,82.054,259.912,72.271Z" transform="translate(7.174 1.229)" fill="#f7f4f6"></path><path d="M316.289,52.382v55.073H300.036V52.382H293.1V37.164h6.936V0h16.253V37.164h12.63V52.278l-12.63.1Z" transform="translate(10.322)" fill="#f7f4f6"></path><path d="M401.57,0h16.356l.1,107.455H401.673V100c-6.418,6.315-13.665,9.317-21.74,9.317a31,31,0,0,1-23.913-10.456c-6.315-7.247-9.421-16.149-9.421-26.812,0-10.456,3.209-19.255,9.421-26.191A29.866,29.866,0,0,1,379.52,35.3c8.178,0,15.632,3.416,22.154,10.042ZM363.163,72.051c0,6.729,1.863,12.216,5.487,16.46a17.415,17.415,0,0,0,13.975,6.418,18.713,18.713,0,0,0,14.6-6.211c3.727-4.348,5.59-9.628,5.59-16.356,0-6.625-1.863-12.009-5.59-16.356a18.181,18.181,0,0,0-14.389-6.315,17.878,17.878,0,0,0-13.975,6.418A23.347,23.347,0,0,0,363.163,72.051Z" transform="translate(12.206)" fill="#f7f4f6"></path><path d="M503.21,74.8H452.485c.414,5.8,2.277,10.456,5.694,13.872a17.158,17.158,0,0,0,12.837,5.073,16.792,16.792,0,0,0,10.145-2.9c2.588-1.967,5.59-5.487,8.9-10.766l13.768,7.661a56.906,56.906,0,0,1-6.729,9.317,34.137,34.137,0,0,1-7.66,6.418,28.712,28.712,0,0,1-8.8,3.623,39.859,39.859,0,0,1-10.249,1.139c-10.559,0-19.048-3.416-25.466-10.145-6.418-6.832-9.628-15.839-9.628-27.123,0-11.18,3.106-20.187,9.317-27.123Q453.934,33.6,469.462,33.6c10.456,0,18.634,3.313,24.742,9.938q9.006,9.938,9.006,27.33ZM486.44,61.447Q483.023,48.4,469.98,48.4a16.673,16.673,0,0,0-5.59.932,16.35,16.35,0,0,0-4.762,2.588A13.954,13.954,0,0,0,456,56.064a17.5,17.5,0,0,0-2.278,5.487H486.44v-.1Z" transform="translate(15.33 1.183)" fill="#f7f4f6"></path><path d="M88.4,10.042A9.717,9.717,0,0,1,91.4,3a10,10,0,0,1,14.286,0,9.777,9.777,0,0,1,3,7.143,9.777,9.777,0,0,1-3,7.143,9.682,9.682,0,0,1-7.143,2.9,9.367,9.367,0,0,1-7.143-2.9A9.462,9.462,0,0,1,88.4,10.042Z" transform="translate(3.113 0)" fill="#f7f4f6"></path></svg>